<?xml version="1.0" encoding="UTF-8" standalone="no"?>
<!DOCTYPE svg PUBLIC "-//W3C//DTD SVG 1.1//EN" "http://www.w3.org/Graphics/SVG/1.1/DTD/svg11.dtd">
<svg width="100%" height="100%" viewBox="0 0 792 612" version="1.1" xmlns="http://www.w3.org/2000/svg" xmlns:xlink="http://www.w3.org/1999/xlink" xml:space="preserve" xmlns:serif="http://www.serif.com/" style="fill-rule:evenodd;clip-rule:evenodd;stroke-linejoin:round;stroke-miterlimit:2;">
    <g id="figure_1">
        <g id="patch_1">
            <rect x="0" y="0" width="792" height="612" style="fill:white;fill-rule:nonzero;"/>
        </g>
        <g transform="matrix(1,0,0,1,7.15408,97.7677)">
            <g transform="matrix(14,0,0,14,297.836,205.336)">
                <path d="M0.479,-0.239C0.479,-0.2 0.475,-0.166 0.467,-0.135C0.458,-0.105 0.446,-0.079 0.43,-0.057C0.414,-0.036 0.394,-0.02 0.37,-0.008C0.346,0.003 0.319,0.009 0.289,0.009C0.276,0.009 0.264,0.008 0.252,0.005C0.241,0.003 0.231,-0.001 0.22,-0.007C0.209,-0.012 0.199,-0.019 0.188,-0.028C0.178,-0.036 0.167,-0.046 0.155,-0.058L0.155,0.162C0.155,0.165 0.155,0.167 0.153,0.169C0.152,0.171 0.15,0.173 0.147,0.174C0.144,0.175 0.14,0.176 0.135,0.177C0.13,0.177 0.123,0.178 0.115,0.178C0.107,0.178 0.1,0.177 0.095,0.177C0.09,0.176 0.086,0.175 0.083,0.174C0.08,0.173 0.078,0.171 0.076,0.169C0.075,0.167 0.075,0.165 0.075,0.162L0.075,-0.452C0.075,-0.455 0.075,-0.457 0.076,-0.459C0.077,-0.461 0.079,-0.462 0.082,-0.463C0.085,-0.465 0.089,-0.466 0.093,-0.466C0.098,-0.467 0.103,-0.467 0.11,-0.467C0.117,-0.467 0.122,-0.467 0.127,-0.466C0.131,-0.466 0.135,-0.465 0.138,-0.463C0.141,-0.462 0.143,-0.461 0.144,-0.459C0.145,-0.457 0.146,-0.455 0.146,-0.452L0.146,-0.393C0.159,-0.406 0.172,-0.418 0.184,-0.428C0.196,-0.438 0.209,-0.447 0.221,-0.453C0.234,-0.46 0.247,-0.465 0.26,-0.469C0.273,-0.472 0.287,-0.474 0.302,-0.474C0.334,-0.474 0.361,-0.467 0.383,-0.455C0.406,-0.443 0.424,-0.426 0.438,-0.404C0.452,-0.383 0.463,-0.358 0.469,-0.329C0.476,-0.301 0.479,-0.271 0.479,-0.239ZM0.394,-0.229C0.394,-0.252 0.392,-0.274 0.389,-0.295C0.385,-0.316 0.38,-0.334 0.371,-0.351C0.363,-0.367 0.352,-0.38 0.338,-0.39C0.324,-0.399 0.306,-0.404 0.286,-0.404C0.275,-0.404 0.265,-0.403 0.255,-0.4C0.245,-0.397 0.235,-0.392 0.224,-0.385C0.214,-0.378 0.203,-0.37 0.191,-0.359C0.18,-0.348 0.168,-0.334 0.155,-0.318L0.155,-0.144C0.177,-0.117 0.198,-0.096 0.218,-0.082C0.238,-0.067 0.259,-0.06 0.281,-0.06C0.301,-0.06 0.318,-0.065 0.333,-0.075C0.347,-0.084 0.359,-0.097 0.368,-0.114C0.377,-0.13 0.383,-0.148 0.388,-0.168C0.392,-0.189 0.394,-0.209 0.394,-0.229Z" style="fill-rule:nonzero;"/>
            </g>
            <g transform="matrix(14,0,0,14,305.191,205.336)">
                <path d="M0.155,-0.012C0.155,-0.01 0.155,-0.007 0.153,-0.006C0.152,-0.004 0.15,-0.002 0.147,-0.001C0.144,0 0.14,0.001 0.135,0.002C0.13,0.003 0.123,0.003 0.115,0.003C0.107,0.003 0.1,0.003 0.095,0.002C0.09,0.001 0.086,0 0.083,-0.001C0.08,-0.002 0.078,-0.004 0.076,-0.006C0.075,-0.007 0.075,-0.01 0.075,-0.012L0.075,-0.665C0.075,-0.667 0.075,-0.669 0.076,-0.671C0.078,-0.673 0.08,-0.675 0.083,-0.676C0.086,-0.678 0.09,-0.679 0.095,-0.679C0.1,-0.68 0.107,-0.68 0.115,-0.68C0.123,-0.68 0.13,-0.68 0.135,-0.679C0.14,-0.679 0.144,-0.678 0.147,-0.676C0.15,-0.675 0.152,-0.673 0.153,-0.671C0.155,-0.669 0.155,-0.667 0.155,-0.665L0.155,-0.012Z" style="fill-rule:nonzero;"/>
            </g>
            <g transform="matrix(14,0,0,14,308.404,205.336)">
                <path d="M0.45,-0.251C0.45,-0.238 0.447,-0.229 0.44,-0.224C0.434,-0.219 0.427,-0.216 0.418,-0.216L0.13,-0.216C0.13,-0.191 0.133,-0.169 0.138,-0.15C0.143,-0.13 0.151,-0.114 0.162,-0.1C0.174,-0.086 0.188,-0.075 0.207,-0.067C0.225,-0.06 0.247,-0.056 0.273,-0.056C0.294,-0.056 0.313,-0.058 0.329,-0.061C0.345,-0.065 0.359,-0.069 0.371,-0.073C0.383,-0.077 0.393,-0.081 0.401,-0.084C0.408,-0.088 0.414,-0.089 0.418,-0.089C0.42,-0.089 0.422,-0.089 0.424,-0.088C0.426,-0.087 0.427,-0.085 0.428,-0.083C0.429,-0.08 0.43,-0.077 0.43,-0.073C0.431,-0.069 0.431,-0.064 0.431,-0.058C0.431,-0.054 0.431,-0.05 0.431,-0.047C0.43,-0.044 0.43,-0.041 0.429,-0.039C0.429,-0.036 0.428,-0.034 0.427,-0.032C0.426,-0.03 0.424,-0.028 0.423,-0.027C0.421,-0.025 0.416,-0.022 0.407,-0.018C0.398,-0.014 0.387,-0.01 0.373,-0.006C0.359,-0.002 0.342,0.002 0.324,0.005C0.306,0.008 0.286,0.009 0.265,0.009C0.229,0.009 0.197,0.004 0.17,-0.006C0.143,-0.016 0.12,-0.031 0.102,-0.051C0.083,-0.071 0.069,-0.096 0.06,-0.125C0.05,-0.155 0.045,-0.19 0.045,-0.23C0.045,-0.268 0.05,-0.302 0.06,-0.332C0.07,-0.362 0.084,-0.387 0.102,-0.408C0.121,-0.429 0.143,-0.446 0.169,-0.457C0.195,-0.468 0.224,-0.474 0.256,-0.474C0.291,-0.474 0.32,-0.468 0.344,-0.457C0.369,-0.446 0.389,-0.431 0.404,-0.412C0.42,-0.394 0.431,-0.372 0.439,-0.346C0.446,-0.321 0.45,-0.294 0.45,-0.266L0.45,-0.251ZM0.369,-0.275C0.37,-0.317 0.36,-0.35 0.341,-0.375C0.321,-0.399 0.292,-0.411 0.253,-0.411C0.233,-0.411 0.216,-0.407 0.201,-0.399C0.186,-0.392 0.173,-0.382 0.163,-0.37C0.153,-0.357 0.145,-0.343 0.14,-0.326C0.134,-0.31 0.131,-0.293 0.13,-0.275L0.369,-0.275Z" style="fill-rule:nonzero;"/>
            </g>
            <g transform="matrix(14,0,0,14,315.37,205.336)">
                <path d="M0.406,-0.012C0.406,-0.008 0.404,-0.005 0.402,-0.003C0.399,-0.001 0.396,0 0.391,0.001C0.387,0.002 0.38,0.003 0.371,0.003C0.363,0.003 0.356,0.002 0.351,0.001C0.346,0 0.342,-0.001 0.34,-0.003C0.338,-0.005 0.336,-0.008 0.336,-0.012L0.336,-0.056C0.317,-0.035 0.296,-0.019 0.272,-0.008C0.249,0.004 0.224,0.009 0.197,0.009C0.174,0.009 0.153,0.006 0.135,0C0.116,-0.006 0.1,-0.014 0.087,-0.026C0.073,-0.037 0.063,-0.051 0.056,-0.068C0.049,-0.084 0.045,-0.103 0.045,-0.125C0.045,-0.149 0.05,-0.171 0.06,-0.189C0.07,-0.207 0.085,-0.222 0.104,-0.234C0.122,-0.246 0.146,-0.255 0.173,-0.261C0.2,-0.267 0.231,-0.271 0.265,-0.271L0.326,-0.271L0.326,-0.305C0.326,-0.322 0.324,-0.337 0.32,-0.35C0.317,-0.363 0.311,-0.373 0.303,-0.382C0.295,-0.391 0.285,-0.397 0.272,-0.402C0.259,-0.406 0.244,-0.408 0.225,-0.408C0.205,-0.408 0.187,-0.406 0.172,-0.401C0.156,-0.396 0.142,-0.391 0.13,-0.385C0.118,-0.38 0.108,-0.375 0.1,-0.37C0.092,-0.365 0.086,-0.363 0.083,-0.363C0.08,-0.363 0.078,-0.363 0.076,-0.365C0.074,-0.366 0.072,-0.368 0.071,-0.371C0.069,-0.373 0.068,-0.377 0.067,-0.381C0.067,-0.385 0.066,-0.389 0.066,-0.394C0.066,-0.402 0.067,-0.409 0.068,-0.413C0.069,-0.418 0.072,-0.423 0.076,-0.427C0.081,-0.431 0.088,-0.436 0.099,-0.442C0.11,-0.447 0.122,-0.453 0.136,-0.457C0.15,-0.462 0.166,-0.466 0.182,-0.469C0.199,-0.472 0.215,-0.474 0.232,-0.474C0.264,-0.474 0.291,-0.47 0.313,-0.463C0.335,-0.456 0.353,-0.445 0.367,-0.431C0.38,-0.418 0.39,-0.4 0.396,-0.38C0.403,-0.359 0.406,-0.335 0.406,-0.308L0.406,-0.012ZM0.326,-0.212L0.257,-0.212C0.235,-0.212 0.215,-0.211 0.199,-0.207C0.183,-0.203 0.169,-0.198 0.159,-0.19C0.148,-0.183 0.14,-0.174 0.135,-0.164C0.13,-0.154 0.127,-0.142 0.127,-0.128C0.127,-0.106 0.135,-0.087 0.149,-0.074C0.164,-0.06 0.184,-0.054 0.21,-0.054C0.231,-0.054 0.251,-0.059 0.269,-0.07C0.287,-0.081 0.306,-0.097 0.326,-0.119L0.326,-0.212Z" style="fill-rule:nonzero;"/>
            </g>
            <g transform="matrix(14,0,0,14,322.076,205.336)">
                <path d="M0.351,-0.132C0.351,-0.109 0.346,-0.089 0.338,-0.072C0.33,-0.054 0.318,-0.039 0.303,-0.027C0.287,-0.015 0.269,-0.006 0.248,0C0.227,0.006 0.204,0.009 0.178,0.009C0.163,0.009 0.148,0.008 0.134,0.006C0.119,0.003 0.107,0 0.095,-0.004C0.084,-0.007 0.075,-0.011 0.067,-0.015C0.059,-0.019 0.053,-0.023 0.05,-0.026C0.046,-0.03 0.044,-0.034 0.042,-0.04C0.04,-0.046 0.04,-0.054 0.04,-0.064C0.04,-0.07 0.04,-0.075 0.041,-0.08C0.041,-0.084 0.042,-0.087 0.043,-0.09C0.044,-0.092 0.045,-0.094 0.047,-0.095C0.049,-0.097 0.051,-0.097 0.053,-0.097C0.057,-0.097 0.062,-0.095 0.069,-0.091C0.076,-0.086 0.085,-0.081 0.095,-0.076C0.105,-0.071 0.117,-0.066 0.131,-0.062C0.145,-0.057 0.161,-0.055 0.18,-0.055C0.193,-0.055 0.206,-0.057 0.217,-0.06C0.228,-0.063 0.237,-0.067 0.246,-0.073C0.254,-0.078 0.26,-0.085 0.264,-0.094C0.269,-0.103 0.271,-0.113 0.271,-0.125C0.271,-0.138 0.268,-0.148 0.261,-0.157C0.255,-0.165 0.247,-0.173 0.236,-0.179C0.226,-0.186 0.214,-0.191 0.201,-0.197C0.188,-0.202 0.175,-0.207 0.161,-0.212C0.147,-0.218 0.134,-0.224 0.12,-0.231C0.107,-0.238 0.095,-0.247 0.085,-0.257C0.075,-0.267 0.066,-0.279 0.06,-0.293C0.053,-0.307 0.05,-0.324 0.05,-0.343C0.05,-0.361 0.054,-0.377 0.06,-0.393C0.067,-0.409 0.077,-0.422 0.09,-0.434C0.104,-0.446 0.12,-0.456 0.14,-0.463C0.16,-0.47 0.184,-0.474 0.21,-0.474C0.222,-0.474 0.234,-0.473 0.246,-0.471C0.257,-0.469 0.268,-0.466 0.277,-0.463C0.287,-0.46 0.295,-0.457 0.302,-0.454C0.308,-0.45 0.313,-0.447 0.317,-0.445C0.32,-0.442 0.322,-0.44 0.323,-0.438C0.325,-0.436 0.325,-0.434 0.326,-0.431C0.326,-0.429 0.327,-0.426 0.327,-0.422C0.328,-0.419 0.328,-0.414 0.328,-0.409C0.328,-0.404 0.328,-0.399 0.327,-0.395C0.327,-0.391 0.326,-0.387 0.325,-0.385C0.324,-0.382 0.322,-0.38 0.321,-0.379C0.319,-0.378 0.317,-0.377 0.315,-0.377C0.313,-0.377 0.308,-0.379 0.303,-0.383C0.297,-0.386 0.29,-0.39 0.281,-0.394C0.272,-0.398 0.262,-0.402 0.25,-0.406C0.238,-0.409 0.225,-0.411 0.209,-0.411C0.196,-0.411 0.184,-0.41 0.173,-0.406C0.163,-0.403 0.154,-0.399 0.148,-0.393C0.141,-0.388 0.136,-0.381 0.133,-0.373C0.129,-0.365 0.127,-0.357 0.127,-0.348C0.127,-0.335 0.131,-0.324 0.137,-0.316C0.144,-0.307 0.152,-0.299 0.163,-0.293C0.173,-0.286 0.185,-0.281 0.198,-0.275C0.212,-0.27 0.225,-0.265 0.239,-0.259C0.253,-0.254 0.267,-0.248 0.28,-0.241C0.294,-0.234 0.306,-0.226 0.316,-0.216C0.326,-0.206 0.335,-0.194 0.341,-0.181C0.347,-0.167 0.351,-0.151 0.351,-0.132Z" style="fill-rule:nonzero;"/>
            </g>
            <g transform="matrix(14,0,0,14,327.551,205.336)">
                <path d="M0.45,-0.251C0.45,-0.238 0.447,-0.229 0.44,-0.224C0.434,-0.219 0.427,-0.216 0.418,-0.216L0.13,-0.216C0.13,-0.191 0.133,-0.169 0.138,-0.15C0.143,-0.13 0.151,-0.114 0.162,-0.1C0.174,-0.086 0.188,-0.075 0.207,-0.067C0.225,-0.06 0.247,-0.056 0.273,-0.056C0.294,-0.056 0.313,-0.058 0.329,-0.061C0.345,-0.065 0.359,-0.069 0.371,-0.073C0.383,-0.077 0.393,-0.081 0.401,-0.084C0.408,-0.088 0.414,-0.089 0.418,-0.089C0.42,-0.089 0.422,-0.089 0.424,-0.088C0.426,-0.087 0.427,-0.085 0.428,-0.083C0.429,-0.08 0.43,-0.077 0.43,-0.073C0.431,-0.069 0.431,-0.064 0.431,-0.058C0.431,-0.054 0.431,-0.05 0.431,-0.047C0.43,-0.044 0.43,-0.041 0.429,-0.039C0.429,-0.036 0.428,-0.034 0.427,-0.032C0.426,-0.03 0.424,-0.028 0.423,-0.027C0.421,-0.025 0.416,-0.022 0.407,-0.018C0.398,-0.014 0.387,-0.01 0.373,-0.006C0.359,-0.002 0.342,0.002 0.324,0.005C0.306,0.008 0.286,0.009 0.265,0.009C0.229,0.009 0.197,0.004 0.17,-0.006C0.143,-0.016 0.12,-0.031 0.102,-0.051C0.083,-0.071 0.069,-0.096 0.06,-0.125C0.05,-0.155 0.045,-0.19 0.045,-0.23C0.045,-0.268 0.05,-0.302 0.06,-0.332C0.07,-0.362 0.084,-0.387 0.102,-0.408C0.121,-0.429 0.143,-0.446 0.169,-0.457C0.195,-0.468 0.224,-0.474 0.256,-0.474C0.291,-0.474 0.32,-0.468 0.344,-0.457C0.369,-0.446 0.389,-0.431 0.404,-0.412C0.42,-0.394 0.431,-0.372 0.439,-0.346C0.446,-0.321 0.45,-0.294 0.45,-0.266L0.45,-0.251ZM0.369,-0.275C0.37,-0.317 0.36,-0.35 0.341,-0.375C0.321,-0.399 0.292,-0.411 0.253,-0.411C0.233,-0.411 0.216,-0.407 0.201,-0.399C0.186,-0.392 0.173,-0.382 0.163,-0.37C0.153,-0.357 0.145,-0.343 0.14,-0.326C0.134,-0.31 0.131,-0.293 0.13,-0.275L0.369,-0.275Z" style="fill-rule:nonzero;"/>
            </g>
            <g transform="matrix(14,0,0,14,337.682,205.336)">
                <path d="M0.351,-0.132C0.351,-0.109 0.346,-0.089 0.338,-0.072C0.33,-0.054 0.318,-0.039 0.303,-0.027C0.287,-0.015 0.269,-0.006 0.248,0C0.227,0.006 0.204,0.009 0.178,0.009C0.163,0.009 0.148,0.008 0.134,0.006C0.119,0.003 0.107,0 0.095,-0.004C0.084,-0.007 0.075,-0.011 0.067,-0.015C0.059,-0.019 0.053,-0.023 0.05,-0.026C0.046,-0.03 0.044,-0.034 0.042,-0.04C0.04,-0.046 0.04,-0.054 0.04,-0.064C0.04,-0.07 0.04,-0.075 0.041,-0.08C0.041,-0.084 0.042,-0.087 0.043,-0.09C0.044,-0.092 0.045,-0.094 0.047,-0.095C0.049,-0.097 0.051,-0.097 0.053,-0.097C0.057,-0.097 0.062,-0.095 0.069,-0.091C0.076,-0.086 0.085,-0.081 0.095,-0.076C0.105,-0.071 0.117,-0.066 0.131,-0.062C0.145,-0.057 0.161,-0.055 0.18,-0.055C0.193,-0.055 0.206,-0.057 0.217,-0.06C0.228,-0.063 0.237,-0.067 0.246,-0.073C0.254,-0.078 0.26,-0.085 0.264,-0.094C0.269,-0.103 0.271,-0.113 0.271,-0.125C0.271,-0.138 0.268,-0.148 0.261,-0.157C0.255,-0.165 0.247,-0.173 0.236,-0.179C0.226,-0.186 0.214,-0.191 0.201,-0.197C0.188,-0.202 0.175,-0.207 0.161,-0.212C0.147,-0.218 0.134,-0.224 0.12,-0.231C0.107,-0.238 0.095,-0.247 0.085,-0.257C0.075,-0.267 0.066,-0.279 0.06,-0.293C0.053,-0.307 0.05,-0.324 0.05,-0.343C0.05,-0.361 0.054,-0.377 0.06,-0.393C0.067,-0.409 0.077,-0.422 0.09,-0.434C0.104,-0.446 0.12,-0.456 0.14,-0.463C0.16,-0.47 0.184,-0.474 0.21,-0.474C0.222,-0.474 0.234,-0.473 0.246,-0.471C0.257,-0.469 0.268,-0.466 0.277,-0.463C0.287,-0.46 0.295,-0.457 0.302,-0.454C0.308,-0.45 0.313,-0.447 0.317,-0.445C0.32,-0.442 0.322,-0.44 0.323,-0.438C0.325,-0.436 0.325,-0.434 0.326,-0.431C0.326,-0.429 0.327,-0.426 0.327,-0.422C0.328,-0.419 0.328,-0.414 0.328,-0.409C0.328,-0.404 0.328,-0.399 0.327,-0.395C0.327,-0.391 0.326,-0.387 0.325,-0.385C0.324,-0.382 0.322,-0.38 0.321,-0.379C0.319,-0.378 0.317,-0.377 0.315,-0.377C0.313,-0.377 0.308,-0.379 0.303,-0.383C0.297,-0.386 0.29,-0.39 0.281,-0.394C0.272,-0.398 0.262,-0.402 0.25,-0.406C0.238,-0.409 0.225,-0.411 0.209,-0.411C0.196,-0.411 0.184,-0.41 0.173,-0.406C0.163,-0.403 0.154,-0.399 0.148,-0.393C0.141,-0.388 0.136,-0.381 0.133,-0.373C0.129,-0.365 0.127,-0.357 0.127,-0.348C0.127,-0.335 0.131,-0.324 0.137,-0.316C0.144,-0.307 0.152,-0.299 0.163,-0.293C0.173,-0.286 0.185,-0.281 0.198,-0.275C0.212,-0.27 0.225,-0.265 0.239,-0.259C0.253,-0.254 0.267,-0.248 0.28,-0.241C0.294,-0.234 0.306,-0.226 0.316,-0.216C0.326,-0.206 0.335,-0.194 0.341,-0.181C0.347,-0.167 0.351,-0.151 0.351,-0.132Z" style="fill-rule:nonzero;"/>
            </g>
            <g transform="matrix(14,0,0,14,343.158,205.336)">
                <path d="M0.45,-0.251C0.45,-0.238 0.447,-0.229 0.44,-0.224C0.434,-0.219 0.427,-0.216 0.418,-0.216L0.13,-0.216C0.13,-0.191 0.133,-0.169 0.138,-0.15C0.143,-0.13 0.151,-0.114 0.162,-0.1C0.174,-0.086 0.188,-0.075 0.207,-0.067C0.225,-0.06 0.247,-0.056 0.273,-0.056C0.294,-0.056 0.313,-0.058 0.329,-0.061C0.345,-0.065 0.359,-0.069 0.371,-0.073C0.383,-0.077 0.393,-0.081 0.401,-0.084C0.408,-0.088 0.414,-0.089 0.418,-0.089C0.42,-0.089 0.422,-0.089 0.424,-0.088C0.426,-0.087 0.427,-0.085 0.428,-0.083C0.429,-0.08 0.43,-0.077 0.43,-0.073C0.431,-0.069 0.431,-0.064 0.431,-0.058C0.431,-0.054 0.431,-0.05 0.431,-0.047C0.43,-0.044 0.43,-0.041 0.429,-0.039C0.429,-0.036 0.428,-0.034 0.427,-0.032C0.426,-0.03 0.424,-0.028 0.423,-0.027C0.421,-0.025 0.416,-0.022 0.407,-0.018C0.398,-0.014 0.387,-0.01 0.373,-0.006C0.359,-0.002 0.342,0.002 0.324,0.005C0.306,0.008 0.286,0.009 0.265,0.009C0.229,0.009 0.197,0.004 0.17,-0.006C0.143,-0.016 0.12,-0.031 0.102,-0.051C0.083,-0.071 0.069,-0.096 0.06,-0.125C0.05,-0.155 0.045,-0.19 0.045,-0.23C0.045,-0.268 0.05,-0.302 0.06,-0.332C0.07,-0.362 0.084,-0.387 0.102,-0.408C0.121,-0.429 0.143,-0.446 0.169,-0.457C0.195,-0.468 0.224,-0.474 0.256,-0.474C0.291,-0.474 0.32,-0.468 0.344,-0.457C0.369,-0.446 0.389,-0.431 0.404,-0.412C0.42,-0.394 0.431,-0.372 0.439,-0.346C0.446,-0.321 0.45,-0.294 0.45,-0.266L0.45,-0.251ZM0.369,-0.275C0.37,-0.317 0.36,-0.35 0.341,-0.375C0.321,-0.399 0.292,-0.411 0.253,-0.411C0.233,-0.411 0.216,-0.407 0.201,-0.399C0.186,-0.392 0.173,-0.382 0.163,-0.37C0.153,-0.357 0.145,-0.343 0.14,-0.326C0.134,-0.31 0.131,-0.293 0.13,-0.275L0.369,-0.275Z" style="fill-rule:nonzero;"/>
            </g>
            <g transform="matrix(14,0,0,14,350.124,205.336)">
                <path d="M0.155,-0.012C0.155,-0.01 0.155,-0.007 0.153,-0.006C0.152,-0.004 0.15,-0.002 0.147,-0.001C0.144,0 0.14,0.001 0.135,0.002C0.13,0.003 0.123,0.003 0.115,0.003C0.107,0.003 0.1,0.003 0.095,0.002C0.09,0.001 0.086,0 0.083,-0.001C0.08,-0.002 0.078,-0.004 0.076,-0.006C0.075,-0.007 0.075,-0.01 0.075,-0.012L0.075,-0.665C0.075,-0.667 0.075,-0.669 0.076,-0.671C0.078,-0.673 0.08,-0.675 0.083,-0.676C0.086,-0.678 0.09,-0.679 0.095,-0.679C0.1,-0.68 0.107,-0.68 0.115,-0.68C0.123,-0.68 0.13,-0.68 0.135,-0.679C0.14,-0.679 0.144,-0.678 0.147,-0.676C0.15,-0.675 0.152,-0.673 0.153,-0.671C0.155,-0.669 0.155,-0.667 0.155,-0.665L0.155,-0.012Z" style="fill-rule:nonzero;"/>
            </g>
            <g transform="matrix(14,0,0,14,353.337,205.336)">
                <path d="M0.45,-0.251C0.45,-0.238 0.447,-0.229 0.44,-0.224C0.434,-0.219 0.427,-0.216 0.418,-0.216L0.13,-0.216C0.13,-0.191 0.133,-0.169 0.138,-0.15C0.143,-0.13 0.151,-0.114 0.162,-0.1C0.174,-0.086 0.188,-0.075 0.207,-0.067C0.225,-0.06 0.247,-0.056 0.273,-0.056C0.294,-0.056 0.313,-0.058 0.329,-0.061C0.345,-0.065 0.359,-0.069 0.371,-0.073C0.383,-0.077 0.393,-0.081 0.401,-0.084C0.408,-0.088 0.414,-0.089 0.418,-0.089C0.42,-0.089 0.422,-0.089 0.424,-0.088C0.426,-0.087 0.427,-0.085 0.428,-0.083C0.429,-0.08 0.43,-0.077 0.43,-0.073C0.431,-0.069 0.431,-0.064 0.431,-0.058C0.431,-0.054 0.431,-0.05 0.431,-0.047C0.43,-0.044 0.43,-0.041 0.429,-0.039C0.429,-0.036 0.428,-0.034 0.427,-0.032C0.426,-0.03 0.424,-0.028 0.423,-0.027C0.421,-0.025 0.416,-0.022 0.407,-0.018C0.398,-0.014 0.387,-0.01 0.373,-0.006C0.359,-0.002 0.342,0.002 0.324,0.005C0.306,0.008 0.286,0.009 0.265,0.009C0.229,0.009 0.197,0.004 0.17,-0.006C0.143,-0.016 0.12,-0.031 0.102,-0.051C0.083,-0.071 0.069,-0.096 0.06,-0.125C0.05,-0.155 0.045,-0.19 0.045,-0.23C0.045,-0.268 0.05,-0.302 0.06,-0.332C0.07,-0.362 0.084,-0.387 0.102,-0.408C0.121,-0.429 0.143,-0.446 0.169,-0.457C0.195,-0.468 0.224,-0.474 0.256,-0.474C0.291,-0.474 0.32,-0.468 0.344,-0.457C0.369,-0.446 0.389,-0.431 0.404,-0.412C0.42,-0.394 0.431,-0.372 0.439,-0.346C0.446,-0.321 0.45,-0.294 0.45,-0.266L0.45,-0.251ZM0.369,-0.275C0.37,-0.317 0.36,-0.35 0.341,-0.375C0.321,-0.399 0.292,-0.411 0.253,-0.411C0.233,-0.411 0.216,-0.407 0.201,-0.399C0.186,-0.392 0.173,-0.382 0.163,-0.37C0.153,-0.357 0.145,-0.343 0.14,-0.326C0.134,-0.31 0.131,-0.293 0.13,-0.275L0.369,-0.275Z" style="fill-rule:nonzero;"/>
            </g>
            <g transform="matrix(14,0,0,14,360.302,205.336)">
                <path d="M0.391,-0.079C0.391,-0.074 0.39,-0.069 0.39,-0.065C0.39,-0.061 0.389,-0.057 0.388,-0.054C0.388,-0.052 0.387,-0.049 0.385,-0.047C0.384,-0.045 0.382,-0.042 0.378,-0.038C0.374,-0.034 0.367,-0.029 0.357,-0.023C0.347,-0.017 0.336,-0.011 0.324,-0.007C0.312,-0.002 0.299,0.002 0.284,0.005C0.27,0.008 0.255,0.009 0.24,0.009C0.208,0.009 0.18,0.004 0.156,-0.006C0.131,-0.017 0.111,-0.032 0.094,-0.052C0.078,-0.072 0.066,-0.097 0.057,-0.126C0.048,-0.155 0.044,-0.188 0.044,-0.227C0.044,-0.27 0.049,-0.307 0.06,-0.338C0.07,-0.369 0.085,-0.395 0.103,-0.415C0.122,-0.434 0.143,-0.449 0.168,-0.459C0.193,-0.468 0.22,-0.473 0.249,-0.473C0.263,-0.473 0.277,-0.472 0.29,-0.469C0.303,-0.467 0.315,-0.463 0.326,-0.459C0.337,-0.455 0.347,-0.45 0.356,-0.444C0.364,-0.439 0.371,-0.434 0.375,-0.43C0.378,-0.426 0.381,-0.423 0.383,-0.421C0.384,-0.419 0.385,-0.416 0.386,-0.413C0.387,-0.41 0.388,-0.406 0.388,-0.402C0.389,-0.398 0.389,-0.394 0.389,-0.388C0.389,-0.375 0.387,-0.366 0.384,-0.361C0.381,-0.356 0.378,-0.354 0.374,-0.354C0.369,-0.354 0.363,-0.356 0.357,-0.362C0.35,-0.367 0.342,-0.373 0.333,-0.379C0.323,-0.386 0.311,-0.392 0.297,-0.397C0.283,-0.403 0.267,-0.405 0.248,-0.405C0.209,-0.405 0.18,-0.39 0.159,-0.361C0.138,-0.331 0.128,-0.288 0.128,-0.231C0.128,-0.203 0.131,-0.178 0.136,-0.156C0.141,-0.135 0.149,-0.117 0.16,-0.103C0.17,-0.089 0.183,-0.078 0.198,-0.071C0.213,-0.064 0.23,-0.061 0.25,-0.061C0.269,-0.061 0.285,-0.063 0.299,-0.069C0.313,-0.075 0.325,-0.082 0.335,-0.089C0.345,-0.096 0.354,-0.102 0.361,-0.108C0.368,-0.113 0.374,-0.116 0.377,-0.116C0.38,-0.116 0.382,-0.116 0.383,-0.114C0.385,-0.113 0.386,-0.111 0.387,-0.108C0.389,-0.105 0.389,-0.101 0.39,-0.096C0.39,-0.091 0.391,-0.086 0.391,-0.079Z" style="fill-rule:nonzero;"/>
            </g>
            <g transform="matrix(14,0,0,14,366.222,205.336)">
                <path d="M0.303,-0.044C0.303,-0.035 0.303,-0.028 0.301,-0.022C0.3,-0.016 0.298,-0.012 0.295,-0.01C0.293,-0.007 0.289,-0.005 0.284,-0.002C0.278,0 0.273,0.002 0.266,0.003C0.259,0.005 0.252,0.006 0.245,0.007C0.237,0.008 0.23,0.008 0.222,0.008C0.199,0.008 0.18,0.005 0.164,-0.001C0.147,-0.007 0.134,-0.016 0.124,-0.028C0.113,-0.04 0.106,-0.056 0.101,-0.074C0.096,-0.093 0.094,-0.115 0.094,-0.141L0.094,-0.397L0.032,-0.397C0.027,-0.397 0.023,-0.4 0.021,-0.405C0.018,-0.41 0.016,-0.419 0.016,-0.431C0.016,-0.437 0.017,-0.442 0.017,-0.446C0.018,-0.451 0.019,-0.454 0.021,-0.457C0.022,-0.46 0.024,-0.462 0.026,-0.463C0.028,-0.464 0.03,-0.464 0.033,-0.464L0.094,-0.464L0.094,-0.569C0.094,-0.571 0.094,-0.573 0.095,-0.575C0.097,-0.577 0.099,-0.579 0.102,-0.58C0.105,-0.582 0.109,-0.583 0.114,-0.583C0.119,-0.584 0.126,-0.584 0.134,-0.584C0.142,-0.584 0.149,-0.584 0.154,-0.583C0.159,-0.583 0.163,-0.582 0.166,-0.58C0.169,-0.579 0.171,-0.577 0.172,-0.575C0.174,-0.573 0.174,-0.571 0.174,-0.569L0.174,-0.464L0.287,-0.464C0.29,-0.464 0.292,-0.464 0.294,-0.463C0.296,-0.462 0.298,-0.46 0.299,-0.457C0.301,-0.454 0.302,-0.451 0.302,-0.446C0.303,-0.442 0.303,-0.437 0.303,-0.431C0.303,-0.419 0.302,-0.41 0.299,-0.405C0.296,-0.4 0.292,-0.397 0.287,-0.397L0.174,-0.397L0.174,-0.152C0.174,-0.122 0.179,-0.099 0.188,-0.084C0.197,-0.068 0.213,-0.061 0.236,-0.061C0.243,-0.061 0.25,-0.061 0.256,-0.063C0.262,-0.064 0.267,-0.066 0.271,-0.067C0.276,-0.069 0.28,-0.071 0.283,-0.072C0.286,-0.073 0.289,-0.074 0.292,-0.074C0.294,-0.074 0.295,-0.074 0.297,-0.073C0.298,-0.072 0.299,-0.071 0.3,-0.068C0.301,-0.066 0.302,-0.063 0.302,-0.059C0.303,-0.055 0.303,-0.05 0.303,-0.044Z" style="fill-rule:nonzero;"/>
            </g>
            <g transform="matrix(14,0,0,14,374.077,205.336)">
                <path d="M0.406,-0.012C0.406,-0.008 0.404,-0.005 0.402,-0.003C0.399,-0.001 0.396,0 0.391,0.001C0.387,0.002 0.38,0.003 0.371,0.003C0.363,0.003 0.356,0.002 0.351,0.001C0.346,0 0.342,-0.001 0.34,-0.003C0.338,-0.005 0.336,-0.008 0.336,-0.012L0.336,-0.056C0.317,-0.035 0.296,-0.019 0.272,-0.008C0.249,0.004 0.224,0.009 0.197,0.009C0.174,0.009 0.153,0.006 0.135,0C0.116,-0.006 0.1,-0.014 0.087,-0.026C0.073,-0.037 0.063,-0.051 0.056,-0.068C0.049,-0.084 0.045,-0.103 0.045,-0.125C0.045,-0.149 0.05,-0.171 0.06,-0.189C0.07,-0.207 0.085,-0.222 0.104,-0.234C0.122,-0.246 0.146,-0.255 0.173,-0.261C0.2,-0.267 0.231,-0.271 0.265,-0.271L0.326,-0.271L0.326,-0.305C0.326,-0.322 0.324,-0.337 0.32,-0.35C0.317,-0.363 0.311,-0.373 0.303,-0.382C0.295,-0.391 0.285,-0.397 0.272,-0.402C0.259,-0.406 0.244,-0.408 0.225,-0.408C0.205,-0.408 0.187,-0.406 0.172,-0.401C0.156,-0.396 0.142,-0.391 0.13,-0.385C0.118,-0.38 0.108,-0.375 0.1,-0.37C0.092,-0.365 0.086,-0.363 0.083,-0.363C0.08,-0.363 0.078,-0.363 0.076,-0.365C0.074,-0.366 0.072,-0.368 0.071,-0.371C0.069,-0.373 0.068,-0.377 0.067,-0.381C0.067,-0.385 0.066,-0.389 0.066,-0.394C0.066,-0.402 0.067,-0.409 0.068,-0.413C0.069,-0.418 0.072,-0.423 0.076,-0.427C0.081,-0.431 0.088,-0.436 0.099,-0.442C0.11,-0.447 0.122,-0.453 0.136,-0.457C0.15,-0.462 0.166,-0.466 0.182,-0.469C0.199,-0.472 0.215,-0.474 0.232,-0.474C0.264,-0.474 0.291,-0.47 0.313,-0.463C0.335,-0.456 0.353,-0.445 0.367,-0.431C0.38,-0.418 0.39,-0.4 0.396,-0.38C0.403,-0.359 0.406,-0.335 0.406,-0.308L0.406,-0.012ZM0.326,-0.212L0.257,-0.212C0.235,-0.212 0.215,-0.211 0.199,-0.207C0.183,-0.203 0.169,-0.198 0.159,-0.19C0.148,-0.183 0.14,-0.174 0.135,-0.164C0.13,-0.154 0.127,-0.142 0.127,-0.128C0.127,-0.106 0.135,-0.087 0.149,-0.074C0.164,-0.06 0.184,-0.054 0.21,-0.054C0.231,-0.054 0.251,-0.059 0.269,-0.07C0.287,-0.081 0.306,-0.097 0.326,-0.119L0.326,-0.212Z" style="fill-rule:nonzero;"/>
            </g>
            <g transform="matrix(14,0,0,14,383.948,205.336)">
                <path d="M0.391,-0.079C0.391,-0.074 0.39,-0.069 0.39,-0.065C0.39,-0.061 0.389,-0.057 0.388,-0.054C0.388,-0.052 0.387,-0.049 0.385,-0.047C0.384,-0.045 0.382,-0.042 0.378,-0.038C0.374,-0.034 0.367,-0.029 0.357,-0.023C0.347,-0.017 0.336,-0.011 0.324,-0.007C0.312,-0.002 0.299,0.002 0.284,0.005C0.27,0.008 0.255,0.009 0.24,0.009C0.208,0.009 0.18,0.004 0.156,-0.006C0.131,-0.017 0.111,-0.032 0.094,-0.052C0.078,-0.072 0.066,-0.097 0.057,-0.126C0.048,-0.155 0.044,-0.188 0.044,-0.227C0.044,-0.27 0.049,-0.307 0.06,-0.338C0.07,-0.369 0.085,-0.395 0.103,-0.415C0.122,-0.434 0.143,-0.449 0.168,-0.459C0.193,-0.468 0.22,-0.473 0.249,-0.473C0.263,-0.473 0.277,-0.472 0.29,-0.469C0.303,-0.467 0.315,-0.463 0.326,-0.459C0.337,-0.455 0.347,-0.45 0.356,-0.444C0.364,-0.439 0.371,-0.434 0.375,-0.43C0.378,-0.426 0.381,-0.423 0.383,-0.421C0.384,-0.419 0.385,-0.416 0.386,-0.413C0.387,-0.41 0.388,-0.406 0.388,-0.402C0.389,-0.398 0.389,-0.394 0.389,-0.388C0.389,-0.375 0.387,-0.366 0.384,-0.361C0.381,-0.356 0.378,-0.354 0.374,-0.354C0.369,-0.354 0.363,-0.356 0.357,-0.362C0.35,-0.367 0.342,-0.373 0.333,-0.379C0.323,-0.386 0.311,-0.392 0.297,-0.397C0.283,-0.403 0.267,-0.405 0.248,-0.405C0.209,-0.405 0.18,-0.39 0.159,-0.361C0.138,-0.331 0.128,-0.288 0.128,-0.231C0.128,-0.203 0.131,-0.178 0.136,-0.156C0.141,-0.135 0.149,-0.117 0.16,-0.103C0.17,-0.089 0.183,-0.078 0.198,-0.071C0.213,-0.064 0.23,-0.061 0.25,-0.061C0.269,-0.061 0.285,-0.063 0.299,-0.069C0.313,-0.075 0.325,-0.082 0.335,-0.089C0.345,-0.096 0.354,-0.102 0.361,-0.108C0.368,-0.113 0.374,-0.116 0.377,-0.116C0.38,-0.116 0.382,-0.116 0.383,-0.114C0.385,-0.113 0.386,-0.111 0.387,-0.108C0.389,-0.105 0.389,-0.101 0.39,-0.096C0.39,-0.091 0.391,-0.086 0.391,-0.079Z" style="fill-rule:nonzero;"/>
            </g>
            <g transform="matrix(14,0,0,14,389.752,205.336)">
                <path d="M0.483,-0.237C0.483,-0.201 0.479,-0.168 0.469,-0.138C0.46,-0.108 0.446,-0.082 0.427,-0.06C0.408,-0.038 0.385,-0.021 0.357,-0.009C0.329,0.003 0.296,0.009 0.259,0.009C0.223,0.009 0.191,0.004 0.164,-0.007C0.137,-0.018 0.115,-0.033 0.097,-0.054C0.079,-0.074 0.066,-0.099 0.057,-0.128C0.048,-0.158 0.044,-0.191 0.044,-0.228C0.044,-0.264 0.049,-0.297 0.058,-0.327C0.067,-0.357 0.081,-0.383 0.1,-0.405C0.119,-0.427 0.142,-0.444 0.17,-0.456C0.198,-0.468 0.231,-0.474 0.268,-0.474C0.304,-0.474 0.336,-0.468 0.363,-0.458C0.389,-0.447 0.412,-0.431 0.43,-0.411C0.448,-0.39 0.461,-0.365 0.47,-0.336C0.479,-0.307 0.483,-0.274 0.483,-0.237ZM0.398,-0.231C0.398,-0.255 0.396,-0.278 0.392,-0.299C0.387,-0.32 0.38,-0.339 0.37,-0.354C0.36,-0.37 0.346,-0.383 0.329,-0.392C0.312,-0.402 0.29,-0.406 0.265,-0.406C0.241,-0.406 0.22,-0.402 0.203,-0.394C0.186,-0.385 0.172,-0.373 0.161,-0.358C0.15,-0.342 0.142,-0.324 0.136,-0.303C0.131,-0.282 0.128,-0.258 0.128,-0.233C0.128,-0.209 0.131,-0.187 0.135,-0.166C0.139,-0.144 0.147,-0.126 0.157,-0.11C0.167,-0.094 0.181,-0.082 0.198,-0.073C0.215,-0.063 0.237,-0.059 0.263,-0.059C0.286,-0.059 0.306,-0.063 0.324,-0.071C0.341,-0.08 0.355,-0.092 0.366,-0.107C0.377,-0.122 0.385,-0.14 0.391,-0.162C0.396,-0.183 0.398,-0.206 0.398,-0.231Z" style="fill-rule:nonzero;"/>
            </g>
            <g transform="matrix(14,0,0,14,397.134,205.336)">
                <path d="M0.451,-0.012C0.451,-0.01 0.451,-0.007 0.449,-0.006C0.448,-0.004 0.446,-0.002 0.443,-0.001C0.44,0 0.437,0.001 0.432,0.002C0.427,0.003 0.421,0.003 0.415,0.003C0.407,0.003 0.401,0.003 0.396,0.002C0.392,0.001 0.388,0 0.385,-0.001C0.382,-0.002 0.38,-0.004 0.379,-0.006C0.378,-0.007 0.378,-0.01 0.378,-0.012L0.378,-0.07C0.353,-0.043 0.328,-0.022 0.304,-0.01C0.279,0.003 0.255,0.009 0.229,0.009C0.2,0.009 0.176,0.004 0.156,-0.005C0.135,-0.015 0.119,-0.028 0.107,-0.045C0.095,-0.062 0.086,-0.081 0.08,-0.104C0.075,-0.126 0.072,-0.153 0.072,-0.185L0.072,-0.452C0.072,-0.454 0.073,-0.456 0.074,-0.458C0.075,-0.46 0.077,-0.462 0.081,-0.463C0.084,-0.465 0.088,-0.466 0.093,-0.466C0.098,-0.467 0.105,-0.467 0.113,-0.467C0.121,-0.467 0.127,-0.467 0.132,-0.466C0.138,-0.466 0.142,-0.465 0.145,-0.463C0.148,-0.462 0.15,-0.46 0.151,-0.458C0.153,-0.456 0.153,-0.454 0.153,-0.452L0.153,-0.196C0.153,-0.17 0.155,-0.149 0.159,-0.134C0.163,-0.119 0.168,-0.105 0.176,-0.094C0.184,-0.084 0.193,-0.075 0.205,-0.069C0.217,-0.063 0.23,-0.06 0.246,-0.06C0.266,-0.06 0.286,-0.067 0.306,-0.082C0.326,-0.096 0.348,-0.117 0.37,-0.145L0.37,-0.452C0.37,-0.454 0.371,-0.456 0.372,-0.458C0.373,-0.46 0.375,-0.462 0.378,-0.463C0.382,-0.465 0.386,-0.466 0.391,-0.466C0.396,-0.467 0.403,-0.467 0.411,-0.467C0.418,-0.467 0.425,-0.467 0.43,-0.466C0.435,-0.466 0.439,-0.465 0.442,-0.463C0.445,-0.462 0.448,-0.46 0.449,-0.458C0.45,-0.456 0.451,-0.454 0.451,-0.452L0.451,-0.012Z" style="fill-rule:nonzero;"/>
            </g>
            <g transform="matrix(14,0,0,14,404.49,205.336)">
                <path d="M0.453,-0.012C0.453,-0.01 0.452,-0.007 0.451,-0.006C0.45,-0.004 0.448,-0.002 0.445,-0.001C0.442,0 0.438,0.001 0.433,0.002C0.427,0.003 0.421,0.003 0.413,0.003C0.405,0.003 0.398,0.003 0.393,0.002C0.388,0.001 0.384,0 0.381,-0.001C0.378,-0.002 0.376,-0.004 0.375,-0.006C0.373,-0.007 0.373,-0.01 0.373,-0.012L0.373,-0.27C0.373,-0.295 0.371,-0.315 0.367,-0.33C0.363,-0.345 0.357,-0.359 0.35,-0.37C0.342,-0.381 0.332,-0.389 0.321,-0.395C0.309,-0.401 0.295,-0.404 0.279,-0.404C0.259,-0.404 0.239,-0.397 0.219,-0.382C0.199,-0.368 0.177,-0.347 0.155,-0.319L0.155,-0.012C0.155,-0.01 0.155,-0.007 0.153,-0.006C0.152,-0.004 0.15,-0.002 0.147,-0.001C0.144,0 0.14,0.001 0.135,0.002C0.13,0.003 0.123,0.003 0.115,0.003C0.107,0.003 0.1,0.003 0.095,0.002C0.09,0.001 0.086,0 0.083,-0.001C0.08,-0.002 0.078,-0.004 0.076,-0.006C0.075,-0.007 0.075,-0.01 0.075,-0.012L0.075,-0.452C0.075,-0.454 0.075,-0.456 0.076,-0.458C0.077,-0.46 0.079,-0.462 0.082,-0.463C0.085,-0.465 0.089,-0.466 0.093,-0.466C0.098,-0.467 0.104,-0.467 0.111,-0.467C0.118,-0.467 0.124,-0.467 0.129,-0.466C0.134,-0.466 0.138,-0.465 0.14,-0.463C0.143,-0.462 0.145,-0.46 0.146,-0.458C0.147,-0.456 0.147,-0.454 0.147,-0.452L0.147,-0.394C0.172,-0.421 0.197,-0.441 0.221,-0.454C0.246,-0.467 0.271,-0.474 0.296,-0.474C0.325,-0.474 0.35,-0.469 0.37,-0.459C0.39,-0.449 0.406,-0.436 0.418,-0.419C0.431,-0.402 0.44,-0.383 0.445,-0.361C0.45,-0.338 0.453,-0.312 0.453,-0.28L0.453,-0.012Z" style="fill-rule:nonzero;"/>
            </g>
            <g transform="matrix(14,0,0,14,411.716,205.336)">
                <path d="M0.303,-0.044C0.303,-0.035 0.303,-0.028 0.301,-0.022C0.3,-0.016 0.298,-0.012 0.295,-0.01C0.293,-0.007 0.289,-0.005 0.284,-0.002C0.278,0 0.273,0.002 0.266,0.003C0.259,0.005 0.252,0.006 0.245,0.007C0.237,0.008 0.23,0.008 0.222,0.008C0.199,0.008 0.18,0.005 0.164,-0.001C0.147,-0.007 0.134,-0.016 0.124,-0.028C0.113,-0.04 0.106,-0.056 0.101,-0.074C0.096,-0.093 0.094,-0.115 0.094,-0.141L0.094,-0.397L0.032,-0.397C0.027,-0.397 0.023,-0.4 0.021,-0.405C0.018,-0.41 0.016,-0.419 0.016,-0.431C0.016,-0.437 0.017,-0.442 0.017,-0.446C0.018,-0.451 0.019,-0.454 0.021,-0.457C0.022,-0.46 0.024,-0.462 0.026,-0.463C0.028,-0.464 0.03,-0.464 0.033,-0.464L0.094,-0.464L0.094,-0.569C0.094,-0.571 0.094,-0.573 0.095,-0.575C0.097,-0.577 0.099,-0.579 0.102,-0.58C0.105,-0.582 0.109,-0.583 0.114,-0.583C0.119,-0.584 0.126,-0.584 0.134,-0.584C0.142,-0.584 0.149,-0.584 0.154,-0.583C0.159,-0.583 0.163,-0.582 0.166,-0.58C0.169,-0.579 0.171,-0.577 0.172,-0.575C0.174,-0.573 0.174,-0.571 0.174,-0.569L0.174,-0.464L0.287,-0.464C0.29,-0.464 0.292,-0.464 0.294,-0.463C0.296,-0.462 0.298,-0.46 0.299,-0.457C0.301,-0.454 0.302,-0.451 0.302,-0.446C0.303,-0.442 0.303,-0.437 0.303,-0.431C0.303,-0.419 0.302,-0.41 0.299,-0.405C0.296,-0.4 0.292,-0.397 0.287,-0.397L0.174,-0.397L0.174,-0.152C0.174,-0.122 0.179,-0.099 0.188,-0.084C0.197,-0.068 0.213,-0.061 0.236,-0.061C0.243,-0.061 0.25,-0.061 0.256,-0.063C0.262,-0.064 0.267,-0.066 0.271,-0.067C0.276,-0.069 0.28,-0.071 0.283,-0.072C0.286,-0.073 0.289,-0.074 0.292,-0.074C0.294,-0.074 0.295,-0.074 0.297,-0.073C0.298,-0.072 0.299,-0.071 0.3,-0.068C0.301,-0.066 0.302,-0.063 0.302,-0.059C0.303,-0.055 0.303,-0.05 0.303,-0.044Z" style="fill-rule:nonzero;"/>
            </g>
            <g transform="matrix(14,0,0,14,416.405,205.336)">
                <path d="M0.332,-0.423C0.332,-0.416 0.331,-0.41 0.331,-0.405C0.331,-0.4 0.33,-0.396 0.329,-0.393C0.328,-0.391 0.327,-0.388 0.325,-0.387C0.324,-0.385 0.322,-0.385 0.319,-0.385C0.317,-0.385 0.314,-0.385 0.31,-0.387C0.306,-0.388 0.302,-0.39 0.297,-0.391C0.292,-0.393 0.287,-0.394 0.281,-0.396C0.275,-0.397 0.269,-0.397 0.262,-0.397C0.254,-0.397 0.246,-0.396 0.238,-0.393C0.23,-0.389 0.222,-0.384 0.214,-0.376C0.205,-0.369 0.196,-0.359 0.187,-0.347C0.177,-0.334 0.167,-0.319 0.155,-0.301L0.155,-0.012C0.155,-0.01 0.155,-0.007 0.153,-0.006C0.152,-0.004 0.15,-0.002 0.147,-0.001C0.144,0 0.14,0.001 0.135,0.002C0.13,0.003 0.123,0.003 0.115,0.003C0.107,0.003 0.1,0.003 0.095,0.002C0.09,0.001 0.086,0 0.083,-0.001C0.08,-0.002 0.078,-0.004 0.076,-0.006C0.075,-0.007 0.075,-0.01 0.075,-0.012L0.075,-0.452C0.075,-0.454 0.075,-0.456 0.076,-0.458C0.077,-0.46 0.079,-0.462 0.082,-0.463C0.085,-0.465 0.089,-0.466 0.093,-0.466C0.098,-0.467 0.104,-0.467 0.111,-0.467C0.118,-0.467 0.124,-0.467 0.129,-0.466C0.134,-0.466 0.138,-0.465 0.14,-0.463C0.143,-0.462 0.145,-0.46 0.146,-0.458C0.147,-0.456 0.147,-0.454 0.147,-0.452L0.147,-0.388C0.16,-0.405 0.171,-0.42 0.181,-0.431C0.192,-0.442 0.202,-0.45 0.211,-0.457C0.221,-0.463 0.23,-0.468 0.24,-0.47C0.249,-0.472 0.258,-0.474 0.268,-0.474C0.272,-0.474 0.277,-0.473 0.282,-0.473C0.287,-0.472 0.293,-0.472 0.299,-0.47C0.305,-0.469 0.31,-0.467 0.315,-0.466C0.319,-0.464 0.323,-0.463 0.325,-0.461C0.327,-0.459 0.328,-0.458 0.329,-0.456C0.329,-0.455 0.33,-0.453 0.33,-0.451C0.331,-0.448 0.331,-0.445 0.331,-0.441C0.331,-0.436 0.332,-0.43 0.332,-0.423Z" style="fill-rule:nonzero;"/>
            </g>
            <g transform="matrix(14,0,0,14,421.354,205.336)">
                <path d="M0.275,0L0.216,0.162C0.214,0.167 0.209,0.171 0.201,0.174C0.193,0.176 0.181,0.178 0.165,0.178C0.157,0.178 0.15,0.177 0.145,0.177C0.139,0.176 0.135,0.174 0.133,0.172C0.13,0.17 0.128,0.168 0.128,0.165C0.128,0.161 0.128,0.157 0.13,0.153L0.191,0C0.188,-0.001 0.185,-0.003 0.183,-0.006C0.18,-0.009 0.178,-0.012 0.177,-0.016L0.021,-0.436C0.018,-0.442 0.017,-0.448 0.017,-0.452C0.017,-0.456 0.018,-0.459 0.021,-0.461C0.023,-0.463 0.027,-0.465 0.033,-0.466C0.039,-0.466 0.047,-0.467 0.057,-0.467C0.066,-0.467 0.074,-0.467 0.08,-0.466C0.085,-0.466 0.09,-0.465 0.093,-0.463C0.096,-0.462 0.098,-0.46 0.1,-0.458C0.101,-0.455 0.103,-0.452 0.104,-0.448L0.23,-0.095L0.231,-0.095L0.353,-0.45C0.354,-0.456 0.357,-0.46 0.36,-0.462C0.362,-0.463 0.367,-0.465 0.372,-0.466C0.378,-0.466 0.386,-0.467 0.396,-0.467C0.405,-0.467 0.413,-0.466 0.418,-0.466C0.424,-0.465 0.429,-0.463 0.431,-0.461C0.434,-0.459 0.436,-0.456 0.436,-0.452C0.436,-0.448 0.435,-0.443 0.433,-0.437L0.275,0Z" style="fill-rule:nonzero;"/>
            </g>
            <g transform="matrix(14,0,0,14,430.856,205.336)">
                <path d="M0.479,-0.238C0.479,-0.2 0.475,-0.165 0.467,-0.135C0.458,-0.105 0.446,-0.079 0.43,-0.057C0.414,-0.036 0.394,-0.019 0.371,-0.008C0.347,0.004 0.32,0.009 0.29,0.009C0.276,0.009 0.263,0.008 0.251,0.005C0.239,0.002 0.228,-0.002 0.216,-0.008C0.205,-0.014 0.194,-0.022 0.182,-0.032C0.171,-0.041 0.159,-0.053 0.146,-0.066L0.146,-0.012C0.146,-0.01 0.145,-0.007 0.144,-0.005C0.143,-0.003 0.141,-0.002 0.138,-0.001C0.135,0 0.131,0.001 0.127,0.002C0.122,0.003 0.117,0.003 0.11,0.003C0.103,0.003 0.098,0.003 0.093,0.002C0.089,0.001 0.085,0 0.082,-0.001C0.079,-0.002 0.077,-0.003 0.076,-0.005C0.075,-0.007 0.075,-0.01 0.075,-0.012L0.075,-0.665C0.075,-0.667 0.075,-0.669 0.076,-0.671C0.078,-0.673 0.08,-0.675 0.083,-0.676C0.086,-0.678 0.09,-0.679 0.095,-0.679C0.1,-0.68 0.107,-0.68 0.115,-0.68C0.123,-0.68 0.13,-0.68 0.135,-0.679C0.14,-0.679 0.144,-0.678 0.147,-0.676C0.15,-0.675 0.152,-0.673 0.153,-0.671C0.155,-0.669 0.155,-0.667 0.155,-0.665L0.155,-0.401C0.168,-0.415 0.181,-0.426 0.193,-0.435C0.205,-0.444 0.217,-0.452 0.229,-0.457C0.241,-0.463 0.252,-0.467 0.264,-0.47C0.276,-0.472 0.288,-0.474 0.301,-0.474C0.333,-0.474 0.36,-0.467 0.383,-0.455C0.406,-0.442 0.424,-0.425 0.438,-0.404C0.452,-0.382 0.463,-0.357 0.469,-0.329C0.476,-0.3 0.479,-0.27 0.479,-0.238ZM0.394,-0.229C0.394,-0.251 0.392,-0.273 0.389,-0.294C0.385,-0.315 0.38,-0.334 0.371,-0.35C0.363,-0.366 0.351,-0.379 0.337,-0.389C0.323,-0.399 0.306,-0.404 0.285,-0.404C0.275,-0.404 0.264,-0.403 0.254,-0.4C0.244,-0.397 0.234,-0.392 0.224,-0.385C0.213,-0.378 0.202,-0.37 0.191,-0.359C0.18,-0.348 0.168,-0.335 0.155,-0.318L0.155,-0.143C0.177,-0.116 0.199,-0.095 0.219,-0.081C0.239,-0.067 0.26,-0.06 0.282,-0.06C0.302,-0.06 0.319,-0.065 0.333,-0.075C0.348,-0.084 0.359,-0.097 0.368,-0.114C0.377,-0.13 0.384,-0.148 0.388,-0.168C0.392,-0.188 0.394,-0.208 0.394,-0.229Z" style="fill-rule:nonzero;"/>
            </g>
            <g transform="matrix(14,0,0,14,438.143,205.336)">
                <path d="M0.275,0L0.216,0.162C0.214,0.167 0.209,0.171 0.201,0.174C0.193,0.176 0.181,0.178 0.165,0.178C0.157,0.178 0.15,0.177 0.145,0.177C0.139,0.176 0.135,0.174 0.133,0.172C0.13,0.17 0.128,0.168 0.128,0.165C0.128,0.161 0.128,0.157 0.13,0.153L0.191,0C0.188,-0.001 0.185,-0.003 0.183,-0.006C0.18,-0.009 0.178,-0.012 0.177,-0.016L0.021,-0.436C0.018,-0.442 0.017,-0.448 0.017,-0.452C0.017,-0.456 0.018,-0.459 0.021,-0.461C0.023,-0.463 0.027,-0.465 0.033,-0.466C0.039,-0.466 0.047,-0.467 0.057,-0.467C0.066,-0.467 0.074,-0.467 0.08,-0.466C0.085,-0.466 0.09,-0.465 0.093,-0.463C0.096,-0.462 0.098,-0.46 0.1,-0.458C0.101,-0.455 0.103,-0.452 0.104,-0.448L0.23,-0.095L0.231,-0.095L0.353,-0.45C0.354,-0.456 0.357,-0.46 0.36,-0.462C0.362,-0.463 0.367,-0.465 0.372,-0.466C0.378,-0.466 0.386,-0.467 0.396,-0.467C0.405,-0.467 0.413,-0.466 0.418,-0.466C0.424,-0.465 0.429,-0.463 0.431,-0.461C0.434,-0.459 0.436,-0.456 0.436,-0.452C0.436,-0.448 0.435,-0.443 0.433,-0.437L0.275,0Z" style="fill-rule:nonzero;"/>
            </g>
            <g transform="matrix(14,0,0,14,447.645,205.336)">
                <path d="M0.453,-0.012C0.453,-0.01 0.452,-0.007 0.451,-0.006C0.45,-0.004 0.448,-0.002 0.445,-0.001C0.442,0 0.438,0.001 0.433,0.002C0.427,0.003 0.421,0.003 0.413,0.003C0.405,0.003 0.398,0.003 0.393,0.002C0.388,0.001 0.384,0 0.381,-0.001C0.378,-0.002 0.376,-0.004 0.375,-0.006C0.373,-0.007 0.373,-0.01 0.373,-0.012L0.373,-0.27C0.373,-0.295 0.371,-0.315 0.367,-0.33C0.363,-0.345 0.357,-0.359 0.35,-0.37C0.342,-0.381 0.332,-0.389 0.321,-0.395C0.309,-0.401 0.295,-0.404 0.279,-0.404C0.259,-0.404 0.239,-0.397 0.219,-0.382C0.199,-0.368 0.177,-0.347 0.155,-0.319L0.155,-0.012C0.155,-0.01 0.155,-0.007 0.153,-0.006C0.152,-0.004 0.15,-0.002 0.147,-0.001C0.144,0 0.14,0.001 0.135,0.002C0.13,0.003 0.123,0.003 0.115,0.003C0.107,0.003 0.1,0.003 0.095,0.002C0.09,0.001 0.086,0 0.083,-0.001C0.08,-0.002 0.078,-0.004 0.076,-0.006C0.075,-0.007 0.075,-0.01 0.075,-0.012L0.075,-0.452C0.075,-0.454 0.075,-0.456 0.076,-0.458C0.077,-0.46 0.079,-0.462 0.082,-0.463C0.085,-0.465 0.089,-0.466 0.093,-0.466C0.098,-0.467 0.104,-0.467 0.111,-0.467C0.118,-0.467 0.124,-0.467 0.129,-0.466C0.134,-0.466 0.138,-0.465 0.14,-0.463C0.143,-0.462 0.145,-0.46 0.146,-0.458C0.147,-0.456 0.147,-0.454 0.147,-0.452L0.147,-0.394C0.172,-0.421 0.197,-0.441 0.221,-0.454C0.246,-0.467 0.271,-0.474 0.296,-0.474C0.325,-0.474 0.35,-0.469 0.37,-0.459C0.39,-0.449 0.406,-0.436 0.418,-0.419C0.431,-0.402 0.44,-0.383 0.445,-0.361C0.45,-0.338 0.453,-0.312 0.453,-0.28L0.453,-0.012Z" style="fill-rule:nonzero;"/>
            </g>
            <g transform="matrix(14,0,0,14,455.001,205.336)">
                <path d="M0.406,-0.012C0.406,-0.008 0.404,-0.005 0.402,-0.003C0.399,-0.001 0.396,0 0.391,0.001C0.387,0.002 0.38,0.003 0.371,0.003C0.363,0.003 0.356,0.002 0.351,0.001C0.346,0 0.342,-0.001 0.34,-0.003C0.338,-0.005 0.336,-0.008 0.336,-0.012L0.336,-0.056C0.317,-0.035 0.296,-0.019 0.272,-0.008C0.249,0.004 0.224,0.009 0.197,0.009C0.174,0.009 0.153,0.006 0.135,0C0.116,-0.006 0.1,-0.014 0.087,-0.026C0.073,-0.037 0.063,-0.051 0.056,-0.068C0.049,-0.084 0.045,-0.103 0.045,-0.125C0.045,-0.149 0.05,-0.171 0.06,-0.189C0.07,-0.207 0.085,-0.222 0.104,-0.234C0.122,-0.246 0.146,-0.255 0.173,-0.261C0.2,-0.267 0.231,-0.271 0.265,-0.271L0.326,-0.271L0.326,-0.305C0.326,-0.322 0.324,-0.337 0.32,-0.35C0.317,-0.363 0.311,-0.373 0.303,-0.382C0.295,-0.391 0.285,-0.397 0.272,-0.402C0.259,-0.406 0.244,-0.408 0.225,-0.408C0.205,-0.408 0.187,-0.406 0.172,-0.401C0.156,-0.396 0.142,-0.391 0.13,-0.385C0.118,-0.38 0.108,-0.375 0.1,-0.37C0.092,-0.365 0.086,-0.363 0.083,-0.363C0.08,-0.363 0.078,-0.363 0.076,-0.365C0.074,-0.366 0.072,-0.368 0.071,-0.371C0.069,-0.373 0.068,-0.377 0.067,-0.381C0.067,-0.385 0.066,-0.389 0.066,-0.394C0.066,-0.402 0.067,-0.409 0.068,-0.413C0.069,-0.418 0.072,-0.423 0.076,-0.427C0.081,-0.431 0.088,-0.436 0.099,-0.442C0.11,-0.447 0.122,-0.453 0.136,-0.457C0.15,-0.462 0.166,-0.466 0.182,-0.469C0.199,-0.472 0.215,-0.474 0.232,-0.474C0.264,-0.474 0.291,-0.47 0.313,-0.463C0.335,-0.456 0.353,-0.445 0.367,-0.431C0.38,-0.418 0.39,-0.4 0.396,-0.38C0.403,-0.359 0.406,-0.335 0.406,-0.308L0.406,-0.012ZM0.326,-0.212L0.257,-0.212C0.235,-0.212 0.215,-0.211 0.199,-0.207C0.183,-0.203 0.169,-0.198 0.159,-0.19C0.148,-0.183 0.14,-0.174 0.135,-0.164C0.13,-0.154 0.127,-0.142 0.127,-0.128C0.127,-0.106 0.135,-0.087 0.149,-0.074C0.164,-0.06 0.184,-0.054 0.21,-0.054C0.231,-0.054 0.251,-0.059 0.269,-0.07C0.287,-0.081 0.306,-0.097 0.326,-0.119L0.326,-0.212Z" style="fill-rule:nonzero;"/>
            </g>
            <g transform="matrix(14,0,0,14,461.707,205.336)">
                <path d="M0.727,-0.012C0.727,-0.01 0.726,-0.007 0.725,-0.006C0.723,-0.004 0.721,-0.002 0.718,-0.001C0.715,0 0.711,0.001 0.706,0.002C0.701,0.003 0.694,0.003 0.687,0.003C0.678,0.003 0.672,0.003 0.667,0.002C0.661,0.001 0.657,0 0.654,-0.001C0.651,-0.002 0.649,-0.004 0.647,-0.006C0.646,-0.007 0.646,-0.01 0.646,-0.012L0.646,-0.279C0.646,-0.298 0.644,-0.315 0.641,-0.33C0.637,-0.345 0.632,-0.359 0.625,-0.37C0.618,-0.381 0.609,-0.389 0.598,-0.395C0.587,-0.401 0.574,-0.404 0.559,-0.404C0.54,-0.404 0.521,-0.397 0.503,-0.382C0.484,-0.368 0.463,-0.347 0.441,-0.319L0.441,-0.012C0.441,-0.01 0.44,-0.007 0.439,-0.006C0.438,-0.004 0.435,-0.002 0.432,-0.001C0.429,0 0.425,0.001 0.42,0.002C0.415,0.003 0.408,0.003 0.4,0.003C0.393,0.003 0.386,0.003 0.381,0.002C0.376,0.001 0.372,0 0.368,-0.001C0.365,-0.002 0.363,-0.004 0.362,-0.006C0.361,-0.007 0.36,-0.01 0.36,-0.012L0.36,-0.279C0.36,-0.298 0.359,-0.315 0.355,-0.33C0.351,-0.345 0.346,-0.359 0.339,-0.37C0.332,-0.381 0.323,-0.389 0.312,-0.395C0.301,-0.401 0.288,-0.404 0.273,-0.404C0.254,-0.404 0.236,-0.397 0.217,-0.382C0.198,-0.368 0.177,-0.347 0.155,-0.319L0.155,-0.012C0.155,-0.01 0.155,-0.007 0.153,-0.006C0.152,-0.004 0.15,-0.002 0.147,-0.001C0.144,0 0.14,0.001 0.135,0.002C0.13,0.003 0.123,0.003 0.115,0.003C0.107,0.003 0.1,0.003 0.095,0.002C0.09,0.001 0.086,0 0.083,-0.001C0.08,-0.002 0.078,-0.004 0.076,-0.006C0.075,-0.007 0.075,-0.01 0.075,-0.012L0.075,-0.452C0.075,-0.454 0.075,-0.456 0.076,-0.458C0.077,-0.46 0.079,-0.462 0.082,-0.463C0.085,-0.465 0.089,-0.466 0.093,-0.466C0.098,-0.467 0.104,-0.467 0.111,-0.467C0.118,-0.467 0.124,-0.467 0.129,-0.466C0.134,-0.466 0.138,-0.465 0.14,-0.463C0.143,-0.462 0.145,-0.46 0.146,-0.458C0.147,-0.456 0.147,-0.454 0.147,-0.452L0.147,-0.394C0.172,-0.421 0.196,-0.441 0.219,-0.454C0.243,-0.467 0.266,-0.474 0.29,-0.474C0.308,-0.474 0.325,-0.472 0.339,-0.467C0.354,-0.463 0.366,-0.457 0.377,-0.449C0.389,-0.442 0.398,-0.433 0.406,-0.422C0.414,-0.412 0.42,-0.4 0.425,-0.387C0.44,-0.403 0.454,-0.416 0.467,-0.427C0.48,-0.438 0.493,-0.447 0.505,-0.454C0.517,-0.461 0.529,-0.466 0.541,-0.469C0.552,-0.472 0.564,-0.474 0.576,-0.474C0.604,-0.474 0.628,-0.469 0.647,-0.459C0.666,-0.449 0.682,-0.436 0.694,-0.419C0.705,-0.402 0.714,-0.383 0.719,-0.361C0.724,-0.338 0.727,-0.315 0.727,-0.29L0.727,-0.012Z" style="fill-rule:nonzero;"/>
            </g>
            <g transform="matrix(14,0,0,14,472.89,205.336)">
                <path d="M0.45,-0.251C0.45,-0.238 0.447,-0.229 0.44,-0.224C0.434,-0.219 0.427,-0.216 0.418,-0.216L0.13,-0.216C0.13,-0.191 0.133,-0.169 0.138,-0.15C0.143,-0.13 0.151,-0.114 0.162,-0.1C0.174,-0.086 0.188,-0.075 0.207,-0.067C0.225,-0.06 0.247,-0.056 0.273,-0.056C0.294,-0.056 0.313,-0.058 0.329,-0.061C0.345,-0.065 0.359,-0.069 0.371,-0.073C0.383,-0.077 0.393,-0.081 0.401,-0.084C0.408,-0.088 0.414,-0.089 0.418,-0.089C0.42,-0.089 0.422,-0.089 0.424,-0.088C0.426,-0.087 0.427,-0.085 0.428,-0.083C0.429,-0.08 0.43,-0.077 0.43,-0.073C0.431,-0.069 0.431,-0.064 0.431,-0.058C0.431,-0.054 0.431,-0.05 0.431,-0.047C0.43,-0.044 0.43,-0.041 0.429,-0.039C0.429,-0.036 0.428,-0.034 0.427,-0.032C0.426,-0.03 0.424,-0.028 0.423,-0.027C0.421,-0.025 0.416,-0.022 0.407,-0.018C0.398,-0.014 0.387,-0.01 0.373,-0.006C0.359,-0.002 0.342,0.002 0.324,0.005C0.306,0.008 0.286,0.009 0.265,0.009C0.229,0.009 0.197,0.004 0.17,-0.006C0.143,-0.016 0.12,-0.031 0.102,-0.051C0.083,-0.071 0.069,-0.096 0.06,-0.125C0.05,-0.155 0.045,-0.19 0.045,-0.23C0.045,-0.268 0.05,-0.302 0.06,-0.332C0.07,-0.362 0.084,-0.387 0.102,-0.408C0.121,-0.429 0.143,-0.446 0.169,-0.457C0.195,-0.468 0.224,-0.474 0.256,-0.474C0.291,-0.474 0.32,-0.468 0.344,-0.457C0.369,-0.446 0.389,-0.431 0.404,-0.412C0.42,-0.394 0.431,-0.372 0.439,-0.346C0.446,-0.321 0.45,-0.294 0.45,-0.266L0.45,-0.251ZM0.369,-0.275C0.37,-0.317 0.36,-0.35 0.341,-0.375C0.321,-0.399 0.292,-0.411 0.253,-0.411C0.233,-0.411 0.216,-0.407 0.201,-0.399C0.186,-0.392 0.173,-0.382 0.163,-0.37C0.153,-0.357 0.145,-0.343 0.14,-0.326C0.134,-0.31 0.131,-0.293 0.13,-0.275L0.369,-0.275Z" style="fill-rule:nonzero;"/>
            </g>
        </g>
    </g>
</svg>
