<?xml version="1.0" encoding="utf-8" standalone="no"?>
<!DOCTYPE svg PUBLIC "-//W3C//DTD SVG 1.1//EN"
  "http://www.w3.org/Graphics/SVG/1.1/DTD/svg11.dtd">
<!-- Created with matplotlib (https://matplotlib.org/) -->
<svg height="612pt" version="1.1" viewBox="0 0 792 612" width="792pt" xmlns="http://www.w3.org/2000/svg" xmlns:xlink="http://www.w3.org/1999/xlink">
 <defs>
  <style type="text/css">
*{stroke-linecap:butt;stroke-linejoin:round;}
  </style>
 </defs>
 <g id="figure_1">
  <g id="patch_1">
   <path d="M 0 612 
L 792 612 
L 792 0 
L 0 0 
z
" style="fill:#ffffff;"/>
  </g>
  <g id="axes_1">
   <g id="patch_2">
    <path d="M 99 489.6 
L 712.8 489.6 
L 712.8 73.44 
L 99 73.44 
z
" style="fill:#eaeaf2;"/>
   </g>
   <g id="matplotlib.axis_1">
    <g id="xtick_1">
     <g id="line2d_1">
      <path clip-path="url(#p54a57d7dc7)" d="M 145.400963 489.6 
L 145.400963 73.44 
" style="fill:none;stroke:#ffffff;stroke-linecap:round;"/>
     </g>
     <g id="text_1">
      <!-- Feb 24 -->
      <defs>
       <path d="M 9.8125 72.90625 
L 51.703125 72.90625 
L 51.703125 64.59375 
L 19.671875 64.59375 
L 19.671875 43.109375 
L 48.578125 43.109375 
L 48.578125 34.8125 
L 19.671875 34.8125 
L 19.671875 0 
L 9.8125 0 
z
" id="DejaVuSans-70"/>
       <path d="M 56.203125 29.59375 
L 56.203125 25.203125 
L 14.890625 25.203125 
Q 15.484375 15.921875 20.484375 11.0625 
Q 25.484375 6.203125 34.421875 6.203125 
Q 39.59375 6.203125 44.453125 7.46875 
Q 49.3125 8.734375 54.109375 11.28125 
L 54.109375 2.78125 
Q 49.265625 0.734375 44.1875 -0.34375 
Q 39.109375 -1.421875 33.890625 -1.421875 
Q 20.796875 -1.421875 13.15625 6.1875 
Q 5.515625 13.8125 5.515625 26.8125 
Q 5.515625 40.234375 12.765625 48.109375 
Q 20.015625 56 32.328125 56 
Q 43.359375 56 49.78125 48.890625 
Q 56.203125 41.796875 56.203125 29.59375 
z
M 47.21875 32.234375 
Q 47.125 39.59375 43.09375 43.984375 
Q 39.0625 48.390625 32.421875 48.390625 
Q 24.90625 48.390625 20.390625 44.140625 
Q 15.875 39.890625 15.1875 32.171875 
z
" id="DejaVuSans-101"/>
       <path d="M 48.6875 27.296875 
Q 48.6875 37.203125 44.609375 42.84375 
Q 40.53125 48.484375 33.40625 48.484375 
Q 26.265625 48.484375 22.1875 42.84375 
Q 18.109375 37.203125 18.109375 27.296875 
Q 18.109375 17.390625 22.1875 11.75 
Q 26.265625 6.109375 33.40625 6.109375 
Q 40.53125 6.109375 44.609375 11.75 
Q 48.6875 17.390625 48.6875 27.296875 
z
M 18.109375 46.390625 
Q 20.953125 51.265625 25.265625 53.625 
Q 29.59375 56 35.59375 56 
Q 45.5625 56 51.78125 48.09375 
Q 58.015625 40.1875 58.015625 27.296875 
Q 58.015625 14.40625 51.78125 6.484375 
Q 45.5625 -1.421875 35.59375 -1.421875 
Q 29.59375 -1.421875 25.265625 0.953125 
Q 20.953125 3.328125 18.109375 8.203125 
L 18.109375 0 
L 9.078125 0 
L 9.078125 75.984375 
L 18.109375 75.984375 
z
" id="DejaVuSans-98"/>
       <path id="DejaVuSans-32"/>
       <path d="M 19.1875 8.296875 
L 53.609375 8.296875 
L 53.609375 0 
L 7.328125 0 
L 7.328125 8.296875 
Q 12.9375 14.109375 22.625 23.890625 
Q 32.328125 33.6875 34.8125 36.53125 
Q 39.546875 41.84375 41.421875 45.53125 
Q 43.3125 49.21875 43.3125 52.78125 
Q 43.3125 58.59375 39.234375 62.25 
Q 35.15625 65.921875 28.609375 65.921875 
Q 23.96875 65.921875 18.8125 64.3125 
Q 13.671875 62.703125 7.8125 59.421875 
L 7.8125 69.390625 
Q 13.765625 71.78125 18.9375 73 
Q 24.125 74.21875 28.421875 74.21875 
Q 39.75 74.21875 46.484375 68.546875 
Q 53.21875 62.890625 53.21875 53.421875 
Q 53.21875 48.921875 51.53125 44.890625 
Q 49.859375 40.875 45.40625 35.40625 
Q 44.1875 33.984375 37.640625 27.21875 
Q 31.109375 20.453125 19.1875 8.296875 
z
" id="DejaVuSans-50"/>
       <path d="M 37.796875 64.3125 
L 12.890625 25.390625 
L 37.796875 25.390625 
z
M 35.203125 72.90625 
L 47.609375 72.90625 
L 47.609375 25.390625 
L 58.015625 25.390625 
L 58.015625 17.1875 
L 47.609375 17.1875 
L 47.609375 0 
L 37.796875 0 
L 37.796875 17.1875 
L 4.890625 17.1875 
L 4.890625 26.703125 
z
" id="DejaVuSans-52"/>
      </defs>
      <g style="fill:#262626;" transform="translate(111.726379 525.120125)rotate(-30)scale(0.11 -0.11)">
       <use xlink:href="#DejaVuSans-70"/>
       <use x="57.441406" xlink:href="#DejaVuSans-101"/>
       <use x="118.964844" xlink:href="#DejaVuSans-98"/>
       <use x="182.441406" xlink:href="#DejaVuSans-32"/>
       <use x="214.228516" xlink:href="#DejaVuSans-50"/>
       <use x="277.851562" xlink:href="#DejaVuSans-52"/>
      </g>
     </g>
    </g>
    <g id="xtick_2">
     <g id="line2d_2">
      <path clip-path="url(#p54a57d7dc7)" d="M 210.154334 489.6 
L 210.154334 73.44 
" style="fill:none;stroke:#ffffff;stroke-linecap:round;"/>
     </g>
     <g id="text_2">
      <!-- Mar 02 -->
      <defs>
       <path d="M 9.8125 72.90625 
L 24.515625 72.90625 
L 43.109375 23.296875 
L 61.8125 72.90625 
L 76.515625 72.90625 
L 76.515625 0 
L 66.890625 0 
L 66.890625 64.015625 
L 48.09375 14.015625 
L 38.1875 14.015625 
L 19.390625 64.015625 
L 19.390625 0 
L 9.8125 0 
z
" id="DejaVuSans-77"/>
       <path d="M 34.28125 27.484375 
Q 23.390625 27.484375 19.1875 25 
Q 14.984375 22.515625 14.984375 16.5 
Q 14.984375 11.71875 18.140625 8.90625 
Q 21.296875 6.109375 26.703125 6.109375 
Q 34.1875 6.109375 38.703125 11.40625 
Q 43.21875 16.703125 43.21875 25.484375 
L 43.21875 27.484375 
z
M 52.203125 31.203125 
L 52.203125 0 
L 43.21875 0 
L 43.21875 8.296875 
Q 40.140625 3.328125 35.546875 0.953125 
Q 30.953125 -1.421875 24.3125 -1.421875 
Q 15.921875 -1.421875 10.953125 3.296875 
Q 6 8.015625 6 15.921875 
Q 6 25.140625 12.171875 29.828125 
Q 18.359375 34.515625 30.609375 34.515625 
L 43.21875 34.515625 
L 43.21875 35.40625 
Q 43.21875 41.609375 39.140625 45 
Q 35.0625 48.390625 27.6875 48.390625 
Q 23 48.390625 18.546875 47.265625 
Q 14.109375 46.140625 10.015625 43.890625 
L 10.015625 52.203125 
Q 14.9375 54.109375 19.578125 55.046875 
Q 24.21875 56 28.609375 56 
Q 40.484375 56 46.34375 49.84375 
Q 52.203125 43.703125 52.203125 31.203125 
z
" id="DejaVuSans-97"/>
       <path d="M 41.109375 46.296875 
Q 39.59375 47.171875 37.8125 47.578125 
Q 36.03125 48 33.890625 48 
Q 26.265625 48 22.1875 43.046875 
Q 18.109375 38.09375 18.109375 28.8125 
L 18.109375 0 
L 9.078125 0 
L 9.078125 54.6875 
L 18.109375 54.6875 
L 18.109375 46.1875 
Q 20.953125 51.171875 25.484375 53.578125 
Q 30.03125 56 36.53125 56 
Q 37.453125 56 38.578125 55.875 
Q 39.703125 55.765625 41.0625 55.515625 
z
" id="DejaVuSans-114"/>
       <path d="M 31.78125 66.40625 
Q 24.171875 66.40625 20.328125 58.90625 
Q 16.5 51.421875 16.5 36.375 
Q 16.5 21.390625 20.328125 13.890625 
Q 24.171875 6.390625 31.78125 6.390625 
Q 39.453125 6.390625 43.28125 13.890625 
Q 47.125 21.390625 47.125 36.375 
Q 47.125 51.421875 43.28125 58.90625 
Q 39.453125 66.40625 31.78125 66.40625 
z
M 31.78125 74.21875 
Q 44.046875 74.21875 50.515625 64.515625 
Q 56.984375 54.828125 56.984375 36.375 
Q 56.984375 17.96875 50.515625 8.265625 
Q 44.046875 -1.421875 31.78125 -1.421875 
Q 19.53125 -1.421875 13.0625 8.265625 
Q 6.59375 17.96875 6.59375 36.375 
Q 6.59375 54.828125 13.0625 64.515625 
Q 19.53125 74.21875 31.78125 74.21875 
z
" id="DejaVuSans-48"/>
      </defs>
      <g style="fill:#262626;" transform="translate(175.887334 525.462156)rotate(-30)scale(0.11 -0.11)">
       <use xlink:href="#DejaVuSans-77"/>
       <use x="86.279297" xlink:href="#DejaVuSans-97"/>
       <use x="147.558594" xlink:href="#DejaVuSans-114"/>
       <use x="188.671875" xlink:href="#DejaVuSans-32"/>
       <use x="220.458984" xlink:href="#DejaVuSans-48"/>
       <use x="284.082031" xlink:href="#DejaVuSans-50"/>
      </g>
     </g>
    </g>
    <g id="xtick_3">
     <g id="line2d_3">
      <path clip-path="url(#p54a57d7dc7)" d="M 274.907704 489.6 
L 274.907704 73.44 
" style="fill:none;stroke:#ffffff;stroke-linecap:round;"/>
     </g>
     <g id="text_3">
      <!-- Mar 09 -->
      <defs>
       <path d="M 10.984375 1.515625 
L 10.984375 10.5 
Q 14.703125 8.734375 18.5 7.8125 
Q 22.3125 6.890625 25.984375 6.890625 
Q 35.75 6.890625 40.890625 13.453125 
Q 46.046875 20.015625 46.78125 33.40625 
Q 43.953125 29.203125 39.59375 26.953125 
Q 35.25 24.703125 29.984375 24.703125 
Q 19.046875 24.703125 12.671875 31.3125 
Q 6.296875 37.9375 6.296875 49.421875 
Q 6.296875 60.640625 12.9375 67.421875 
Q 19.578125 74.21875 30.609375 74.21875 
Q 43.265625 74.21875 49.921875 64.515625 
Q 56.59375 54.828125 56.59375 36.375 
Q 56.59375 19.140625 48.40625 8.859375 
Q 40.234375 -1.421875 26.421875 -1.421875 
Q 22.703125 -1.421875 18.890625 -0.6875 
Q 15.09375 0.046875 10.984375 1.515625 
z
M 30.609375 32.421875 
Q 37.25 32.421875 41.125 36.953125 
Q 45.015625 41.5 45.015625 49.421875 
Q 45.015625 57.28125 41.125 61.84375 
Q 37.25 66.40625 30.609375 66.40625 
Q 23.96875 66.40625 20.09375 61.84375 
Q 16.21875 57.28125 16.21875 49.421875 
Q 16.21875 41.5 20.09375 36.953125 
Q 23.96875 32.421875 30.609375 32.421875 
z
" id="DejaVuSans-57"/>
      </defs>
      <g style="fill:#262626;" transform="translate(240.640705 525.462156)rotate(-30)scale(0.11 -0.11)">
       <use xlink:href="#DejaVuSans-77"/>
       <use x="86.279297" xlink:href="#DejaVuSans-97"/>
       <use x="147.558594" xlink:href="#DejaVuSans-114"/>
       <use x="188.671875" xlink:href="#DejaVuSans-32"/>
       <use x="220.458984" xlink:href="#DejaVuSans-48"/>
       <use x="284.082031" xlink:href="#DejaVuSans-57"/>
      </g>
     </g>
    </g>
    <g id="xtick_4">
     <g id="line2d_4">
      <path clip-path="url(#p54a57d7dc7)" d="M 339.661075 489.6 
L 339.661075 73.44 
" style="fill:none;stroke:#ffffff;stroke-linecap:round;"/>
     </g>
     <g id="text_4">
      <!-- Mar 16 -->
      <defs>
       <path d="M 12.40625 8.296875 
L 28.515625 8.296875 
L 28.515625 63.921875 
L 10.984375 60.40625 
L 10.984375 69.390625 
L 28.421875 72.90625 
L 38.28125 72.90625 
L 38.28125 8.296875 
L 54.390625 8.296875 
L 54.390625 0 
L 12.40625 0 
z
" id="DejaVuSans-49"/>
       <path d="M 33.015625 40.375 
Q 26.375 40.375 22.484375 35.828125 
Q 18.609375 31.296875 18.609375 23.390625 
Q 18.609375 15.53125 22.484375 10.953125 
Q 26.375 6.390625 33.015625 6.390625 
Q 39.65625 6.390625 43.53125 10.953125 
Q 47.40625 15.53125 47.40625 23.390625 
Q 47.40625 31.296875 43.53125 35.828125 
Q 39.65625 40.375 33.015625 40.375 
z
M 52.59375 71.296875 
L 52.59375 62.3125 
Q 48.875 64.0625 45.09375 64.984375 
Q 41.3125 65.921875 37.59375 65.921875 
Q 27.828125 65.921875 22.671875 59.328125 
Q 17.53125 52.734375 16.796875 39.40625 
Q 19.671875 43.65625 24.015625 45.921875 
Q 28.375 48.1875 33.59375 48.1875 
Q 44.578125 48.1875 50.953125 41.515625 
Q 57.328125 34.859375 57.328125 23.390625 
Q 57.328125 12.15625 50.6875 5.359375 
Q 44.046875 -1.421875 33.015625 -1.421875 
Q 20.359375 -1.421875 13.671875 8.265625 
Q 6.984375 17.96875 6.984375 36.375 
Q 6.984375 53.65625 15.1875 63.9375 
Q 23.390625 74.21875 37.203125 74.21875 
Q 40.921875 74.21875 44.703125 73.484375 
Q 48.484375 72.75 52.59375 71.296875 
z
" id="DejaVuSans-54"/>
      </defs>
      <g style="fill:#262626;" transform="translate(305.394076 525.462156)rotate(-30)scale(0.11 -0.11)">
       <use xlink:href="#DejaVuSans-77"/>
       <use x="86.279297" xlink:href="#DejaVuSans-97"/>
       <use x="147.558594" xlink:href="#DejaVuSans-114"/>
       <use x="188.671875" xlink:href="#DejaVuSans-32"/>
       <use x="220.458984" xlink:href="#DejaVuSans-49"/>
       <use x="284.082031" xlink:href="#DejaVuSans-54"/>
      </g>
     </g>
    </g>
    <g id="xtick_5">
     <g id="line2d_5">
      <path clip-path="url(#p54a57d7dc7)" d="M 404.414446 489.6 
L 404.414446 73.44 
" style="fill:none;stroke:#ffffff;stroke-linecap:round;"/>
     </g>
     <g id="text_5">
      <!-- Mar 23 -->
      <defs>
       <path d="M 40.578125 39.3125 
Q 47.65625 37.796875 51.625 33 
Q 55.609375 28.21875 55.609375 21.1875 
Q 55.609375 10.40625 48.1875 4.484375 
Q 40.765625 -1.421875 27.09375 -1.421875 
Q 22.515625 -1.421875 17.65625 -0.515625 
Q 12.796875 0.390625 7.625 2.203125 
L 7.625 11.71875 
Q 11.71875 9.328125 16.59375 8.109375 
Q 21.484375 6.890625 26.8125 6.890625 
Q 36.078125 6.890625 40.9375 10.546875 
Q 45.796875 14.203125 45.796875 21.1875 
Q 45.796875 27.640625 41.28125 31.265625 
Q 36.765625 34.90625 28.71875 34.90625 
L 20.21875 34.90625 
L 20.21875 43.015625 
L 29.109375 43.015625 
Q 36.375 43.015625 40.234375 45.921875 
Q 44.09375 48.828125 44.09375 54.296875 
Q 44.09375 59.90625 40.109375 62.90625 
Q 36.140625 65.921875 28.71875 65.921875 
Q 24.65625 65.921875 20.015625 65.03125 
Q 15.375 64.15625 9.8125 62.3125 
L 9.8125 71.09375 
Q 15.4375 72.65625 20.34375 73.4375 
Q 25.25 74.21875 29.59375 74.21875 
Q 40.828125 74.21875 47.359375 69.109375 
Q 53.90625 64.015625 53.90625 55.328125 
Q 53.90625 49.265625 50.4375 45.09375 
Q 46.96875 40.921875 40.578125 39.3125 
z
" id="DejaVuSans-51"/>
      </defs>
      <g style="fill:#262626;" transform="translate(370.147446 525.462156)rotate(-30)scale(0.11 -0.11)">
       <use xlink:href="#DejaVuSans-77"/>
       <use x="86.279297" xlink:href="#DejaVuSans-97"/>
       <use x="147.558594" xlink:href="#DejaVuSans-114"/>
       <use x="188.671875" xlink:href="#DejaVuSans-32"/>
       <use x="220.458984" xlink:href="#DejaVuSans-50"/>
       <use x="284.082031" xlink:href="#DejaVuSans-51"/>
      </g>
     </g>
    </g>
    <g id="xtick_6">
     <g id="line2d_6">
      <path clip-path="url(#p54a57d7dc7)" d="M 469.167817 489.6 
L 469.167817 73.44 
" style="fill:none;stroke:#ffffff;stroke-linecap:round;"/>
     </g>
     <g id="text_6">
      <!-- Mar 30 -->
      <g style="fill:#262626;" transform="translate(434.900817 525.462156)rotate(-30)scale(0.11 -0.11)">
       <use xlink:href="#DejaVuSans-77"/>
       <use x="86.279297" xlink:href="#DejaVuSans-97"/>
       <use x="147.558594" xlink:href="#DejaVuSans-114"/>
       <use x="188.671875" xlink:href="#DejaVuSans-32"/>
       <use x="220.458984" xlink:href="#DejaVuSans-51"/>
       <use x="284.082031" xlink:href="#DejaVuSans-48"/>
      </g>
     </g>
    </g>
    <g id="xtick_7">
     <g id="line2d_7">
      <path clip-path="url(#p54a57d7dc7)" d="M 533.921187 489.6 
L 533.921187 73.44 
" style="fill:none;stroke:#ffffff;stroke-linecap:round;"/>
     </g>
     <g id="text_7">
      <!-- Apr 06 -->
      <defs>
       <path d="M 34.1875 63.1875 
L 20.796875 26.90625 
L 47.609375 26.90625 
z
M 28.609375 72.90625 
L 39.796875 72.90625 
L 67.578125 0 
L 57.328125 0 
L 50.6875 18.703125 
L 17.828125 18.703125 
L 11.1875 0 
L 0.78125 0 
z
" id="DejaVuSans-65"/>
       <path d="M 18.109375 8.203125 
L 18.109375 -20.796875 
L 9.078125 -20.796875 
L 9.078125 54.6875 
L 18.109375 54.6875 
L 18.109375 46.390625 
Q 20.953125 51.265625 25.265625 53.625 
Q 29.59375 56 35.59375 56 
Q 45.5625 56 51.78125 48.09375 
Q 58.015625 40.1875 58.015625 27.296875 
Q 58.015625 14.40625 51.78125 6.484375 
Q 45.5625 -1.421875 35.59375 -1.421875 
Q 29.59375 -1.421875 25.265625 0.953125 
Q 20.953125 3.328125 18.109375 8.203125 
z
M 48.6875 27.296875 
Q 48.6875 37.203125 44.609375 42.84375 
Q 40.53125 48.484375 33.40625 48.484375 
Q 26.265625 48.484375 22.1875 42.84375 
Q 18.109375 37.203125 18.109375 27.296875 
Q 18.109375 17.390625 22.1875 11.75 
Q 26.265625 6.109375 33.40625 6.109375 
Q 40.53125 6.109375 44.609375 11.75 
Q 48.6875 17.390625 48.6875 27.296875 
z
" id="DejaVuSans-112"/>
      </defs>
      <g style="fill:#262626;" transform="translate(501.147134 524.600203)rotate(-30)scale(0.11 -0.11)">
       <use xlink:href="#DejaVuSans-65"/>
       <use x="68.408203" xlink:href="#DejaVuSans-112"/>
       <use x="131.884766" xlink:href="#DejaVuSans-114"/>
       <use x="172.998047" xlink:href="#DejaVuSans-32"/>
       <use x="204.785156" xlink:href="#DejaVuSans-48"/>
       <use x="268.408203" xlink:href="#DejaVuSans-54"/>
      </g>
     </g>
    </g>
    <g id="xtick_8">
     <g id="line2d_8">
      <path clip-path="url(#p54a57d7dc7)" d="M 598.674558 489.6 
L 598.674558 73.44 
" style="fill:none;stroke:#ffffff;stroke-linecap:round;"/>
     </g>
     <g id="text_8">
      <!-- Apr 13 -->
      <g style="fill:#262626;" transform="translate(565.900505 524.600203)rotate(-30)scale(0.11 -0.11)">
       <use xlink:href="#DejaVuSans-65"/>
       <use x="68.408203" xlink:href="#DejaVuSans-112"/>
       <use x="131.884766" xlink:href="#DejaVuSans-114"/>
       <use x="172.998047" xlink:href="#DejaVuSans-32"/>
       <use x="204.785156" xlink:href="#DejaVuSans-49"/>
       <use x="268.408203" xlink:href="#DejaVuSans-51"/>
      </g>
     </g>
    </g>
    <g id="xtick_9">
     <g id="line2d_9">
      <path clip-path="url(#p54a57d7dc7)" d="M 663.427929 489.6 
L 663.427929 73.44 
" style="fill:none;stroke:#ffffff;stroke-linecap:round;"/>
     </g>
     <g id="text_9">
      <!-- Apr 20 -->
      <g style="fill:#262626;" transform="translate(630.653876 524.600203)rotate(-30)scale(0.11 -0.11)">
       <use xlink:href="#DejaVuSans-65"/>
       <use x="68.408203" xlink:href="#DejaVuSans-112"/>
       <use x="131.884766" xlink:href="#DejaVuSans-114"/>
       <use x="172.998047" xlink:href="#DejaVuSans-32"/>
       <use x="204.785156" xlink:href="#DejaVuSans-50"/>
       <use x="268.408203" xlink:href="#DejaVuSans-48"/>
      </g>
     </g>
    </g>
    <g id="text_10">
     <!-- Date -->
     <defs>
      <path d="M 19.671875 64.796875 
L 19.671875 8.109375 
L 31.59375 8.109375 
Q 46.6875 8.109375 53.6875 14.9375 
Q 60.6875 21.78125 60.6875 36.53125 
Q 60.6875 51.171875 53.6875 57.984375 
Q 46.6875 64.796875 31.59375 64.796875 
z
M 9.8125 72.90625 
L 30.078125 72.90625 
Q 51.265625 72.90625 61.171875 64.09375 
Q 71.09375 55.28125 71.09375 36.53125 
Q 71.09375 17.671875 61.125 8.828125 
Q 51.171875 0 30.078125 0 
L 9.8125 0 
z
" id="DejaVuSans-68"/>
      <path d="M 18.3125 70.21875 
L 18.3125 54.6875 
L 36.8125 54.6875 
L 36.8125 47.703125 
L 18.3125 47.703125 
L 18.3125 18.015625 
Q 18.3125 11.328125 20.140625 9.421875 
Q 21.96875 7.515625 27.59375 7.515625 
L 36.8125 7.515625 
L 36.8125 0 
L 27.59375 0 
Q 17.1875 0 13.234375 3.875 
Q 9.28125 7.765625 9.28125 18.015625 
L 9.28125 47.703125 
L 2.6875 47.703125 
L 2.6875 54.6875 
L 9.28125 54.6875 
L 9.28125 70.21875 
z
" id="DejaVuSans-116"/>
     </defs>
     <g style="fill:#262626;" transform="translate(391.559063 548.561449)scale(0.12 -0.12)">
      <use xlink:href="#DejaVuSans-68"/>
      <use x="77.001953" xlink:href="#DejaVuSans-97"/>
      <use x="138.28125" xlink:href="#DejaVuSans-116"/>
      <use x="177.490234" xlink:href="#DejaVuSans-101"/>
     </g>
    </g>
   </g>
   <g id="matplotlib.axis_2">
    <g id="ytick_1">
     <g id="line2d_10">
      <path clip-path="url(#p54a57d7dc7)" d="M 99 489.6 
L 712.8 489.6 
" style="fill:none;stroke:#ffffff;stroke-linecap:round;"/>
     </g>
     <g id="text_11">
      <!-- $\mathdefault{10^{0}}$ -->
      <g style="fill:#262626;" transform="translate(70.14 493.779141)scale(0.11 -0.11)">
       <use transform="translate(0 0.765625)" xlink:href="#DejaVuSans-49"/>
       <use transform="translate(63.623047 0.765625)" xlink:href="#DejaVuSans-48"/>
       <use transform="translate(128.203125 39.046875)scale(0.7)" xlink:href="#DejaVuSans-48"/>
      </g>
     </g>
    </g>
    <g id="ytick_2">
     <g id="line2d_11">
      <path clip-path="url(#p54a57d7dc7)" d="M 99 391.732814 
L 712.8 391.732814 
" style="fill:none;stroke:#ffffff;stroke-linecap:round;"/>
     </g>
     <g id="text_12">
      <!-- $\mathdefault{10^{1}}$ -->
      <g style="fill:#262626;" transform="translate(70.14 395.911955)scale(0.11 -0.11)">
       <use transform="translate(0 0.684375)" xlink:href="#DejaVuSans-49"/>
       <use transform="translate(63.623047 0.684375)" xlink:href="#DejaVuSans-48"/>
       <use transform="translate(128.203125 38.965625)scale(0.7)" xlink:href="#DejaVuSans-49"/>
      </g>
     </g>
    </g>
    <g id="ytick_3">
     <g id="line2d_12">
      <path clip-path="url(#p54a57d7dc7)" d="M 99 293.865629 
L 712.8 293.865629 
" style="fill:none;stroke:#ffffff;stroke-linecap:round;"/>
     </g>
     <g id="text_13">
      <!-- $\mathdefault{10^{2}}$ -->
      <g style="fill:#262626;" transform="translate(70.14 298.044769)scale(0.11 -0.11)">
       <use transform="translate(0 0.765625)" xlink:href="#DejaVuSans-49"/>
       <use transform="translate(63.623047 0.765625)" xlink:href="#DejaVuSans-48"/>
       <use transform="translate(128.203125 39.046875)scale(0.7)" xlink:href="#DejaVuSans-50"/>
      </g>
     </g>
    </g>
    <g id="ytick_4">
     <g id="line2d_13">
      <path clip-path="url(#p54a57d7dc7)" d="M 99 195.998443 
L 712.8 195.998443 
" style="fill:none;stroke:#ffffff;stroke-linecap:round;"/>
     </g>
     <g id="text_14">
      <!-- $\mathdefault{10^{3}}$ -->
      <g style="fill:#262626;" transform="translate(70.14 200.177584)scale(0.11 -0.11)">
       <use transform="translate(0 0.765625)" xlink:href="#DejaVuSans-49"/>
       <use transform="translate(63.623047 0.765625)" xlink:href="#DejaVuSans-48"/>
       <use transform="translate(128.203125 39.046875)scale(0.7)" xlink:href="#DejaVuSans-51"/>
      </g>
     </g>
    </g>
    <g id="ytick_5">
     <g id="line2d_14">
      <path clip-path="url(#p54a57d7dc7)" d="M 99 98.131258 
L 712.8 98.131258 
" style="fill:none;stroke:#ffffff;stroke-linecap:round;"/>
     </g>
     <g id="text_15">
      <!-- $\mathdefault{10^{4}}$ -->
      <g style="fill:#262626;" transform="translate(70.14 102.310398)scale(0.11 -0.11)">
       <use transform="translate(0 0.684375)" xlink:href="#DejaVuSans-49"/>
       <use transform="translate(63.623047 0.684375)" xlink:href="#DejaVuSans-48"/>
       <use transform="translate(128.203125 38.965625)scale(0.7)" xlink:href="#DejaVuSans-52"/>
      </g>
     </g>
    </g>
    <g id="ytick_6">
     <g id="line2d_15">
      <path clip-path="url(#p54a57d7dc7)" d="M 99 460.139042 
L 712.8 460.139042 
" style="fill:none;stroke:#ffffff;stroke-linecap:round;stroke-width:0.5;"/>
     </g>
    </g>
    <g id="ytick_7">
     <g id="line2d_16">
      <path clip-path="url(#p54a57d7dc7)" d="M 99 442.905486 
L 712.8 442.905486 
" style="fill:none;stroke:#ffffff;stroke-linecap:round;stroke-width:0.5;"/>
     </g>
    </g>
    <g id="ytick_8">
     <g id="line2d_17">
      <path clip-path="url(#p54a57d7dc7)" d="M 99 430.678083 
L 712.8 430.678083 
" style="fill:none;stroke:#ffffff;stroke-linecap:round;stroke-width:0.5;"/>
     </g>
    </g>
    <g id="ytick_9">
     <g id="line2d_18">
      <path clip-path="url(#p54a57d7dc7)" d="M 99 421.193773 
L 712.8 421.193773 
" style="fill:none;stroke:#ffffff;stroke-linecap:round;stroke-width:0.5;"/>
     </g>
    </g>
    <g id="ytick_10">
     <g id="line2d_19">
      <path clip-path="url(#p54a57d7dc7)" d="M 99 413.444527 
L 712.8 413.444527 
" style="fill:none;stroke:#ffffff;stroke-linecap:round;stroke-width:0.5;"/>
     </g>
    </g>
    <g id="ytick_11">
     <g id="line2d_20">
      <path clip-path="url(#p54a57d7dc7)" d="M 99 406.892633 
L 712.8 406.892633 
" style="fill:none;stroke:#ffffff;stroke-linecap:round;stroke-width:0.5;"/>
     </g>
    </g>
    <g id="ytick_12">
     <g id="line2d_21">
      <path clip-path="url(#p54a57d7dc7)" d="M 99 401.217125 
L 712.8 401.217125 
" style="fill:none;stroke:#ffffff;stroke-linecap:round;stroke-width:0.5;"/>
     </g>
    </g>
    <g id="ytick_13">
     <g id="line2d_22">
      <path clip-path="url(#p54a57d7dc7)" d="M 99 396.210971 
L 712.8 396.210971 
" style="fill:none;stroke:#ffffff;stroke-linecap:round;stroke-width:0.5;"/>
     </g>
    </g>
    <g id="ytick_14">
     <g id="line2d_23">
      <path clip-path="url(#p54a57d7dc7)" d="M 99 362.271856 
L 712.8 362.271856 
" style="fill:none;stroke:#ffffff;stroke-linecap:round;stroke-width:0.5;"/>
     </g>
    </g>
    <g id="ytick_15">
     <g id="line2d_24">
      <path clip-path="url(#p54a57d7dc7)" d="M 99 345.0383 
L 712.8 345.0383 
" style="fill:none;stroke:#ffffff;stroke-linecap:round;stroke-width:0.5;"/>
     </g>
    </g>
    <g id="ytick_16">
     <g id="line2d_25">
      <path clip-path="url(#p54a57d7dc7)" d="M 99 332.810898 
L 712.8 332.810898 
" style="fill:none;stroke:#ffffff;stroke-linecap:round;stroke-width:0.5;"/>
     </g>
    </g>
    <g id="ytick_17">
     <g id="line2d_26">
      <path clip-path="url(#p54a57d7dc7)" d="M 99 323.326587 
L 712.8 323.326587 
" style="fill:none;stroke:#ffffff;stroke-linecap:round;stroke-width:0.5;"/>
     </g>
    </g>
    <g id="ytick_18">
     <g id="line2d_27">
      <path clip-path="url(#p54a57d7dc7)" d="M 99 315.577342 
L 712.8 315.577342 
" style="fill:none;stroke:#ffffff;stroke-linecap:round;stroke-width:0.5;"/>
     </g>
    </g>
    <g id="ytick_19">
     <g id="line2d_28">
      <path clip-path="url(#p54a57d7dc7)" d="M 99 309.025448 
L 712.8 309.025448 
" style="fill:none;stroke:#ffffff;stroke-linecap:round;stroke-width:0.5;"/>
     </g>
    </g>
    <g id="ytick_20">
     <g id="line2d_29">
      <path clip-path="url(#p54a57d7dc7)" d="M 99 303.349939 
L 712.8 303.349939 
" style="fill:none;stroke:#ffffff;stroke-linecap:round;stroke-width:0.5;"/>
     </g>
    </g>
    <g id="ytick_21">
     <g id="line2d_30">
      <path clip-path="url(#p54a57d7dc7)" d="M 99 298.343786 
L 712.8 298.343786 
" style="fill:none;stroke:#ffffff;stroke-linecap:round;stroke-width:0.5;"/>
     </g>
    </g>
    <g id="ytick_22">
     <g id="line2d_31">
      <path clip-path="url(#p54a57d7dc7)" d="M 99 264.40467 
L 712.8 264.40467 
" style="fill:none;stroke:#ffffff;stroke-linecap:round;stroke-width:0.5;"/>
     </g>
    </g>
    <g id="ytick_23">
     <g id="line2d_32">
      <path clip-path="url(#p54a57d7dc7)" d="M 99 247.171114 
L 712.8 247.171114 
" style="fill:none;stroke:#ffffff;stroke-linecap:round;stroke-width:0.5;"/>
     </g>
    </g>
    <g id="ytick_24">
     <g id="line2d_33">
      <path clip-path="url(#p54a57d7dc7)" d="M 99 234.943712 
L 712.8 234.943712 
" style="fill:none;stroke:#ffffff;stroke-linecap:round;stroke-width:0.5;"/>
     </g>
    </g>
    <g id="ytick_25">
     <g id="line2d_34">
      <path clip-path="url(#p54a57d7dc7)" d="M 99 225.459402 
L 712.8 225.459402 
" style="fill:none;stroke:#ffffff;stroke-linecap:round;stroke-width:0.5;"/>
     </g>
    </g>
    <g id="ytick_26">
     <g id="line2d_35">
      <path clip-path="url(#p54a57d7dc7)" d="M 99 217.710156 
L 712.8 217.710156 
" style="fill:none;stroke:#ffffff;stroke-linecap:round;stroke-width:0.5;"/>
     </g>
    </g>
    <g id="ytick_27">
     <g id="line2d_36">
      <path clip-path="url(#p54a57d7dc7)" d="M 99 211.158262 
L 712.8 211.158262 
" style="fill:none;stroke:#ffffff;stroke-linecap:round;stroke-width:0.5;"/>
     </g>
    </g>
    <g id="ytick_28">
     <g id="line2d_37">
      <path clip-path="url(#p54a57d7dc7)" d="M 99 205.482754 
L 712.8 205.482754 
" style="fill:none;stroke:#ffffff;stroke-linecap:round;stroke-width:0.5;"/>
     </g>
    </g>
    <g id="ytick_29">
     <g id="line2d_38">
      <path clip-path="url(#p54a57d7dc7)" d="M 99 200.4766 
L 712.8 200.4766 
" style="fill:none;stroke:#ffffff;stroke-linecap:round;stroke-width:0.5;"/>
     </g>
    </g>
    <g id="ytick_30">
     <g id="line2d_39">
      <path clip-path="url(#p54a57d7dc7)" d="M 99 166.537485 
L 712.8 166.537485 
" style="fill:none;stroke:#ffffff;stroke-linecap:round;stroke-width:0.5;"/>
     </g>
    </g>
    <g id="ytick_31">
     <g id="line2d_40">
      <path clip-path="url(#p54a57d7dc7)" d="M 99 149.303929 
L 712.8 149.303929 
" style="fill:none;stroke:#ffffff;stroke-linecap:round;stroke-width:0.5;"/>
     </g>
    </g>
    <g id="ytick_32">
     <g id="line2d_41">
      <path clip-path="url(#p54a57d7dc7)" d="M 99 137.076526 
L 712.8 137.076526 
" style="fill:none;stroke:#ffffff;stroke-linecap:round;stroke-width:0.5;"/>
     </g>
    </g>
    <g id="ytick_33">
     <g id="line2d_42">
      <path clip-path="url(#p54a57d7dc7)" d="M 99 127.592216 
L 712.8 127.592216 
" style="fill:none;stroke:#ffffff;stroke-linecap:round;stroke-width:0.5;"/>
     </g>
    </g>
    <g id="ytick_34">
     <g id="line2d_43">
      <path clip-path="url(#p54a57d7dc7)" d="M 99 119.84297 
L 712.8 119.84297 
" style="fill:none;stroke:#ffffff;stroke-linecap:round;stroke-width:0.5;"/>
     </g>
    </g>
    <g id="ytick_35">
     <g id="line2d_44">
      <path clip-path="url(#p54a57d7dc7)" d="M 99 113.291077 
L 712.8 113.291077 
" style="fill:none;stroke:#ffffff;stroke-linecap:round;stroke-width:0.5;"/>
     </g>
    </g>
    <g id="ytick_36">
     <g id="line2d_45">
      <path clip-path="url(#p54a57d7dc7)" d="M 99 107.615568 
L 712.8 107.615568 
" style="fill:none;stroke:#ffffff;stroke-linecap:round;stroke-width:0.5;"/>
     </g>
    </g>
    <g id="ytick_37">
     <g id="line2d_46">
      <path clip-path="url(#p54a57d7dc7)" d="M 99 102.609415 
L 712.8 102.609415 
" style="fill:none;stroke:#ffffff;stroke-linecap:round;stroke-width:0.5;"/>
     </g>
    </g>
    <g id="text_16">
     <!-- People -->
     <defs>
      <path d="M 19.671875 64.796875 
L 19.671875 37.40625 
L 32.078125 37.40625 
Q 38.96875 37.40625 42.71875 40.96875 
Q 46.484375 44.53125 46.484375 51.125 
Q 46.484375 57.671875 42.71875 61.234375 
Q 38.96875 64.796875 32.078125 64.796875 
z
M 9.8125 72.90625 
L 32.078125 72.90625 
Q 44.34375 72.90625 50.609375 67.359375 
Q 56.890625 61.8125 56.890625 51.125 
Q 56.890625 40.328125 50.609375 34.8125 
Q 44.34375 29.296875 32.078125 29.296875 
L 19.671875 29.296875 
L 19.671875 0 
L 9.8125 0 
z
" id="DejaVuSans-80"/>
      <path d="M 30.609375 48.390625 
Q 23.390625 48.390625 19.1875 42.75 
Q 14.984375 37.109375 14.984375 27.296875 
Q 14.984375 17.484375 19.15625 11.84375 
Q 23.34375 6.203125 30.609375 6.203125 
Q 37.796875 6.203125 41.984375 11.859375 
Q 46.1875 17.53125 46.1875 27.296875 
Q 46.1875 37.015625 41.984375 42.703125 
Q 37.796875 48.390625 30.609375 48.390625 
z
M 30.609375 56 
Q 42.328125 56 49.015625 48.375 
Q 55.71875 40.765625 55.71875 27.296875 
Q 55.71875 13.875 49.015625 6.21875 
Q 42.328125 -1.421875 30.609375 -1.421875 
Q 18.84375 -1.421875 12.171875 6.21875 
Q 5.515625 13.875 5.515625 27.296875 
Q 5.515625 40.765625 12.171875 48.375 
Q 18.84375 56 30.609375 56 
z
" id="DejaVuSans-111"/>
      <path d="M 9.421875 75.984375 
L 18.40625 75.984375 
L 18.40625 0 
L 9.421875 0 
z
" id="DejaVuSans-108"/>
     </defs>
     <g style="fill:#262626;" transform="translate(63.644375 301.665937)rotate(-90)scale(0.12 -0.12)">
      <use xlink:href="#DejaVuSans-80"/>
      <use x="60.255859" xlink:href="#DejaVuSans-101"/>
      <use x="121.779297" xlink:href="#DejaVuSans-111"/>
      <use x="182.960938" xlink:href="#DejaVuSans-112"/>
      <use x="246.4375" xlink:href="#DejaVuSans-108"/>
      <use x="274.220703" xlink:href="#DejaVuSans-101"/>
     </g>
    </g>
   </g>
   <g id="line2d_47">
    <defs>
     <path d="M 0 4 
C 1.060812 4 2.078319 3.578535 2.828427 2.828427 
C 3.578535 2.078319 4 1.060812 4 0 
C 4 -1.060812 3.578535 -2.078319 2.828427 -2.828427 
C 2.078319 -3.578535 1.060812 -4 0 -4 
C -1.060812 -4 -2.078319 -3.578535 -2.828427 -2.828427 
C -3.578535 -2.078319 -4 -1.060812 -4 0 
C -4 1.060812 -3.578535 2.078319 -2.828427 2.828427 
C -2.078319 3.578535 -1.060812 4 0 4 
z
" id="mac92ca00b2" style="stroke:#0173b2;"/>
    </defs>
    <g clip-path="url(#p54a57d7dc7)">
     <use style="fill:#0173b2;stroke:#0173b2;" x="159.783146" xlink:href="#mac92ca00b2" y="44065"/>
     <use style="fill:#0173b2;stroke:#0173b2;" x="163.901926" xlink:href="#mac92ca00b2" y="489.6"/>
     <use style="fill:#0173b2;stroke:#0173b2;" x="173.152408" xlink:href="#mac92ca00b2" y="489.6"/>
     <use style="fill:#0173b2;stroke:#0173b2;" x="182.402889" xlink:href="#mac92ca00b2" y="413.444527"/>
     <use style="fill:#0173b2;stroke:#0173b2;" x="191.653371" xlink:href="#mac92ca00b2" y="374.499258"/>
     <use style="fill:#0173b2;stroke:#0173b2;" x="200.903852" xlink:href="#mac92ca00b2" y="364.451984"/>
     <use style="fill:#0173b2;stroke:#0173b2;" x="210.154334" xlink:href="#mac92ca00b2" y="352.787546"/>
     <use style="fill:#0173b2;stroke:#0173b2;" x="219.404815" xlink:href="#mac92ca00b2" y="342.295208"/>
     <use style="fill:#0173b2;stroke:#0173b2;" x="228.655297" xlink:href="#mac92ca00b2" y="318.509758"/>
     <use style="fill:#0173b2;stroke:#0173b2;" x="237.905778" xlink:href="#mac92ca00b2" y="299.784709"/>
     <use style="fill:#0173b2;stroke:#0173b2;" x="247.15626" xlink:href="#mac92ca00b2" y="290.59454"/>
     <use style="fill:#0173b2;stroke:#0173b2;" x="256.406741" xlink:href="#mac92ca00b2" y="277.490752"/>
     <use style="fill:#0173b2;stroke:#0173b2;" x="265.657223" xlink:href="#mac92ca00b2" y="269.837995"/>
     <use style="fill:#0173b2;stroke:#0173b2;" x="274.907704" xlink:href="#mac92ca00b2" y="263.355156"/>
     <use style="fill:#0173b2;stroke:#0173b2;" x="284.158186" xlink:href="#mac92ca00b2" y="234.943712"/>
     <use style="fill:#0173b2;stroke:#0173b2;" x="293.408667" xlink:href="#mac92ca00b2" y="217.85207"/>
     <use style="fill:#0173b2;stroke:#0173b2;" x="302.659149" xlink:href="#mac92ca00b2" y="211.036998"/>
     <use style="fill:#0173b2;stroke:#0173b2;" x="311.909631" xlink:href="#mac92ca00b2" y="196.168797"/>
     <use style="fill:#0173b2;stroke:#0173b2;" x="321.160112" xlink:href="#mac92ca00b2" y="192.335617"/>
     <use style="fill:#0173b2;stroke:#0173b2;" x="330.410594" xlink:href="#mac92ca00b2" y="187.511825"/>
     <use style="fill:#0173b2;stroke:#0173b2;" x="339.661075" xlink:href="#mac92ca00b2" y="183.781668"/>
     <use style="fill:#0173b2;stroke:#0173b2;" x="348.911557" xlink:href="#mac92ca00b2" y="179.826446"/>
     <use style="fill:#0173b2;stroke:#0173b2;" x="358.162038" xlink:href="#mac92ca00b2" y="177.371216"/>
     <use style="fill:#0173b2;stroke:#0173b2;" x="367.41252" xlink:href="#mac92ca00b2" y="172.310255"/>
     <use style="fill:#0173b2;stroke:#0173b2;" x="376.663001" xlink:href="#mac92ca00b2" y="168.40558"/>
     <use style="fill:#0173b2;stroke:#0173b2;" x="385.913483" xlink:href="#mac92ca00b2" y="164.100987"/>
     <use style="fill:#0173b2;stroke:#0173b2;" x="395.163964" xlink:href="#mac92ca00b2" y="159.054718"/>
     <use style="fill:#0173b2;stroke:#0173b2;" x="404.414446" xlink:href="#mac92ca00b2" y="155.044254"/>
     <use style="fill:#0173b2;stroke:#0173b2;" x="413.664927" xlink:href="#mac92ca00b2" y="151.290624"/>
     <use style="fill:#0173b2;stroke:#0173b2;" x="422.915409" xlink:href="#mac92ca00b2" y="148.130197"/>
     <use style="fill:#0173b2;stroke:#0173b2;" x="432.16589" xlink:href="#mac92ca00b2" y="144.373404"/>
     <use style="fill:#0173b2;stroke:#0173b2;" x="441.416372" xlink:href="#mac92ca00b2" y="139.762986"/>
     <use style="fill:#0173b2;stroke:#0173b2;" x="450.666853" xlink:href="#mac92ca00b2" y="136.917438"/>
     <use style="fill:#0173b2;stroke:#0173b2;" x="459.917335" xlink:href="#mac92ca00b2" y="134.161115"/>
     <use style="fill:#0173b2;stroke:#0173b2;" x="469.167817" xlink:href="#mac92ca00b2" y="132.593057"/>
     <use style="fill:#0173b2;stroke:#0173b2;" x="478.418298" xlink:href="#mac92ca00b2" y="130.759045"/>
     <use style="fill:#0173b2;stroke:#0173b2;" x="487.66878" xlink:href="#mac92ca00b2" y="128.773056"/>
     <use style="fill:#0173b2;stroke:#0173b2;" x="496.919261" xlink:href="#mac92ca00b2" y="126.360639"/>
     <use style="fill:#0173b2;stroke:#0173b2;" x="506.169743" xlink:href="#mac92ca00b2" y="124.557914"/>
    </g>
   </g>
   <g id="line2d_48">
    <defs>
     <path d="M 0 4 
C 1.060812 4 2.078319 3.578535 2.828427 2.828427 
C 3.578535 2.078319 4 1.060812 4 0 
C 4 -1.060812 3.578535 -2.078319 2.828427 -2.828427 
C 2.078319 -3.578535 1.060812 -4 0 -4 
C -1.060812 -4 -2.078319 -3.578535 -2.828427 -2.828427 
C -3.578535 -2.078319 -4 -1.060812 -4 0 
C -4 1.060812 -3.578535 2.078319 -2.828427 2.828427 
C -2.078319 3.578535 -1.060812 4 0 4 
z
" id="m538666b175" style="stroke:#d55e00;"/>
    </defs>
    <g clip-path="url(#p54a57d7dc7)">
     <use style="fill:#d55e00;stroke:#d55e00;" x="317.038885" xlink:href="#m538666b175" y="44065"/>
     <use style="fill:#d55e00;stroke:#d55e00;" x="321.160112" xlink:href="#m538666b175" y="442.905486"/>
     <use style="fill:#d55e00;stroke:#d55e00;" x="330.410594" xlink:href="#m538666b175" y="442.905486"/>
     <use style="fill:#d55e00;stroke:#d55e00;" x="339.661075" xlink:href="#m538666b175" y="442.905486"/>
     <use style="fill:#d55e00;stroke:#d55e00;" x="348.911557" xlink:href="#m538666b175" y="442.905486"/>
     <use style="fill:#d55e00;stroke:#d55e00;" x="358.162038" xlink:href="#m538666b175" y="413.444527"/>
     <use style="fill:#d55e00;stroke:#d55e00;" x="367.41252" xlink:href="#m538666b175" y="406.892633"/>
     <use style="fill:#d55e00;stroke:#d55e00;" x="376.663001" xlink:href="#m538666b175" y="406.892633"/>
     <use style="fill:#d55e00;stroke:#d55e00;" x="385.913483" xlink:href="#m538666b175" y="406.892633"/>
     <use style="fill:#d55e00;stroke:#d55e00;" x="395.163964" xlink:href="#m538666b175" y="406.892633"/>
     <use style="fill:#d55e00;stroke:#d55e00;" x="404.414446" xlink:href="#m538666b175" y="391.732814"/>
     <use style="fill:#d55e00;stroke:#d55e00;" x="413.664927" xlink:href="#m538666b175" y="383.983569"/>
     <use style="fill:#d55e00;stroke:#d55e00;" x="422.915409" xlink:href="#m538666b175" y="377.431675"/>
     <use style="fill:#d55e00;stroke:#d55e00;" x="432.16589" xlink:href="#m538666b175" y="377.431675"/>
     <use style="fill:#d55e00;stroke:#d55e00;" x="441.416372" xlink:href="#m538666b175" y="364.451984"/>
     <use style="fill:#d55e00;stroke:#d55e00;" x="450.666853" xlink:href="#m538666b175" y="356.331529"/>
     <use style="fill:#d55e00;stroke:#d55e00;" x="459.917335" xlink:href="#m538666b175" y="352.787546"/>
     <use style="fill:#d55e00;stroke:#d55e00;" x="469.167817" xlink:href="#m538666b175" y="342.295208"/>
     <use style="fill:#d55e00;stroke:#d55e00;" x="478.418298" xlink:href="#m538666b175" y="333.886985"/>
     <use style="fill:#d55e00;stroke:#d55e00;" x="487.66878" xlink:href="#m538666b175" y="328.759912"/>
     <use style="fill:#d55e00;stroke:#d55e00;" x="496.919261" xlink:href="#m538666b175" y="323.326587"/>
     <use style="fill:#d55e00;stroke:#d55e00;" x="506.169743" xlink:href="#m538666b175" y="316.291698"/>
    </g>
   </g>
   <g id="line2d_49">
    <path clip-path="url(#p54a57d7dc7)" d="M 432.16589 141.868572 
L 441.416372 139.658962 
L 450.666853 137.449351 
L 459.917335 135.239741 
L 469.167817 133.03013 
L 478.418298 130.82052 
L 487.66878 128.610909 
L 496.919261 126.401299 
L 506.169743 124.191689 
" style="fill:none;stroke:#56b4e9;stroke-linecap:round;stroke-width:4;"/>
   </g>
   <g id="line2d_50">
    <path clip-path="url(#p54a57d7dc7)" d="M 432.16589 372.247168 
L 441.416372 365.11476 
L 450.666853 357.982352 
L 459.917335 350.849943 
L 469.167817 343.717535 
L 478.418298 336.585127 
L 487.66878 329.452718 
L 496.919261 322.32031 
L 506.169743 315.187902 
" style="fill:none;stroke:#de8f05;stroke-linecap:round;stroke-width:4;"/>
   </g>
   <g id="line2d_51">
    <path clip-path="url(#p54a57d7dc7)" d="M 506.169743 124.191689 
L 515.420224 121.982078 
L 524.670706 119.772468 
L 533.921187 117.562857 
L 543.171669 115.353247 
L 552.42215 113.143637 
L 561.672632 110.934026 
L 570.923113 108.724416 
L 580.173595 106.514805 
L 589.424076 104.305195 
L 598.674558 102.095585 
L 607.925039 99.885974 
L 617.175521 97.676364 
L 626.426002 95.466753 
L 635.676484 93.257143 
" style="fill:none;stroke:#56b4e9;stroke-dasharray:4,6.6;stroke-dashoffset:0;stroke-width:4;"/>
   </g>
   <g id="line2d_52">
    <path clip-path="url(#p54a57d7dc7)" d="M 506.169743 315.187902 
L 515.420224 308.055493 
L 524.670706 300.923085 
L 533.921187 293.790677 
L 543.171669 286.658268 
L 552.42215 279.52586 
L 561.672632 272.393452 
L 570.923113 265.261043 
L 580.173595 258.128635 
L 589.424076 250.996227 
L 598.674558 243.863818 
L 607.925039 236.73141 
L 617.175521 229.599002 
L 626.426002 222.466593 
L 635.676484 215.334185 
" style="fill:none;stroke:#de8f05;stroke-dasharray:4,6.6;stroke-dashoffset:0;stroke-width:4;"/>
   </g>
   <g id="line2d_53">
    <path clip-path="url(#p54a57d7dc7)" d="M 482.577285 127.791689 
L 529.762201 84.735689 
" style="fill:none;stroke:#ff0000;stroke-linecap:round;stroke-opacity:0;stroke-width:1.5;"/>
    <defs>
     <path d="M -8 0 
L 8 0 
M 0 8 
L 0 -8 
" id="m50046331ac" style="stroke:#ff0000;stroke-opacity:0;"/>
    </defs>
    <g clip-path="url(#p54a57d7dc7)">
     <use style="fill:#ff0000;fill-opacity:0;stroke:#ff0000;stroke-opacity:0;" x="482.577285" xlink:href="#m50046331ac" y="127.791689"/>
     <use style="fill:#ff0000;fill-opacity:0;stroke:#ff0000;stroke-opacity:0;" x="529.762201" xlink:href="#m50046331ac" y="84.735689"/>
    </g>
   </g>
   <g id="line2d_54">
    <path clip-path="url(#p54a57d7dc7)" d="M 547.330655 123.988416 
L 594.515571 93.460416 
" style="fill:none;stroke:#ff0000;stroke-linecap:round;stroke-opacity:0;stroke-width:1.5;"/>
    <g clip-path="url(#p54a57d7dc7)">
     <use style="fill:#ff0000;fill-opacity:0;stroke:#ff0000;stroke-opacity:0;" x="547.330655" xlink:href="#m50046331ac" y="123.988416"/>
     <use style="fill:#ff0000;fill-opacity:0;stroke:#ff0000;stroke-opacity:0;" x="594.515571" xlink:href="#m50046331ac" y="93.460416"/>
    </g>
   </g>
   <g id="line2d_55">
    <path clip-path="url(#p54a57d7dc7)" d="M 611.222388 108.521143 
L 660.13058 77.993143 
" style="fill:none;stroke:#ff0000;stroke-linecap:round;stroke-opacity:0;stroke-width:1.5;"/>
    <g clip-path="url(#p54a57d7dc7)">
     <use style="fill:#ff0000;fill-opacity:0;stroke:#ff0000;stroke-opacity:0;" x="611.222388" xlink:href="#m50046331ac" y="108.521143"/>
     <use style="fill:#ff0000;fill-opacity:0;stroke:#ff0000;stroke-opacity:0;" x="660.13058" xlink:href="#m50046331ac" y="77.993143"/>
    </g>
   </g>
   <g id="line2d_56">
    <path clip-path="url(#p54a57d7dc7)" d="M 499.672741 318.787902 
L 549.125577 275.731902 
" style="fill:none;stroke:#ff0000;stroke-linecap:round;stroke-opacity:0;stroke-width:1.5;"/>
    <g clip-path="url(#p54a57d7dc7)">
     <use style="fill:#ff0000;fill-opacity:0;stroke:#ff0000;stroke-opacity:0;" x="499.672741" xlink:href="#m50046331ac" y="318.787902"/>
     <use style="fill:#ff0000;fill-opacity:0;stroke:#ff0000;stroke-opacity:0;" x="549.125577" xlink:href="#m50046331ac" y="275.731902"/>
    </g>
   </g>
   <g id="line2d_57">
    <path clip-path="url(#p54a57d7dc7)" d="M 567.538451 280.525043 
L 616.991287 249.997043 
" style="fill:none;stroke:#ff0000;stroke-linecap:round;stroke-opacity:0;stroke-width:1.5;"/>
    <g clip-path="url(#p54a57d7dc7)">
     <use style="fill:#ff0000;fill-opacity:0;stroke:#ff0000;stroke-opacity:0;" x="567.538451" xlink:href="#m50046331ac" y="280.525043"/>
     <use style="fill:#ff0000;fill-opacity:0;stroke:#ff0000;stroke-opacity:0;" x="616.991287" xlink:href="#m50046331ac" y="249.997043"/>
    </g>
   </g>
   <g id="line2d_58">
    <path clip-path="url(#p54a57d7dc7)" d="M 635.361159 230.598185 
L 684.9 200.070185 
" style="fill:none;stroke:#ff0000;stroke-linecap:round;stroke-opacity:0;stroke-width:1.5;"/>
    <g clip-path="url(#p54a57d7dc7)">
     <use style="fill:#ff0000;fill-opacity:0;stroke:#ff0000;stroke-opacity:0;" x="635.361159" xlink:href="#m50046331ac" y="230.598185"/>
     <use style="fill:#ff0000;fill-opacity:0;stroke:#ff0000;stroke-opacity:0;" x="684.9" xlink:href="#m50046331ac" y="200.070185"/>
    </g>
   </g>
   <g id="patch_3">
    <path d="M 99 489.6 
L 99 73.44 
" style="fill:none;stroke:#ffffff;stroke-linecap:square;stroke-linejoin:miter;stroke-width:1.25;"/>
   </g>
   <g id="patch_4">
    <path d="M 712.8 489.6 
L 712.8 73.44 
" style="fill:none;stroke:#ffffff;stroke-linecap:square;stroke-linejoin:miter;stroke-width:1.25;"/>
   </g>
   <g id="patch_5">
    <path d="M 99 489.6 
L 712.8 489.6 
" style="fill:none;stroke:#ffffff;stroke-linecap:square;stroke-linejoin:miter;stroke-width:1.25;"/>
   </g>
   <g id="patch_6">
    <path d="M 99 73.44 
L 712.8 73.44 
" style="fill:none;stroke:#ffffff;stroke-linecap:square;stroke-linejoin:miter;stroke-width:1.25;"/>
   </g>
   <g id="text_17">
    <g id="patch_7">
     <path d="M 483.834743 127.791689 
L 528.504743 127.791689 
Q 532.104743 127.791689 532.104743 124.191689 
L 532.104743 85.703189 
Q 532.104743 82.103189 528.504743 82.103189 
L 483.834743 82.103189 
Q 480.234743 82.103189 480.234743 85.703189 
L 480.234743 124.191689 
Q 480.234743 127.791689 483.834743 127.791689 
z
" style="fill:none;opacity:0;"/>
    </g>
    <!-- 5,416 -->
    <defs>
     <path d="M 10.59375 72.90625 
L 57.328125 72.90625 
L 57.328125 59.078125 
L 25.59375 59.078125 
L 25.59375 47.796875 
Q 27.734375 48.390625 29.90625 48.703125 
Q 32.078125 49.03125 34.421875 49.03125 
Q 47.75 49.03125 55.171875 42.359375 
Q 62.59375 35.6875 62.59375 23.78125 
Q 62.59375 11.96875 54.515625 5.265625 
Q 46.4375 -1.421875 32.078125 -1.421875 
Q 25.875 -1.421875 19.796875 -0.21875 
Q 13.71875 0.984375 7.71875 3.421875 
L 7.71875 18.21875 
Q 13.671875 14.796875 19.015625 13.078125 
Q 24.359375 11.375 29.109375 11.375 
Q 35.9375 11.375 39.859375 14.71875 
Q 43.796875 18.0625 43.796875 23.78125 
Q 43.796875 29.546875 39.859375 32.859375 
Q 35.9375 36.1875 29.109375 36.1875 
Q 25.046875 36.1875 20.453125 35.125 
Q 15.875 34.078125 10.59375 31.890625 
z
" id="DejaVuSans-Bold-53"/>
     <path d="M 10.203125 18.890625 
L 27.78125 18.890625 
L 27.78125 4 
L 15.71875 -14.203125 
L 5.328125 -14.203125 
L 10.203125 4 
z
" id="DejaVuSans-Bold-44"/>
     <path d="M 36.8125 57.421875 
L 16.21875 26.90625 
L 36.8125 26.90625 
z
M 33.6875 72.90625 
L 54.59375 72.90625 
L 54.59375 26.90625 
L 64.984375 26.90625 
L 64.984375 13.28125 
L 54.59375 13.28125 
L 54.59375 0 
L 36.8125 0 
L 36.8125 13.28125 
L 4.5 13.28125 
L 4.5 29.390625 
z
" id="DejaVuSans-Bold-52"/>
     <path d="M 11.71875 12.984375 
L 28.328125 12.984375 
L 28.328125 60.109375 
L 11.28125 56.59375 
L 11.28125 69.390625 
L 28.21875 72.90625 
L 46.09375 72.90625 
L 46.09375 12.984375 
L 62.703125 12.984375 
L 62.703125 0 
L 11.71875 0 
z
" id="DejaVuSans-Bold-49"/>
     <path d="M 36.1875 35.984375 
Q 31.25 35.984375 28.78125 32.78125 
Q 26.3125 29.59375 26.3125 23.1875 
Q 26.3125 16.796875 28.78125 13.59375 
Q 31.25 10.40625 36.1875 10.40625 
Q 41.15625 10.40625 43.625 13.59375 
Q 46.09375 16.796875 46.09375 23.1875 
Q 46.09375 29.59375 43.625 32.78125 
Q 41.15625 35.984375 36.1875 35.984375 
z
M 59.421875 71 
L 59.421875 57.515625 
Q 54.78125 59.71875 50.671875 60.765625 
Q 46.578125 61.8125 42.671875 61.8125 
Q 34.28125 61.8125 29.59375 57.140625 
Q 24.90625 52.484375 24.125 43.3125 
Q 27.34375 45.703125 31.09375 46.890625 
Q 34.859375 48.09375 39.3125 48.09375 
Q 50.484375 48.09375 57.34375 41.546875 
Q 64.203125 35.015625 64.203125 24.421875 
Q 64.203125 12.703125 56.53125 5.640625 
Q 48.875 -1.421875 35.984375 -1.421875 
Q 21.78125 -1.421875 13.984375 8.171875 
Q 6.203125 17.78125 6.203125 35.40625 
Q 6.203125 53.46875 15.3125 63.796875 
Q 24.421875 74.125 40.28125 74.125 
Q 45.3125 74.125 50.046875 73.34375 
Q 54.78125 72.5625 59.421875 71 
z
" id="DejaVuSans-Bold-54"/>
    </defs>
    <g style="fill:#262626;" transform="translate(487.19193 94.821314)scale(0.12 -0.12)">
     <use xlink:href="#DejaVuSans-Bold-53"/>
     <use x="69.580078" xlink:href="#DejaVuSans-Bold-44"/>
     <use x="107.568359" xlink:href="#DejaVuSans-Bold-52"/>
     <use x="177.148438" xlink:href="#DejaVuSans-Bold-49"/>
     <use x="246.728516" xlink:href="#DejaVuSans-Bold-54"/>
    </g>
    <!-- Apr 03 -->
    <defs>
     <path d="M 53.421875 13.28125 
L 24.03125 13.28125 
L 19.390625 0 
L 0.484375 0 
L 27.484375 72.90625 
L 49.90625 72.90625 
L 76.90625 0 
L 58.015625 0 
z
M 28.71875 26.8125 
L 48.6875 26.8125 
L 38.71875 55.8125 
z
" id="DejaVuSans-Bold-65"/>
     <path d="M 25.875 7.90625 
L 25.875 -20.796875 
L 8.40625 -20.796875 
L 8.40625 54.6875 
L 25.875 54.6875 
L 25.875 46.6875 
Q 29.5 51.46875 33.890625 53.734375 
Q 38.28125 56 44 56 
Q 54.109375 56 60.59375 47.96875 
Q 67.09375 39.9375 67.09375 27.296875 
Q 67.09375 14.65625 60.59375 6.609375 
Q 54.109375 -1.421875 44 -1.421875 
Q 38.28125 -1.421875 33.890625 0.84375 
Q 29.5 3.125 25.875 7.90625 
z
M 37.5 43.3125 
Q 31.890625 43.3125 28.875 39.1875 
Q 25.875 35.0625 25.875 27.296875 
Q 25.875 19.53125 28.875 15.40625 
Q 31.890625 11.28125 37.5 11.28125 
Q 43.109375 11.28125 46.0625 15.375 
Q 49.03125 19.484375 49.03125 27.296875 
Q 49.03125 35.109375 46.0625 39.203125 
Q 43.109375 43.3125 37.5 43.3125 
z
" id="DejaVuSans-Bold-112"/>
     <path d="M 49.03125 39.796875 
Q 46.734375 40.875 44.453125 41.375 
Q 42.1875 41.890625 39.890625 41.890625 
Q 33.15625 41.890625 29.515625 37.5625 
Q 25.875 33.25 25.875 25.203125 
L 25.875 0 
L 8.40625 0 
L 8.40625 54.6875 
L 25.875 54.6875 
L 25.875 45.703125 
Q 29.25 51.078125 33.609375 53.53125 
Q 37.984375 56 44.09375 56 
Q 44.96875 56 45.984375 55.921875 
Q 47.015625 55.859375 48.96875 55.609375 
z
" id="DejaVuSans-Bold-114"/>
     <path id="DejaVuSans-Bold-32"/>
     <path d="M 46 36.53125 
Q 46 50.203125 43.4375 55.78125 
Q 40.875 61.375 34.8125 61.375 
Q 28.765625 61.375 26.171875 55.78125 
Q 23.578125 50.203125 23.578125 36.53125 
Q 23.578125 22.703125 26.171875 17.03125 
Q 28.765625 11.375 34.8125 11.375 
Q 40.828125 11.375 43.40625 17.03125 
Q 46 22.703125 46 36.53125 
z
M 64.796875 36.375 
Q 64.796875 18.265625 56.984375 8.421875 
Q 49.171875 -1.421875 34.8125 -1.421875 
Q 20.40625 -1.421875 12.59375 8.421875 
Q 4.78125 18.265625 4.78125 36.375 
Q 4.78125 54.546875 12.59375 64.375 
Q 20.40625 74.21875 34.8125 74.21875 
Q 49.171875 74.21875 56.984375 64.375 
Q 64.796875 54.546875 64.796875 36.375 
z
" id="DejaVuSans-Bold-48"/>
     <path d="M 46.578125 39.3125 
Q 53.953125 37.40625 57.78125 32.6875 
Q 61.625 27.984375 61.625 20.703125 
Q 61.625 9.859375 53.3125 4.21875 
Q 45.015625 -1.421875 29.109375 -1.421875 
Q 23.484375 -1.421875 17.84375 -0.515625 
Q 12.203125 0.390625 6.6875 2.203125 
L 6.6875 16.703125 
Q 11.96875 14.0625 17.15625 12.71875 
Q 22.359375 11.375 27.390625 11.375 
Q 34.859375 11.375 38.84375 13.953125 
Q 42.828125 16.546875 42.828125 21.390625 
Q 42.828125 26.375 38.75 28.9375 
Q 34.671875 31.5 26.703125 31.5 
L 19.1875 31.5 
L 19.1875 43.609375 
L 27.09375 43.609375 
Q 34.1875 43.609375 37.640625 45.828125 
Q 41.109375 48.046875 41.109375 52.59375 
Q 41.109375 56.78125 37.734375 59.078125 
Q 34.375 61.375 28.21875 61.375 
Q 23.6875 61.375 19.046875 60.34375 
Q 14.40625 59.328125 9.8125 57.328125 
L 9.8125 71.09375 
Q 15.375 72.65625 20.84375 73.4375 
Q 26.3125 74.21875 31.59375 74.21875 
Q 45.796875 74.21875 52.84375 69.546875 
Q 59.90625 64.890625 59.90625 55.515625 
Q 59.90625 49.125 56.53125 45.046875 
Q 53.171875 40.96875 46.578125 39.3125 
z
" id="DejaVuSans-Bold-51"/>
    </defs>
    <g style="fill:#262626;" transform="translate(483.834743 108.258689)scale(0.12 -0.12)">
     <use xlink:href="#DejaVuSans-Bold-65"/>
     <use x="77.392578" xlink:href="#DejaVuSans-Bold-112"/>
     <use x="148.974609" xlink:href="#DejaVuSans-Bold-114"/>
     <use x="198.291016" xlink:href="#DejaVuSans-Bold-32"/>
     <use x="233.105469" xlink:href="#DejaVuSans-Bold-48"/>
     <use x="302.685547" xlink:href="#DejaVuSans-Bold-51"/>
    </g>
    <!--  -->
    <g style="fill:#262626;" transform="translate(506.169743 121.696064)scale(0.12 -0.12)"/>
   </g>
   <g id="text_18">
    <g id="patch_8">
     <path d="M 548.588113 124.849978 
L 593.258113 124.849978 
Q 596.858113 124.849978 596.858113 121.249978 
L 596.858113 96.198853 
Q 596.858113 92.598853 593.258113 92.598853 
L 548.588113 92.598853 
Q 544.988113 92.598853 544.988113 96.198853 
L 544.988113 121.249978 
Q 544.988113 124.849978 548.588113 124.849978 
z
" style="fill:#eaeaf2;opacity:0.65;"/>
    </g>
    <!-- 7,794 -->
    <defs>
     <path d="M 6.6875 72.90625 
L 61.625 72.90625 
L 61.625 62.3125 
L 33.203125 0 
L 14.890625 0 
L 41.796875 59.078125 
L 6.6875 59.078125 
z
" id="DejaVuSans-Bold-55"/>
     <path d="M 10.015625 1.609375 
L 10.015625 15.09375 
Q 14.5 12.984375 18.59375 11.9375 
Q 22.703125 10.890625 26.703125 10.890625 
Q 35.109375 10.890625 39.796875 15.546875 
Q 44.484375 20.21875 45.3125 29.390625 
Q 42 26.953125 38.234375 25.734375 
Q 34.46875 24.515625 30.078125 24.515625 
Q 18.890625 24.515625 12.03125 31.03125 
Q 5.171875 37.546875 5.171875 48.1875 
Q 5.171875 59.96875 12.8125 67.046875 
Q 20.453125 74.125 33.296875 74.125 
Q 47.5625 74.125 55.375 64.5 
Q 63.1875 54.890625 63.1875 37.3125 
Q 63.1875 19.234375 54.046875 8.90625 
Q 44.921875 -1.421875 29 -1.421875 
Q 23.875 -1.421875 19.1875 -0.65625 
Q 14.5 0.09375 10.015625 1.609375 
z
M 33.203125 36.71875 
Q 38.140625 36.71875 40.625 39.90625 
Q 43.109375 43.109375 43.109375 49.515625 
Q 43.109375 55.859375 40.625 59.078125 
Q 38.140625 62.3125 33.203125 62.3125 
Q 28.265625 62.3125 25.78125 59.078125 
Q 23.296875 55.859375 23.296875 49.515625 
Q 23.296875 43.109375 25.78125 39.90625 
Q 28.265625 36.71875 33.203125 36.71875 
z
" id="DejaVuSans-Bold-57"/>
    </defs>
    <g style="fill:#262626;" transform="translate(551.945301 105.316978)scale(0.12 -0.12)">
     <use xlink:href="#DejaVuSans-Bold-55"/>
     <use x="69.580078" xlink:href="#DejaVuSans-Bold-44"/>
     <use x="107.568359" xlink:href="#DejaVuSans-Bold-55"/>
     <use x="177.148438" xlink:href="#DejaVuSans-Bold-57"/>
     <use x="246.728516" xlink:href="#DejaVuSans-Bold-52"/>
    </g>
    <!-- Apr 10 -->
    <g style="fill:#262626;" transform="translate(548.588113 118.754353)scale(0.12 -0.12)">
     <use xlink:href="#DejaVuSans-Bold-65"/>
     <use x="77.392578" xlink:href="#DejaVuSans-Bold-112"/>
     <use x="148.974609" xlink:href="#DejaVuSans-Bold-114"/>
     <use x="198.291016" xlink:href="#DejaVuSans-Bold-32"/>
     <use x="233.105469" xlink:href="#DejaVuSans-Bold-49"/>
     <use x="302.685547" xlink:href="#DejaVuSans-Bold-48"/>
    </g>
   </g>
   <g id="text_19">
    <g id="patch_9">
     <path d="M 612.523984 109.382705 
L 658.828984 109.382705 
Q 662.428984 109.382705 662.428984 105.782705 
L 662.428984 80.73158 
Q 662.428984 77.13158 658.828984 77.13158 
L 612.523984 77.13158 
Q 608.923984 77.13158 608.923984 80.73158 
L 608.923984 105.782705 
Q 608.923984 109.382705 612.523984 109.382705 
z
" style="fill:#eaeaf2;opacity:0.65;"/>
    </g>
    <!-- 11,215 -->
    <defs>
     <path d="M 28.8125 13.8125 
L 60.890625 13.8125 
L 60.890625 0 
L 7.90625 0 
L 7.90625 13.8125 
L 34.515625 37.3125 
Q 38.09375 40.53125 39.796875 43.609375 
Q 41.5 46.6875 41.5 50 
Q 41.5 55.125 38.0625 58.25 
Q 34.625 61.375 28.90625 61.375 
Q 24.515625 61.375 19.28125 59.5 
Q 14.0625 57.625 8.109375 53.90625 
L 8.109375 69.921875 
Q 14.453125 72.015625 20.65625 73.109375 
Q 26.859375 74.21875 32.8125 74.21875 
Q 45.90625 74.21875 53.15625 68.453125 
Q 60.40625 62.703125 60.40625 52.390625 
Q 60.40625 46.4375 57.328125 41.28125 
Q 54.25 36.140625 44.390625 27.484375 
z
" id="DejaVuSans-Bold-50"/>
    </defs>
    <g style="fill:#262626;" transform="translate(612.523984 89.849705)scale(0.12 -0.12)">
     <use xlink:href="#DejaVuSans-Bold-49"/>
     <use x="69.580078" xlink:href="#DejaVuSans-Bold-49"/>
     <use x="139.160156" xlink:href="#DejaVuSans-Bold-44"/>
     <use x="177.148438" xlink:href="#DejaVuSans-Bold-50"/>
     <use x="246.728516" xlink:href="#DejaVuSans-Bold-49"/>
     <use x="316.308594" xlink:href="#DejaVuSans-Bold-53"/>
    </g>
    <!-- Apr 17 -->
    <g style="fill:#262626;" transform="translate(613.341484 103.28708)scale(0.12 -0.12)">
     <use xlink:href="#DejaVuSans-Bold-65"/>
     <use x="77.392578" xlink:href="#DejaVuSans-Bold-112"/>
     <use x="148.974609" xlink:href="#DejaVuSans-Bold-114"/>
     <use x="198.291016" xlink:href="#DejaVuSans-Bold-32"/>
     <use x="233.105469" xlink:href="#DejaVuSans-Bold-49"/>
     <use x="302.685547" xlink:href="#DejaVuSans-Bold-55"/>
    </g>
   </g>
   <g id="text_20">
    <g id="patch_10">
     <path d="M 483.834743 318.787902 
L 528.504743 318.787902 
Q 532.104743 318.787902 532.104743 315.187902 
L 532.104743 276.699402 
Q 532.104743 273.099402 528.504743 273.099402 
L 483.834743 273.099402 
Q 480.234743 273.099402 480.234743 276.699402 
L 480.234743 315.187902 
Q 480.234743 318.787902 483.834743 318.787902 
z
" style="fill:none;opacity:0;"/>
    </g>
    <!-- 61 -->
    <g style="fill:#262626;" transform="translate(497.820368 285.817527)scale(0.12 -0.12)">
     <use xlink:href="#DejaVuSans-Bold-54"/>
     <use x="69.580078" xlink:href="#DejaVuSans-Bold-49"/>
    </g>
    <!-- Apr 03 -->
    <g style="fill:#262626;" transform="translate(483.834743 299.254902)scale(0.12 -0.12)">
     <use xlink:href="#DejaVuSans-Bold-65"/>
     <use x="77.392578" xlink:href="#DejaVuSans-Bold-112"/>
     <use x="148.974609" xlink:href="#DejaVuSans-Bold-114"/>
     <use x="198.291016" xlink:href="#DejaVuSans-Bold-32"/>
     <use x="233.105469" xlink:href="#DejaVuSans-Bold-48"/>
     <use x="302.685547" xlink:href="#DejaVuSans-Bold-51"/>
    </g>
    <!--  -->
    <g style="fill:#262626;" transform="translate(506.169743 312.692277)scale(0.12 -0.12)"/>
   </g>
   <g id="text_21">
    <g id="patch_11">
     <path d="M 548.588113 281.386606 
L 593.258113 281.386606 
Q 596.858113 281.386606 596.858113 277.786606 
L 596.858113 252.735481 
Q 596.858113 249.135481 593.258113 249.135481 
L 548.588113 249.135481 
Q 544.988113 249.135481 544.988113 252.735481 
L 544.988113 277.786606 
Q 544.988113 281.386606 548.588113 281.386606 
z
" style="fill:#eaeaf2;opacity:0.65;"/>
    </g>
    <!-- 196 -->
    <g style="fill:#262626;" transform="translate(558.399051 261.853606)scale(0.12 -0.12)">
     <use xlink:href="#DejaVuSans-Bold-49"/>
     <use x="69.580078" xlink:href="#DejaVuSans-Bold-57"/>
     <use x="139.160156" xlink:href="#DejaVuSans-Bold-54"/>
    </g>
    <!-- Apr 10 -->
    <g style="fill:#262626;" transform="translate(548.588113 275.290981)scale(0.12 -0.12)">
     <use xlink:href="#DejaVuSans-Bold-65"/>
     <use x="77.392578" xlink:href="#DejaVuSans-Bold-112"/>
     <use x="148.974609" xlink:href="#DejaVuSans-Bold-114"/>
     <use x="198.291016" xlink:href="#DejaVuSans-Bold-32"/>
     <use x="233.105469" xlink:href="#DejaVuSans-Bold-49"/>
     <use x="302.685547" xlink:href="#DejaVuSans-Bold-48"/>
    </g>
   </g>
   <g id="text_22">
    <g id="patch_12">
     <path d="M 613.341484 231.459748 
L 658.011484 231.459748 
Q 661.611484 231.459748 661.611484 227.859748 
L 661.611484 202.808623 
Q 661.611484 199.208623 658.011484 199.208623 
L 613.341484 199.208623 
Q 609.741484 199.208623 609.741484 202.808623 
L 609.741484 227.859748 
Q 609.741484 231.459748 613.341484 231.459748 
z
" style="fill:#eaeaf2;opacity:0.65;"/>
    </g>
    <!-- 634 -->
    <g style="fill:#262626;" transform="translate(623.152422 211.926748)scale(0.12 -0.12)">
     <use xlink:href="#DejaVuSans-Bold-54"/>
     <use x="69.580078" xlink:href="#DejaVuSans-Bold-51"/>
     <use x="139.160156" xlink:href="#DejaVuSans-Bold-52"/>
    </g>
    <!-- Apr 17 -->
    <g style="fill:#262626;" transform="translate(613.341484 225.364123)scale(0.12 -0.12)">
     <use xlink:href="#DejaVuSans-Bold-65"/>
     <use x="77.392578" xlink:href="#DejaVuSans-Bold-112"/>
     <use x="148.974609" xlink:href="#DejaVuSans-Bold-114"/>
     <use x="198.291016" xlink:href="#DejaVuSans-Bold-32"/>
     <use x="233.105469" xlink:href="#DejaVuSans-Bold-49"/>
     <use x="302.685547" xlink:href="#DejaVuSans-Bold-55"/>
    </g>
   </g>
   <g id="text_23">
    <!-- Norway COVID-19 Cases as of April 03, 2020 UTC EOD, JHU CSSE Data -->
    <defs>
     <path d="M 9.8125 72.90625 
L 23.09375 72.90625 
L 55.421875 11.921875 
L 55.421875 72.90625 
L 64.984375 72.90625 
L 64.984375 0 
L 51.703125 0 
L 19.390625 60.984375 
L 19.390625 0 
L 9.8125 0 
z
" id="DejaVuSans-78"/>
     <path d="M 4.203125 54.6875 
L 13.1875 54.6875 
L 24.421875 12.015625 
L 35.59375 54.6875 
L 46.1875 54.6875 
L 57.421875 12.015625 
L 68.609375 54.6875 
L 77.59375 54.6875 
L 63.28125 0 
L 52.6875 0 
L 40.921875 44.828125 
L 29.109375 0 
L 18.5 0 
z
" id="DejaVuSans-119"/>
     <path d="M 32.171875 -5.078125 
Q 28.375 -14.84375 24.75 -17.8125 
Q 21.140625 -20.796875 15.09375 -20.796875 
L 7.90625 -20.796875 
L 7.90625 -13.28125 
L 13.1875 -13.28125 
Q 16.890625 -13.28125 18.9375 -11.515625 
Q 21 -9.765625 23.484375 -3.21875 
L 25.09375 0.875 
L 2.984375 54.6875 
L 12.5 54.6875 
L 29.59375 11.921875 
L 46.6875 54.6875 
L 56.203125 54.6875 
z
" id="DejaVuSans-121"/>
     <path d="M 64.40625 67.28125 
L 64.40625 56.890625 
Q 59.421875 61.53125 53.78125 63.8125 
Q 48.140625 66.109375 41.796875 66.109375 
Q 29.296875 66.109375 22.65625 58.46875 
Q 16.015625 50.828125 16.015625 36.375 
Q 16.015625 21.96875 22.65625 14.328125 
Q 29.296875 6.6875 41.796875 6.6875 
Q 48.140625 6.6875 53.78125 8.984375 
Q 59.421875 11.28125 64.40625 15.921875 
L 64.40625 5.609375 
Q 59.234375 2.09375 53.4375 0.328125 
Q 47.65625 -1.421875 41.21875 -1.421875 
Q 24.65625 -1.421875 15.125 8.703125 
Q 5.609375 18.84375 5.609375 36.375 
Q 5.609375 53.953125 15.125 64.078125 
Q 24.65625 74.21875 41.21875 74.21875 
Q 47.75 74.21875 53.53125 72.484375 
Q 59.328125 70.75 64.40625 67.28125 
z
" id="DejaVuSans-67"/>
     <path d="M 39.40625 66.21875 
Q 28.65625 66.21875 22.328125 58.203125 
Q 16.015625 50.203125 16.015625 36.375 
Q 16.015625 22.609375 22.328125 14.59375 
Q 28.65625 6.59375 39.40625 6.59375 
Q 50.140625 6.59375 56.421875 14.59375 
Q 62.703125 22.609375 62.703125 36.375 
Q 62.703125 50.203125 56.421875 58.203125 
Q 50.140625 66.21875 39.40625 66.21875 
z
M 39.40625 74.21875 
Q 54.734375 74.21875 63.90625 63.9375 
Q 73.09375 53.65625 73.09375 36.375 
Q 73.09375 19.140625 63.90625 8.859375 
Q 54.734375 -1.421875 39.40625 -1.421875 
Q 24.03125 -1.421875 14.8125 8.828125 
Q 5.609375 19.09375 5.609375 36.375 
Q 5.609375 53.65625 14.8125 63.9375 
Q 24.03125 74.21875 39.40625 74.21875 
z
" id="DejaVuSans-79"/>
     <path d="M 28.609375 0 
L 0.78125 72.90625 
L 11.078125 72.90625 
L 34.1875 11.53125 
L 57.328125 72.90625 
L 67.578125 72.90625 
L 39.796875 0 
z
" id="DejaVuSans-86"/>
     <path d="M 9.8125 72.90625 
L 19.671875 72.90625 
L 19.671875 0 
L 9.8125 0 
z
" id="DejaVuSans-73"/>
     <path d="M 4.890625 31.390625 
L 31.203125 31.390625 
L 31.203125 23.390625 
L 4.890625 23.390625 
z
" id="DejaVuSans-45"/>
     <path d="M 44.28125 53.078125 
L 44.28125 44.578125 
Q 40.484375 46.53125 36.375 47.5 
Q 32.28125 48.484375 27.875 48.484375 
Q 21.1875 48.484375 17.84375 46.4375 
Q 14.5 44.390625 14.5 40.28125 
Q 14.5 37.15625 16.890625 35.375 
Q 19.28125 33.59375 26.515625 31.984375 
L 29.59375 31.296875 
Q 39.15625 29.25 43.1875 25.515625 
Q 47.21875 21.78125 47.21875 15.09375 
Q 47.21875 7.46875 41.1875 3.015625 
Q 35.15625 -1.421875 24.609375 -1.421875 
Q 20.21875 -1.421875 15.453125 -0.5625 
Q 10.6875 0.296875 5.421875 2 
L 5.421875 11.28125 
Q 10.40625 8.6875 15.234375 7.390625 
Q 20.0625 6.109375 24.8125 6.109375 
Q 31.15625 6.109375 34.5625 8.28125 
Q 37.984375 10.453125 37.984375 14.40625 
Q 37.984375 18.0625 35.515625 20.015625 
Q 33.0625 21.96875 24.703125 23.78125 
L 21.578125 24.515625 
Q 13.234375 26.265625 9.515625 29.90625 
Q 5.8125 33.546875 5.8125 39.890625 
Q 5.8125 47.609375 11.28125 51.796875 
Q 16.75 56 26.8125 56 
Q 31.78125 56 36.171875 55.265625 
Q 40.578125 54.546875 44.28125 53.078125 
z
" id="DejaVuSans-115"/>
     <path d="M 37.109375 75.984375 
L 37.109375 68.5 
L 28.515625 68.5 
Q 23.6875 68.5 21.796875 66.546875 
Q 19.921875 64.59375 19.921875 59.515625 
L 19.921875 54.6875 
L 34.71875 54.6875 
L 34.71875 47.703125 
L 19.921875 47.703125 
L 19.921875 0 
L 10.890625 0 
L 10.890625 47.703125 
L 2.296875 47.703125 
L 2.296875 54.6875 
L 10.890625 54.6875 
L 10.890625 58.5 
Q 10.890625 67.625 15.140625 71.796875 
Q 19.390625 75.984375 28.609375 75.984375 
z
" id="DejaVuSans-102"/>
     <path d="M 9.421875 54.6875 
L 18.40625 54.6875 
L 18.40625 0 
L 9.421875 0 
z
M 9.421875 75.984375 
L 18.40625 75.984375 
L 18.40625 64.59375 
L 9.421875 64.59375 
z
" id="DejaVuSans-105"/>
     <path d="M 11.71875 12.40625 
L 22.015625 12.40625 
L 22.015625 4 
L 14.015625 -11.625 
L 7.71875 -11.625 
L 11.71875 4 
z
" id="DejaVuSans-44"/>
     <path d="M 8.6875 72.90625 
L 18.609375 72.90625 
L 18.609375 28.609375 
Q 18.609375 16.890625 22.84375 11.734375 
Q 27.09375 6.59375 36.625 6.59375 
Q 46.09375 6.59375 50.34375 11.734375 
Q 54.59375 16.890625 54.59375 28.609375 
L 54.59375 72.90625 
L 64.5 72.90625 
L 64.5 27.390625 
Q 64.5 13.140625 57.4375 5.859375 
Q 50.390625 -1.421875 36.625 -1.421875 
Q 22.796875 -1.421875 15.734375 5.859375 
Q 8.6875 13.140625 8.6875 27.390625 
z
" id="DejaVuSans-85"/>
     <path d="M -0.296875 72.90625 
L 61.375 72.90625 
L 61.375 64.59375 
L 35.5 64.59375 
L 35.5 0 
L 25.59375 0 
L 25.59375 64.59375 
L -0.296875 64.59375 
z
" id="DejaVuSans-84"/>
     <path d="M 9.8125 72.90625 
L 55.90625 72.90625 
L 55.90625 64.59375 
L 19.671875 64.59375 
L 19.671875 43.015625 
L 54.390625 43.015625 
L 54.390625 34.71875 
L 19.671875 34.71875 
L 19.671875 8.296875 
L 56.78125 8.296875 
L 56.78125 0 
L 9.8125 0 
z
" id="DejaVuSans-69"/>
     <path d="M 9.8125 72.90625 
L 19.671875 72.90625 
L 19.671875 5.078125 
Q 19.671875 -8.109375 14.671875 -14.0625 
Q 9.671875 -20.015625 -1.421875 -20.015625 
L -5.171875 -20.015625 
L -5.171875 -11.71875 
L -2.09375 -11.71875 
Q 4.4375 -11.71875 7.125 -8.046875 
Q 9.8125 -4.390625 9.8125 5.078125 
z
" id="DejaVuSans-74"/>
     <path d="M 9.8125 72.90625 
L 19.671875 72.90625 
L 19.671875 43.015625 
L 55.515625 43.015625 
L 55.515625 72.90625 
L 65.375 72.90625 
L 65.375 0 
L 55.515625 0 
L 55.515625 34.71875 
L 19.671875 34.71875 
L 19.671875 0 
L 9.8125 0 
z
" id="DejaVuSans-72"/>
     <path d="M 53.515625 70.515625 
L 53.515625 60.890625 
Q 47.90625 63.578125 42.921875 64.890625 
Q 37.9375 66.21875 33.296875 66.21875 
Q 25.25 66.21875 20.875 63.09375 
Q 16.5 59.96875 16.5 54.203125 
Q 16.5 49.359375 19.40625 46.890625 
Q 22.3125 44.4375 30.421875 42.921875 
L 36.375 41.703125 
Q 47.40625 39.59375 52.65625 34.296875 
Q 57.90625 29 57.90625 20.125 
Q 57.90625 9.515625 50.796875 4.046875 
Q 43.703125 -1.421875 29.984375 -1.421875 
Q 24.8125 -1.421875 18.96875 -0.25 
Q 13.140625 0.921875 6.890625 3.21875 
L 6.890625 13.375 
Q 12.890625 10.015625 18.65625 8.296875 
Q 24.421875 6.59375 29.984375 6.59375 
Q 38.421875 6.59375 43.015625 9.90625 
Q 47.609375 13.234375 47.609375 19.390625 
Q 47.609375 24.75 44.3125 27.78125 
Q 41.015625 30.8125 33.5 32.328125 
L 27.484375 33.5 
Q 16.453125 35.6875 11.515625 40.375 
Q 6.59375 45.0625 6.59375 53.421875 
Q 6.59375 63.09375 13.40625 68.65625 
Q 20.21875 74.21875 32.171875 74.21875 
Q 37.3125 74.21875 42.625 73.28125 
Q 47.953125 72.359375 53.515625 70.515625 
z
" id="DejaVuSans-83"/>
    </defs>
    <g style="fill:#262626;" transform="translate(194.248125 67.44)scale(0.12 -0.12)">
     <use xlink:href="#DejaVuSans-78"/>
     <use x="74.804688" xlink:href="#DejaVuSans-111"/>
     <use x="135.986328" xlink:href="#DejaVuSans-114"/>
     <use x="177.099609" xlink:href="#DejaVuSans-119"/>
     <use x="258.886719" xlink:href="#DejaVuSans-97"/>
     <use x="320.166016" xlink:href="#DejaVuSans-121"/>
     <use x="379.345703" xlink:href="#DejaVuSans-32"/>
     <use x="411.132812" xlink:href="#DejaVuSans-67"/>
     <use x="480.957031" xlink:href="#DejaVuSans-79"/>
     <use x="559.652344" xlink:href="#DejaVuSans-86"/>
     <use x="628.060547" xlink:href="#DejaVuSans-73"/>
     <use x="657.552734" xlink:href="#DejaVuSans-68"/>
     <use x="734.554688" xlink:href="#DejaVuSans-45"/>
     <use x="770.638672" xlink:href="#DejaVuSans-49"/>
     <use x="834.261719" xlink:href="#DejaVuSans-57"/>
     <use x="897.884766" xlink:href="#DejaVuSans-32"/>
     <use x="929.671875" xlink:href="#DejaVuSans-67"/>
     <use x="999.496094" xlink:href="#DejaVuSans-97"/>
     <use x="1060.775391" xlink:href="#DejaVuSans-115"/>
     <use x="1112.875" xlink:href="#DejaVuSans-101"/>
     <use x="1174.398438" xlink:href="#DejaVuSans-115"/>
     <use x="1226.498047" xlink:href="#DejaVuSans-32"/>
     <use x="1258.285156" xlink:href="#DejaVuSans-97"/>
     <use x="1319.564453" xlink:href="#DejaVuSans-115"/>
     <use x="1371.664062" xlink:href="#DejaVuSans-32"/>
     <use x="1403.451172" xlink:href="#DejaVuSans-111"/>
     <use x="1464.632812" xlink:href="#DejaVuSans-102"/>
     <use x="1499.837891" xlink:href="#DejaVuSans-32"/>
     <use x="1531.625" xlink:href="#DejaVuSans-65"/>
     <use x="1600.033203" xlink:href="#DejaVuSans-112"/>
     <use x="1663.509766" xlink:href="#DejaVuSans-114"/>
     <use x="1704.623047" xlink:href="#DejaVuSans-105"/>
     <use x="1732.40625" xlink:href="#DejaVuSans-108"/>
     <use x="1760.189453" xlink:href="#DejaVuSans-32"/>
     <use x="1791.976562" xlink:href="#DejaVuSans-48"/>
     <use x="1855.599609" xlink:href="#DejaVuSans-51"/>
     <use x="1919.222656" xlink:href="#DejaVuSans-44"/>
     <use x="1951.009766" xlink:href="#DejaVuSans-32"/>
     <use x="1982.796875" xlink:href="#DejaVuSans-50"/>
     <use x="2046.419922" xlink:href="#DejaVuSans-48"/>
     <use x="2110.042969" xlink:href="#DejaVuSans-50"/>
     <use x="2173.666016" xlink:href="#DejaVuSans-48"/>
     <use x="2237.289062" xlink:href="#DejaVuSans-32"/>
     <use x="2269.076172" xlink:href="#DejaVuSans-85"/>
     <use x="2342.269531" xlink:href="#DejaVuSans-84"/>
     <use x="2403.275391" xlink:href="#DejaVuSans-67"/>
     <use x="2473.099609" xlink:href="#DejaVuSans-32"/>
     <use x="2504.886719" xlink:href="#DejaVuSans-69"/>
     <use x="2568.070312" xlink:href="#DejaVuSans-79"/>
     <use x="2646.78125" xlink:href="#DejaVuSans-68"/>
     <use x="2723.783203" xlink:href="#DejaVuSans-44"/>
     <use x="2755.570312" xlink:href="#DejaVuSans-32"/>
     <use x="2787.357422" xlink:href="#DejaVuSans-74"/>
     <use x="2816.849609" xlink:href="#DejaVuSans-72"/>
     <use x="2892.044922" xlink:href="#DejaVuSans-85"/>
     <use x="2965.238281" xlink:href="#DejaVuSans-32"/>
     <use x="2997.025391" xlink:href="#DejaVuSans-67"/>
     <use x="3066.849609" xlink:href="#DejaVuSans-83"/>
     <use x="3130.326172" xlink:href="#DejaVuSans-83"/>
     <use x="3193.802734" xlink:href="#DejaVuSans-69"/>
     <use x="3256.986328" xlink:href="#DejaVuSans-32"/>
     <use x="3288.773438" xlink:href="#DejaVuSans-68"/>
     <use x="3365.775391" xlink:href="#DejaVuSans-97"/>
     <use x="3427.054688" xlink:href="#DejaVuSans-116"/>
     <use x="3466.263672" xlink:href="#DejaVuSans-97"/>
    </g>
   </g>
  </g>
  <g id="legend_1">
   <g id="line2d_59"/>
   <g id="line2d_60">
    <g>
     <use style="fill:#0173b2;stroke:#0173b2;" x="119.9" xlink:href="#mac92ca00b2" y="87.85"/>
    </g>
   </g>
   <g id="text_24">
    <!-- Confirmed -->
    <defs>
     <path d="M 67 4 
Q 61.8125 1.3125 56.203125 -0.046875 
Q 50.59375 -1.421875 44.484375 -1.421875 
Q 26.265625 -1.421875 15.625 8.765625 
Q 4.984375 18.953125 4.984375 36.375 
Q 4.984375 53.859375 15.625 64.03125 
Q 26.265625 74.21875 44.484375 74.21875 
Q 50.59375 74.21875 56.203125 72.84375 
Q 61.8125 71.484375 67 68.796875 
L 67 53.71875 
Q 61.765625 57.28125 56.6875 58.9375 
Q 51.609375 60.59375 46 60.59375 
Q 35.9375 60.59375 30.171875 54.140625 
Q 24.421875 47.703125 24.421875 36.375 
Q 24.421875 25.09375 30.171875 18.640625 
Q 35.9375 12.203125 46 12.203125 
Q 51.609375 12.203125 56.6875 13.859375 
Q 61.765625 15.53125 67 19.09375 
z
" id="DejaVuSans-Bold-67"/>
     <path d="M 34.421875 43.5 
Q 28.609375 43.5 25.5625 39.328125 
Q 22.515625 35.15625 22.515625 27.296875 
Q 22.515625 19.4375 25.5625 15.25 
Q 28.609375 11.078125 34.421875 11.078125 
Q 40.140625 11.078125 43.15625 15.25 
Q 46.1875 19.4375 46.1875 27.296875 
Q 46.1875 35.15625 43.15625 39.328125 
Q 40.140625 43.5 34.421875 43.5 
z
M 34.421875 56 
Q 48.53125 56 56.46875 48.375 
Q 64.40625 40.765625 64.40625 27.296875 
Q 64.40625 13.8125 56.46875 6.1875 
Q 48.53125 -1.421875 34.421875 -1.421875 
Q 20.265625 -1.421875 12.28125 6.1875 
Q 4.296875 13.8125 4.296875 27.296875 
Q 4.296875 40.765625 12.28125 48.375 
Q 20.265625 56 34.421875 56 
z
" id="DejaVuSans-Bold-111"/>
     <path d="M 63.375 33.296875 
L 63.375 0 
L 45.796875 0 
L 45.796875 5.421875 
L 45.796875 25.484375 
Q 45.796875 32.5625 45.484375 35.25 
Q 45.171875 37.9375 44.390625 39.203125 
Q 43.359375 40.921875 41.59375 41.875 
Q 39.84375 42.828125 37.59375 42.828125 
Q 32.125 42.828125 29 38.59375 
Q 25.875 34.375 25.875 26.90625 
L 25.875 0 
L 8.40625 0 
L 8.40625 54.6875 
L 25.875 54.6875 
L 25.875 46.6875 
Q 29.828125 51.46875 34.265625 53.734375 
Q 38.71875 56 44.09375 56 
Q 53.5625 56 58.46875 50.1875 
Q 63.375 44.390625 63.375 33.296875 
z
" id="DejaVuSans-Bold-110"/>
     <path d="M 44.390625 75.984375 
L 44.390625 64.5 
L 34.71875 64.5 
Q 31 64.5 29.53125 63.15625 
Q 28.078125 61.8125 28.078125 58.5 
L 28.078125 54.6875 
L 43.015625 54.6875 
L 43.015625 42.1875 
L 28.078125 42.1875 
L 28.078125 0 
L 10.59375 0 
L 10.59375 42.1875 
L 1.90625 42.1875 
L 1.90625 54.6875 
L 10.59375 54.6875 
L 10.59375 58.5 
Q 10.59375 67.4375 15.578125 71.703125 
Q 20.5625 75.984375 31 75.984375 
z
" id="DejaVuSans-Bold-102"/>
     <path d="M 8.40625 54.6875 
L 25.875 54.6875 
L 25.875 0 
L 8.40625 0 
z
M 8.40625 75.984375 
L 25.875 75.984375 
L 25.875 61.71875 
L 8.40625 61.71875 
z
" id="DejaVuSans-Bold-105"/>
     <path d="M 59.078125 45.609375 
Q 62.40625 50.6875 66.96875 53.34375 
Q 71.53125 56 77 56 
Q 86.421875 56 91.359375 50.1875 
Q 96.296875 44.390625 96.296875 33.296875 
L 96.296875 0 
L 78.71875 0 
L 78.71875 28.515625 
Q 78.765625 29.15625 78.78125 29.828125 
Q 78.8125 30.515625 78.8125 31.78125 
Q 78.8125 37.59375 77.09375 40.203125 
Q 75.390625 42.828125 71.578125 42.828125 
Q 66.609375 42.828125 63.890625 38.71875 
Q 61.1875 34.625 61.078125 26.859375 
L 61.078125 0 
L 43.5 0 
L 43.5 28.515625 
Q 43.5 37.59375 41.9375 40.203125 
Q 40.375 42.828125 36.375 42.828125 
Q 31.34375 42.828125 28.609375 38.703125 
Q 25.875 34.578125 25.875 26.90625 
L 25.875 0 
L 8.296875 0 
L 8.296875 54.6875 
L 25.875 54.6875 
L 25.875 46.6875 
Q 29.109375 51.3125 33.28125 53.65625 
Q 37.453125 56 42.484375 56 
Q 48.140625 56 52.484375 53.265625 
Q 56.84375 50.53125 59.078125 45.609375 
z
" id="DejaVuSans-Bold-109"/>
     <path d="M 62.984375 27.484375 
L 62.984375 22.515625 
L 22.125 22.515625 
Q 22.75 16.359375 26.5625 13.28125 
Q 30.375 10.203125 37.203125 10.203125 
Q 42.71875 10.203125 48.5 11.84375 
Q 54.296875 13.484375 60.40625 16.796875 
L 60.40625 3.328125 
Q 54.203125 0.984375 48 -0.21875 
Q 41.796875 -1.421875 35.59375 -1.421875 
Q 20.75 -1.421875 12.515625 6.125 
Q 4.296875 13.671875 4.296875 27.296875 
Q 4.296875 40.671875 12.375 48.328125 
Q 20.453125 56 34.625 56 
Q 47.515625 56 55.25 48.234375 
Q 62.984375 40.484375 62.984375 27.484375 
z
M 45.015625 33.296875 
Q 45.015625 38.28125 42.109375 41.328125 
Q 39.203125 44.390625 34.515625 44.390625 
Q 29.4375 44.390625 26.265625 41.53125 
Q 23.09375 38.671875 22.3125 33.296875 
z
" id="DejaVuSans-Bold-101"/>
     <path d="M 45.609375 46.6875 
L 45.609375 75.984375 
L 63.1875 75.984375 
L 63.1875 0 
L 45.609375 0 
L 45.609375 7.90625 
Q 42 3.078125 37.640625 0.828125 
Q 33.296875 -1.421875 27.59375 -1.421875 
Q 17.484375 -1.421875 10.984375 6.609375 
Q 4.5 14.65625 4.5 27.296875 
Q 4.5 39.9375 10.984375 47.96875 
Q 17.484375 56 27.59375 56 
Q 33.25 56 37.625 53.734375 
Q 42 51.46875 45.609375 46.6875 
z
M 34.078125 11.28125 
Q 39.703125 11.28125 42.65625 15.375 
Q 45.609375 19.484375 45.609375 27.296875 
Q 45.609375 35.109375 42.65625 39.203125 
Q 39.703125 43.3125 34.078125 43.3125 
Q 28.515625 43.3125 25.5625 39.203125 
Q 22.609375 35.109375 22.609375 27.296875 
Q 22.609375 19.484375 25.5625 15.375 
Q 28.515625 11.28125 34.078125 11.28125 
z
" id="DejaVuSans-Bold-100"/>
    </defs>
    <g style="fill:#262626;" transform="translate(139.7 91.7)scale(0.11 -0.11)">
     <use xlink:href="#DejaVuSans-Bold-67"/>
     <use x="73.388672" xlink:href="#DejaVuSans-Bold-111"/>
     <use x="142.089844" xlink:href="#DejaVuSans-Bold-110"/>
     <use x="213.28125" xlink:href="#DejaVuSans-Bold-102"/>
     <use x="256.787109" xlink:href="#DejaVuSans-Bold-105"/>
     <use x="291.064453" xlink:href="#DejaVuSans-Bold-114"/>
     <use x="340.380859" xlink:href="#DejaVuSans-Bold-109"/>
     <use x="444.580078" xlink:href="#DejaVuSans-Bold-101"/>
     <use x="512.402344" xlink:href="#DejaVuSans-Bold-100"/>
    </g>
   </g>
   <g id="line2d_61"/>
   <g id="line2d_62">
    <g>
     <use style="fill:#d55e00;stroke:#d55e00;" x="119.9" xlink:href="#m538666b175" y="103.995937"/>
    </g>
   </g>
   <g id="text_25">
    <!-- Deaths -->
    <defs>
     <path d="M 27.984375 58.6875 
L 27.984375 14.203125 
L 34.71875 14.203125 
Q 46.234375 14.203125 52.3125 19.921875 
Q 58.40625 25.640625 58.40625 36.53125 
Q 58.40625 47.359375 52.34375 53.015625 
Q 46.296875 58.6875 34.71875 58.6875 
z
M 9.1875 72.90625 
L 29 72.90625 
Q 45.609375 72.90625 53.734375 70.53125 
Q 61.859375 68.171875 67.671875 62.5 
Q 72.796875 57.5625 75.28125 51.109375 
Q 77.78125 44.671875 77.78125 36.53125 
Q 77.78125 28.265625 75.28125 21.796875 
Q 72.796875 15.328125 67.671875 10.40625 
Q 61.8125 4.734375 53.609375 2.359375 
Q 45.40625 0 29 0 
L 9.1875 0 
z
" id="DejaVuSans-Bold-68"/>
     <path d="M 32.90625 24.609375 
Q 27.4375 24.609375 24.671875 22.75 
Q 21.921875 20.90625 21.921875 17.28125 
Q 21.921875 13.96875 24.140625 12.078125 
Q 26.375 10.203125 30.328125 10.203125 
Q 35.25 10.203125 38.625 13.734375 
Q 42 17.28125 42 22.609375 
L 42 24.609375 
z
M 59.625 31.203125 
L 59.625 0 
L 42 0 
L 42 8.109375 
Q 38.484375 3.125 34.078125 0.84375 
Q 29.6875 -1.421875 23.390625 -1.421875 
Q 14.890625 -1.421875 9.59375 3.53125 
Q 4.296875 8.5 4.296875 16.40625 
Q 4.296875 26.03125 10.90625 30.515625 
Q 17.53125 35.015625 31.6875 35.015625 
L 42 35.015625 
L 42 36.375 
Q 42 40.53125 38.71875 42.453125 
Q 35.453125 44.390625 28.515625 44.390625 
Q 22.90625 44.390625 18.0625 43.265625 
Q 13.234375 42.140625 9.078125 39.890625 
L 9.078125 53.21875 
Q 14.703125 54.59375 20.359375 55.296875 
Q 26.03125 56 31.6875 56 
Q 46.484375 56 53.046875 50.171875 
Q 59.625 44.34375 59.625 31.203125 
z
" id="DejaVuSans-Bold-97"/>
     <path d="M 27.484375 70.21875 
L 27.484375 54.6875 
L 45.515625 54.6875 
L 45.515625 42.1875 
L 27.484375 42.1875 
L 27.484375 19 
Q 27.484375 15.1875 29 13.84375 
Q 30.515625 12.5 35.015625 12.5 
L 44 12.5 
L 44 0 
L 29 0 
Q 18.65625 0 14.328125 4.3125 
Q 10.015625 8.640625 10.015625 19 
L 10.015625 42.1875 
L 1.3125 42.1875 
L 1.3125 54.6875 
L 10.015625 54.6875 
L 10.015625 70.21875 
z
" id="DejaVuSans-Bold-116"/>
     <path d="M 63.375 33.296875 
L 63.375 0 
L 45.796875 0 
L 45.796875 5.421875 
L 45.796875 25.390625 
Q 45.796875 32.5625 45.484375 35.25 
Q 45.171875 37.9375 44.390625 39.203125 
Q 43.359375 40.921875 41.59375 41.875 
Q 39.84375 42.828125 37.59375 42.828125 
Q 32.125 42.828125 29 38.59375 
Q 25.875 34.375 25.875 26.90625 
L 25.875 0 
L 8.40625 0 
L 8.40625 75.984375 
L 25.875 75.984375 
L 25.875 46.6875 
Q 29.828125 51.46875 34.265625 53.734375 
Q 38.71875 56 44.09375 56 
Q 53.5625 56 58.46875 50.1875 
Q 63.375 44.390625 63.375 33.296875 
z
" id="DejaVuSans-Bold-104"/>
     <path d="M 51.125 52.984375 
L 51.125 39.703125 
Q 45.515625 42.046875 40.28125 43.21875 
Q 35.0625 44.390625 30.421875 44.390625 
Q 25.4375 44.390625 23.015625 43.140625 
Q 20.609375 41.890625 20.609375 39.3125 
Q 20.609375 37.203125 22.4375 36.078125 
Q 24.265625 34.96875 29 34.421875 
L 32.078125 33.984375 
Q 45.515625 32.28125 50.140625 28.375 
Q 54.78125 24.46875 54.78125 16.109375 
Q 54.78125 7.375 48.328125 2.96875 
Q 41.890625 -1.421875 29.109375 -1.421875 
Q 23.6875 -1.421875 17.890625 -0.5625 
Q 12.109375 0.296875 6 2 
L 6 15.28125 
Q 11.234375 12.75 16.71875 11.46875 
Q 22.21875 10.203125 27.875 10.203125 
Q 33.015625 10.203125 35.59375 11.609375 
Q 38.1875 13.03125 38.1875 15.828125 
Q 38.1875 18.171875 36.40625 19.3125 
Q 34.625 20.453125 29.296875 21.09375 
L 26.21875 21.484375 
Q 14.546875 22.953125 9.859375 26.90625 
Q 5.171875 30.859375 5.171875 38.921875 
Q 5.171875 47.609375 11.125 51.796875 
Q 17.09375 56 29.390625 56 
Q 34.234375 56 39.546875 55.265625 
Q 44.875 54.546875 51.125 52.984375 
z
" id="DejaVuSans-Bold-115"/>
    </defs>
    <g style="fill:#262626;" transform="translate(139.7 107.845937)scale(0.11 -0.11)">
     <use xlink:href="#DejaVuSans-Bold-68"/>
     <use x="83.007812" xlink:href="#DejaVuSans-Bold-101"/>
     <use x="150.830078" xlink:href="#DejaVuSans-Bold-97"/>
     <use x="218.310547" xlink:href="#DejaVuSans-Bold-116"/>
     <use x="266.113281" xlink:href="#DejaVuSans-Bold-104"/>
     <use x="337.304688" xlink:href="#DejaVuSans-Bold-115"/>
    </g>
   </g>
   <g id="line2d_63">
    <path d="M 225.938281 87.85 
L 247.938281 87.85 
" style="fill:none;stroke:#56b4e9;stroke-linecap:round;stroke-width:4;"/>
   </g>
   <g id="line2d_64"/>
   <g id="text_26">
    <!-- 1.4 $\times$ per week -->
    <defs>
     <path d="M 10.203125 18.890625 
L 27.78125 18.890625 
L 27.78125 0 
L 10.203125 0 
z
" id="DejaVuSans-Bold-46"/>
     <path d="M 70.125 53.71875 
L 47.796875 31.296875 
L 70.125 8.984375 
L 64.3125 3.078125 
L 41.890625 25.484375 
L 19.484375 3.078125 
L 13.71875 8.984375 
L 35.984375 31.296875 
L 13.71875 53.71875 
L 19.484375 59.625 
L 41.890625 37.203125 
L 64.3125 59.625 
z
" id="DejaVuSans-215"/>
     <path d="M 3.515625 54.6875 
L 20.515625 54.6875 
L 29.6875 17 
L 38.921875 54.6875 
L 53.515625 54.6875 
L 62.703125 17.390625 
L 71.921875 54.6875 
L 88.921875 54.6875 
L 74.515625 0 
L 55.421875 0 
L 46.1875 37.59375 
L 37.015625 0 
L 17.921875 0 
z
" id="DejaVuSans-Bold-119"/>
     <path d="M 8.40625 75.984375 
L 25.875 75.984375 
L 25.875 34.625 
L 46 54.6875 
L 66.3125 54.6875 
L 39.59375 29.59375 
L 68.40625 0 
L 47.21875 0 
L 25.875 22.796875 
L 25.875 0 
L 8.40625 0 
z
" id="DejaVuSans-Bold-107"/>
    </defs>
    <g style="fill:#262626;" transform="translate(256.738281 91.7)scale(0.11 -0.11)">
     <use transform="translate(0 0.015625)" xlink:href="#DejaVuSans-Bold-49"/>
     <use transform="translate(69.580078 0.015625)" xlink:href="#DejaVuSans-Bold-46"/>
     <use transform="translate(107.568359 0.015625)" xlink:href="#DejaVuSans-Bold-52"/>
     <use transform="translate(177.148438 0.015625)" xlink:href="#DejaVuSans-Bold-32"/>
     <use transform="translate(211.962891 0.015625)" xlink:href="#DejaVuSans-215"/>
     <use transform="translate(295.751953 0.015625)" xlink:href="#DejaVuSans-Bold-32"/>
     <use transform="translate(330.566406 0.015625)" xlink:href="#DejaVuSans-Bold-112"/>
     <use transform="translate(402.148438 0.015625)" xlink:href="#DejaVuSans-Bold-101"/>
     <use transform="translate(469.970703 0.015625)" xlink:href="#DejaVuSans-Bold-114"/>
     <use transform="translate(519.287109 0.015625)" xlink:href="#DejaVuSans-Bold-32"/>
     <use transform="translate(554.101562 0.015625)" xlink:href="#DejaVuSans-Bold-119"/>
     <use transform="translate(646.484375 0.015625)" xlink:href="#DejaVuSans-Bold-101"/>
     <use transform="translate(714.306641 0.015625)" xlink:href="#DejaVuSans-Bold-101"/>
     <use transform="translate(782.128906 0.015625)" xlink:href="#DejaVuSans-Bold-107"/>
    </g>
   </g>
   <g id="line2d_65">
    <path d="M 225.938281 104.02 
L 247.938281 104.02 
" style="fill:none;stroke:#de8f05;stroke-linecap:round;stroke-width:4;"/>
   </g>
   <g id="line2d_66"/>
   <g id="text_27">
    <!-- 3.2 $\times$ per week -->
    <g style="fill:#262626;" transform="translate(256.738281 107.87)scale(0.11 -0.11)">
     <use transform="translate(0 0.015625)" xlink:href="#DejaVuSans-Bold-51"/>
     <use transform="translate(69.580078 0.015625)" xlink:href="#DejaVuSans-Bold-46"/>
     <use transform="translate(107.505859 0.015625)" xlink:href="#DejaVuSans-Bold-50"/>
     <use transform="translate(177.085938 0.015625)" xlink:href="#DejaVuSans-Bold-32"/>
     <use transform="translate(211.900391 0.015625)" xlink:href="#DejaVuSans-215"/>
     <use transform="translate(295.689453 0.015625)" xlink:href="#DejaVuSans-Bold-32"/>
     <use transform="translate(330.503906 0.015625)" xlink:href="#DejaVuSans-Bold-112"/>
     <use transform="translate(402.085938 0.015625)" xlink:href="#DejaVuSans-Bold-101"/>
     <use transform="translate(469.908203 0.015625)" xlink:href="#DejaVuSans-Bold-114"/>
     <use transform="translate(519.224609 0.015625)" xlink:href="#DejaVuSans-Bold-32"/>
     <use transform="translate(554.039062 0.015625)" xlink:href="#DejaVuSans-Bold-119"/>
     <use transform="translate(646.421875 0.015625)" xlink:href="#DejaVuSans-Bold-101"/>
     <use transform="translate(714.244141 0.015625)" xlink:href="#DejaVuSans-Bold-101"/>
     <use transform="translate(782.066406 0.015625)" xlink:href="#DejaVuSans-Bold-107"/>
    </g>
   </g>
  </g>
 </g>
 <defs>
  <clipPath id="p54a57d7dc7">
   <rect height="416.16" width="613.8" x="99" y="73.44"/>
  </clipPath>
 </defs>
</svg>
