<?xml version="1.0" encoding="utf-8" standalone="no"?>
<!DOCTYPE svg PUBLIC "-//W3C//DTD SVG 1.1//EN"
  "http://www.w3.org/Graphics/SVG/1.1/DTD/svg11.dtd">
<!-- Created with matplotlib (https://matplotlib.org/) -->
<svg height="612pt" version="1.1" viewBox="0 0 792 612" width="792pt" xmlns="http://www.w3.org/2000/svg" xmlns:xlink="http://www.w3.org/1999/xlink">
 <defs>
  <style type="text/css">
*{stroke-linecap:butt;stroke-linejoin:round;}
  </style>
 </defs>
 <g id="figure_1">
  <g id="patch_1">
   <path d="M 0 612 
L 792 612 
L 792 0 
L 0 0 
z
" style="fill:#ffffff;"/>
  </g>
  <g id="axes_1">
   <g id="patch_2">
    <path d="M 99 489.6 
L 712.8 489.6 
L 712.8 73.44 
L 99 73.44 
z
" style="fill:#eaeaf2;"/>
   </g>
   <g id="matplotlib.axis_1">
    <g id="xtick_1">
     <g id="line2d_1">
      <path clip-path="url(#p73e279a3c8)" d="M 117.478214 489.6 
L 117.478214 73.44 
" style="fill:none;stroke:#ffffff;stroke-linecap:round;"/>
     </g>
     <g id="text_1">
      <!-- Mar 02 -->
      <defs>
       <path d="M 9.8125 72.90625 
L 24.515625 72.90625 
L 43.109375 23.296875 
L 61.8125 72.90625 
L 76.515625 72.90625 
L 76.515625 0 
L 66.890625 0 
L 66.890625 64.015625 
L 48.09375 14.015625 
L 38.1875 14.015625 
L 19.390625 64.015625 
L 19.390625 0 
L 9.8125 0 
z
" id="DejaVuSans-77"/>
       <path d="M 34.28125 27.484375 
Q 23.390625 27.484375 19.1875 25 
Q 14.984375 22.515625 14.984375 16.5 
Q 14.984375 11.71875 18.140625 8.90625 
Q 21.296875 6.109375 26.703125 6.109375 
Q 34.1875 6.109375 38.703125 11.40625 
Q 43.21875 16.703125 43.21875 25.484375 
L 43.21875 27.484375 
z
M 52.203125 31.203125 
L 52.203125 0 
L 43.21875 0 
L 43.21875 8.296875 
Q 40.140625 3.328125 35.546875 0.953125 
Q 30.953125 -1.421875 24.3125 -1.421875 
Q 15.921875 -1.421875 10.953125 3.296875 
Q 6 8.015625 6 15.921875 
Q 6 25.140625 12.171875 29.828125 
Q 18.359375 34.515625 30.609375 34.515625 
L 43.21875 34.515625 
L 43.21875 35.40625 
Q 43.21875 41.609375 39.140625 45 
Q 35.0625 48.390625 27.6875 48.390625 
Q 23 48.390625 18.546875 47.265625 
Q 14.109375 46.140625 10.015625 43.890625 
L 10.015625 52.203125 
Q 14.9375 54.109375 19.578125 55.046875 
Q 24.21875 56 28.609375 56 
Q 40.484375 56 46.34375 49.84375 
Q 52.203125 43.703125 52.203125 31.203125 
z
" id="DejaVuSans-97"/>
       <path d="M 41.109375 46.296875 
Q 39.59375 47.171875 37.8125 47.578125 
Q 36.03125 48 33.890625 48 
Q 26.265625 48 22.1875 43.046875 
Q 18.109375 38.09375 18.109375 28.8125 
L 18.109375 0 
L 9.078125 0 
L 9.078125 54.6875 
L 18.109375 54.6875 
L 18.109375 46.1875 
Q 20.953125 51.171875 25.484375 53.578125 
Q 30.03125 56 36.53125 56 
Q 37.453125 56 38.578125 55.875 
Q 39.703125 55.765625 41.0625 55.515625 
z
" id="DejaVuSans-114"/>
       <path id="DejaVuSans-32"/>
       <path d="M 31.78125 66.40625 
Q 24.171875 66.40625 20.328125 58.90625 
Q 16.5 51.421875 16.5 36.375 
Q 16.5 21.390625 20.328125 13.890625 
Q 24.171875 6.390625 31.78125 6.390625 
Q 39.453125 6.390625 43.28125 13.890625 
Q 47.125 21.390625 47.125 36.375 
Q 47.125 51.421875 43.28125 58.90625 
Q 39.453125 66.40625 31.78125 66.40625 
z
M 31.78125 74.21875 
Q 44.046875 74.21875 50.515625 64.515625 
Q 56.984375 54.828125 56.984375 36.375 
Q 56.984375 17.96875 50.515625 8.265625 
Q 44.046875 -1.421875 31.78125 -1.421875 
Q 19.53125 -1.421875 13.0625 8.265625 
Q 6.59375 17.96875 6.59375 36.375 
Q 6.59375 54.828125 13.0625 64.515625 
Q 19.53125 74.21875 31.78125 74.21875 
z
" id="DejaVuSans-48"/>
       <path d="M 19.1875 8.296875 
L 53.609375 8.296875 
L 53.609375 0 
L 7.328125 0 
L 7.328125 8.296875 
Q 12.9375 14.109375 22.625 23.890625 
Q 32.328125 33.6875 34.8125 36.53125 
Q 39.546875 41.84375 41.421875 45.53125 
Q 43.3125 49.21875 43.3125 52.78125 
Q 43.3125 58.59375 39.234375 62.25 
Q 35.15625 65.921875 28.609375 65.921875 
Q 23.96875 65.921875 18.8125 64.3125 
Q 13.671875 62.703125 7.8125 59.421875 
L 7.8125 69.390625 
Q 13.765625 71.78125 18.9375 73 
Q 24.125 74.21875 28.421875 74.21875 
Q 39.75 74.21875 46.484375 68.546875 
Q 53.21875 62.890625 53.21875 53.421875 
Q 53.21875 48.921875 51.53125 44.890625 
Q 49.859375 40.875 45.40625 35.40625 
Q 44.1875 33.984375 37.640625 27.21875 
Q 31.109375 20.453125 19.1875 8.296875 
z
" id="DejaVuSans-50"/>
      </defs>
      <g style="fill:#262626;" transform="translate(83.211215 525.462156)rotate(-30)scale(0.11 -0.11)">
       <use xlink:href="#DejaVuSans-77"/>
       <use x="86.279297" xlink:href="#DejaVuSans-97"/>
       <use x="147.558594" xlink:href="#DejaVuSans-114"/>
       <use x="188.671875" xlink:href="#DejaVuSans-32"/>
       <use x="220.458984" xlink:href="#DejaVuSans-48"/>
       <use x="284.082031" xlink:href="#DejaVuSans-50"/>
      </g>
     </g>
    </g>
    <g id="xtick_2">
     <g id="line2d_2">
      <path clip-path="url(#p73e279a3c8)" d="M 183.430714 489.6 
L 183.430714 73.44 
" style="fill:none;stroke:#ffffff;stroke-linecap:round;"/>
     </g>
     <g id="text_2">
      <!-- Mar 09 -->
      <defs>
       <path d="M 10.984375 1.515625 
L 10.984375 10.5 
Q 14.703125 8.734375 18.5 7.8125 
Q 22.3125 6.890625 25.984375 6.890625 
Q 35.75 6.890625 40.890625 13.453125 
Q 46.046875 20.015625 46.78125 33.40625 
Q 43.953125 29.203125 39.59375 26.953125 
Q 35.25 24.703125 29.984375 24.703125 
Q 19.046875 24.703125 12.671875 31.3125 
Q 6.296875 37.9375 6.296875 49.421875 
Q 6.296875 60.640625 12.9375 67.421875 
Q 19.578125 74.21875 30.609375 74.21875 
Q 43.265625 74.21875 49.921875 64.515625 
Q 56.59375 54.828125 56.59375 36.375 
Q 56.59375 19.140625 48.40625 8.859375 
Q 40.234375 -1.421875 26.421875 -1.421875 
Q 22.703125 -1.421875 18.890625 -0.6875 
Q 15.09375 0.046875 10.984375 1.515625 
z
M 30.609375 32.421875 
Q 37.25 32.421875 41.125 36.953125 
Q 45.015625 41.5 45.015625 49.421875 
Q 45.015625 57.28125 41.125 61.84375 
Q 37.25 66.40625 30.609375 66.40625 
Q 23.96875 66.40625 20.09375 61.84375 
Q 16.21875 57.28125 16.21875 49.421875 
Q 16.21875 41.5 20.09375 36.953125 
Q 23.96875 32.421875 30.609375 32.421875 
z
" id="DejaVuSans-57"/>
      </defs>
      <g style="fill:#262626;" transform="translate(149.163715 525.462156)rotate(-30)scale(0.11 -0.11)">
       <use xlink:href="#DejaVuSans-77"/>
       <use x="86.279297" xlink:href="#DejaVuSans-97"/>
       <use x="147.558594" xlink:href="#DejaVuSans-114"/>
       <use x="188.671875" xlink:href="#DejaVuSans-32"/>
       <use x="220.458984" xlink:href="#DejaVuSans-48"/>
       <use x="284.082031" xlink:href="#DejaVuSans-57"/>
      </g>
     </g>
    </g>
    <g id="xtick_3">
     <g id="line2d_3">
      <path clip-path="url(#p73e279a3c8)" d="M 249.383214 489.6 
L 249.383214 73.44 
" style="fill:none;stroke:#ffffff;stroke-linecap:round;"/>
     </g>
     <g id="text_3">
      <!-- Mar 16 -->
      <defs>
       <path d="M 12.40625 8.296875 
L 28.515625 8.296875 
L 28.515625 63.921875 
L 10.984375 60.40625 
L 10.984375 69.390625 
L 28.421875 72.90625 
L 38.28125 72.90625 
L 38.28125 8.296875 
L 54.390625 8.296875 
L 54.390625 0 
L 12.40625 0 
z
" id="DejaVuSans-49"/>
       <path d="M 33.015625 40.375 
Q 26.375 40.375 22.484375 35.828125 
Q 18.609375 31.296875 18.609375 23.390625 
Q 18.609375 15.53125 22.484375 10.953125 
Q 26.375 6.390625 33.015625 6.390625 
Q 39.65625 6.390625 43.53125 10.953125 
Q 47.40625 15.53125 47.40625 23.390625 
Q 47.40625 31.296875 43.53125 35.828125 
Q 39.65625 40.375 33.015625 40.375 
z
M 52.59375 71.296875 
L 52.59375 62.3125 
Q 48.875 64.0625 45.09375 64.984375 
Q 41.3125 65.921875 37.59375 65.921875 
Q 27.828125 65.921875 22.671875 59.328125 
Q 17.53125 52.734375 16.796875 39.40625 
Q 19.671875 43.65625 24.015625 45.921875 
Q 28.375 48.1875 33.59375 48.1875 
Q 44.578125 48.1875 50.953125 41.515625 
Q 57.328125 34.859375 57.328125 23.390625 
Q 57.328125 12.15625 50.6875 5.359375 
Q 44.046875 -1.421875 33.015625 -1.421875 
Q 20.359375 -1.421875 13.671875 8.265625 
Q 6.984375 17.96875 6.984375 36.375 
Q 6.984375 53.65625 15.1875 63.9375 
Q 23.390625 74.21875 37.203125 74.21875 
Q 40.921875 74.21875 44.703125 73.484375 
Q 48.484375 72.75 52.59375 71.296875 
z
" id="DejaVuSans-54"/>
      </defs>
      <g style="fill:#262626;" transform="translate(215.116214 525.462156)rotate(-30)scale(0.11 -0.11)">
       <use xlink:href="#DejaVuSans-77"/>
       <use x="86.279297" xlink:href="#DejaVuSans-97"/>
       <use x="147.558594" xlink:href="#DejaVuSans-114"/>
       <use x="188.671875" xlink:href="#DejaVuSans-32"/>
       <use x="220.458984" xlink:href="#DejaVuSans-49"/>
       <use x="284.082031" xlink:href="#DejaVuSans-54"/>
      </g>
     </g>
    </g>
    <g id="xtick_4">
     <g id="line2d_4">
      <path clip-path="url(#p73e279a3c8)" d="M 315.335714 489.6 
L 315.335714 73.44 
" style="fill:none;stroke:#ffffff;stroke-linecap:round;"/>
     </g>
     <g id="text_4">
      <!-- Mar 23 -->
      <defs>
       <path d="M 40.578125 39.3125 
Q 47.65625 37.796875 51.625 33 
Q 55.609375 28.21875 55.609375 21.1875 
Q 55.609375 10.40625 48.1875 4.484375 
Q 40.765625 -1.421875 27.09375 -1.421875 
Q 22.515625 -1.421875 17.65625 -0.515625 
Q 12.796875 0.390625 7.625 2.203125 
L 7.625 11.71875 
Q 11.71875 9.328125 16.59375 8.109375 
Q 21.484375 6.890625 26.8125 6.890625 
Q 36.078125 6.890625 40.9375 10.546875 
Q 45.796875 14.203125 45.796875 21.1875 
Q 45.796875 27.640625 41.28125 31.265625 
Q 36.765625 34.90625 28.71875 34.90625 
L 20.21875 34.90625 
L 20.21875 43.015625 
L 29.109375 43.015625 
Q 36.375 43.015625 40.234375 45.921875 
Q 44.09375 48.828125 44.09375 54.296875 
Q 44.09375 59.90625 40.109375 62.90625 
Q 36.140625 65.921875 28.71875 65.921875 
Q 24.65625 65.921875 20.015625 65.03125 
Q 15.375 64.15625 9.8125 62.3125 
L 9.8125 71.09375 
Q 15.4375 72.65625 20.34375 73.4375 
Q 25.25 74.21875 29.59375 74.21875 
Q 40.828125 74.21875 47.359375 69.109375 
Q 53.90625 64.015625 53.90625 55.328125 
Q 53.90625 49.265625 50.4375 45.09375 
Q 46.96875 40.921875 40.578125 39.3125 
z
" id="DejaVuSans-51"/>
      </defs>
      <g style="fill:#262626;" transform="translate(281.068714 525.462156)rotate(-30)scale(0.11 -0.11)">
       <use xlink:href="#DejaVuSans-77"/>
       <use x="86.279297" xlink:href="#DejaVuSans-97"/>
       <use x="147.558594" xlink:href="#DejaVuSans-114"/>
       <use x="188.671875" xlink:href="#DejaVuSans-32"/>
       <use x="220.458984" xlink:href="#DejaVuSans-50"/>
       <use x="284.082031" xlink:href="#DejaVuSans-51"/>
      </g>
     </g>
    </g>
    <g id="xtick_5">
     <g id="line2d_5">
      <path clip-path="url(#p73e279a3c8)" d="M 381.288213 489.6 
L 381.288213 73.44 
" style="fill:none;stroke:#ffffff;stroke-linecap:round;"/>
     </g>
     <g id="text_5">
      <!-- Mar 30 -->
      <g style="fill:#262626;" transform="translate(347.021214 525.462156)rotate(-30)scale(0.11 -0.11)">
       <use xlink:href="#DejaVuSans-77"/>
       <use x="86.279297" xlink:href="#DejaVuSans-97"/>
       <use x="147.558594" xlink:href="#DejaVuSans-114"/>
       <use x="188.671875" xlink:href="#DejaVuSans-32"/>
       <use x="220.458984" xlink:href="#DejaVuSans-51"/>
       <use x="284.082031" xlink:href="#DejaVuSans-48"/>
      </g>
     </g>
    </g>
    <g id="xtick_6">
     <g id="line2d_6">
      <path clip-path="url(#p73e279a3c8)" d="M 447.240713 489.6 
L 447.240713 73.44 
" style="fill:none;stroke:#ffffff;stroke-linecap:round;"/>
     </g>
     <g id="text_6">
      <!-- Apr 06 -->
      <defs>
       <path d="M 34.1875 63.1875 
L 20.796875 26.90625 
L 47.609375 26.90625 
z
M 28.609375 72.90625 
L 39.796875 72.90625 
L 67.578125 0 
L 57.328125 0 
L 50.6875 18.703125 
L 17.828125 18.703125 
L 11.1875 0 
L 0.78125 0 
z
" id="DejaVuSans-65"/>
       <path d="M 18.109375 8.203125 
L 18.109375 -20.796875 
L 9.078125 -20.796875 
L 9.078125 54.6875 
L 18.109375 54.6875 
L 18.109375 46.390625 
Q 20.953125 51.265625 25.265625 53.625 
Q 29.59375 56 35.59375 56 
Q 45.5625 56 51.78125 48.09375 
Q 58.015625 40.1875 58.015625 27.296875 
Q 58.015625 14.40625 51.78125 6.484375 
Q 45.5625 -1.421875 35.59375 -1.421875 
Q 29.59375 -1.421875 25.265625 0.953125 
Q 20.953125 3.328125 18.109375 8.203125 
z
M 48.6875 27.296875 
Q 48.6875 37.203125 44.609375 42.84375 
Q 40.53125 48.484375 33.40625 48.484375 
Q 26.265625 48.484375 22.1875 42.84375 
Q 18.109375 37.203125 18.109375 27.296875 
Q 18.109375 17.390625 22.1875 11.75 
Q 26.265625 6.109375 33.40625 6.109375 
Q 40.53125 6.109375 44.609375 11.75 
Q 48.6875 17.390625 48.6875 27.296875 
z
" id="DejaVuSans-112"/>
      </defs>
      <g style="fill:#262626;" transform="translate(414.46666 524.600203)rotate(-30)scale(0.11 -0.11)">
       <use xlink:href="#DejaVuSans-65"/>
       <use x="68.408203" xlink:href="#DejaVuSans-112"/>
       <use x="131.884766" xlink:href="#DejaVuSans-114"/>
       <use x="172.998047" xlink:href="#DejaVuSans-32"/>
       <use x="204.785156" xlink:href="#DejaVuSans-48"/>
       <use x="268.408203" xlink:href="#DejaVuSans-54"/>
      </g>
     </g>
    </g>
    <g id="xtick_7">
     <g id="line2d_7">
      <path clip-path="url(#p73e279a3c8)" d="M 513.193213 489.6 
L 513.193213 73.44 
" style="fill:none;stroke:#ffffff;stroke-linecap:round;"/>
     </g>
     <g id="text_7">
      <!-- Apr 13 -->
      <g style="fill:#262626;" transform="translate(480.41916 524.600203)rotate(-30)scale(0.11 -0.11)">
       <use xlink:href="#DejaVuSans-65"/>
       <use x="68.408203" xlink:href="#DejaVuSans-112"/>
       <use x="131.884766" xlink:href="#DejaVuSans-114"/>
       <use x="172.998047" xlink:href="#DejaVuSans-32"/>
       <use x="204.785156" xlink:href="#DejaVuSans-49"/>
       <use x="268.408203" xlink:href="#DejaVuSans-51"/>
      </g>
     </g>
    </g>
    <g id="xtick_8">
     <g id="line2d_8">
      <path clip-path="url(#p73e279a3c8)" d="M 579.145713 489.6 
L 579.145713 73.44 
" style="fill:none;stroke:#ffffff;stroke-linecap:round;"/>
     </g>
     <g id="text_8">
      <!-- Apr 20 -->
      <g style="fill:#262626;" transform="translate(546.37166 524.600203)rotate(-30)scale(0.11 -0.11)">
       <use xlink:href="#DejaVuSans-65"/>
       <use x="68.408203" xlink:href="#DejaVuSans-112"/>
       <use x="131.884766" xlink:href="#DejaVuSans-114"/>
       <use x="172.998047" xlink:href="#DejaVuSans-32"/>
       <use x="204.785156" xlink:href="#DejaVuSans-50"/>
       <use x="268.408203" xlink:href="#DejaVuSans-48"/>
      </g>
     </g>
    </g>
    <g id="xtick_9">
     <g id="line2d_9">
      <path clip-path="url(#p73e279a3c8)" d="M 645.098212 489.6 
L 645.098212 73.44 
" style="fill:none;stroke:#ffffff;stroke-linecap:round;"/>
     </g>
     <g id="text_9">
      <!-- Apr 27 -->
      <defs>
       <path d="M 8.203125 72.90625 
L 55.078125 72.90625 
L 55.078125 68.703125 
L 28.609375 0 
L 18.3125 0 
L 43.21875 64.59375 
L 8.203125 64.59375 
z
" id="DejaVuSans-55"/>
      </defs>
      <g style="fill:#262626;" transform="translate(612.32416 524.600203)rotate(-30)scale(0.11 -0.11)">
       <use xlink:href="#DejaVuSans-65"/>
       <use x="68.408203" xlink:href="#DejaVuSans-112"/>
       <use x="131.884766" xlink:href="#DejaVuSans-114"/>
       <use x="172.998047" xlink:href="#DejaVuSans-32"/>
       <use x="204.785156" xlink:href="#DejaVuSans-50"/>
       <use x="268.408203" xlink:href="#DejaVuSans-55"/>
      </g>
     </g>
    </g>
    <g id="xtick_10">
     <g id="line2d_10">
      <path clip-path="url(#p73e279a3c8)" d="M 711.050712 489.6 
L 711.050712 73.44 
" style="fill:none;stroke:#ffffff;stroke-linecap:round;"/>
     </g>
     <g id="text_10">
      <!-- May 04 -->
      <defs>
       <path d="M 32.171875 -5.078125 
Q 28.375 -14.84375 24.75 -17.8125 
Q 21.140625 -20.796875 15.09375 -20.796875 
L 7.90625 -20.796875 
L 7.90625 -13.28125 
L 13.1875 -13.28125 
Q 16.890625 -13.28125 18.9375 -11.515625 
Q 21 -9.765625 23.484375 -3.21875 
L 25.09375 0.875 
L 2.984375 54.6875 
L 12.5 54.6875 
L 29.59375 11.921875 
L 46.6875 54.6875 
L 56.203125 54.6875 
z
" id="DejaVuSans-121"/>
       <path d="M 37.796875 64.3125 
L 12.890625 25.390625 
L 37.796875 25.390625 
z
M 35.203125 72.90625 
L 47.609375 72.90625 
L 47.609375 25.390625 
L 58.015625 25.390625 
L 58.015625 17.1875 
L 47.609375 17.1875 
L 47.609375 0 
L 37.796875 0 
L 37.796875 17.1875 
L 4.890625 17.1875 
L 4.890625 26.703125 
z
" id="DejaVuSans-52"/>
      </defs>
      <g style="fill:#262626;" transform="translate(675.06154 526.456453)rotate(-30)scale(0.11 -0.11)">
       <use xlink:href="#DejaVuSans-77"/>
       <use x="86.279297" xlink:href="#DejaVuSans-97"/>
       <use x="147.558594" xlink:href="#DejaVuSans-121"/>
       <use x="206.738281" xlink:href="#DejaVuSans-32"/>
       <use x="238.525391" xlink:href="#DejaVuSans-48"/>
       <use x="302.148438" xlink:href="#DejaVuSans-52"/>
      </g>
     </g>
    </g>
    <g id="text_11">
     <!-- Date -->
     <defs>
      <path d="M 19.671875 64.796875 
L 19.671875 8.109375 
L 31.59375 8.109375 
Q 46.6875 8.109375 53.6875 14.9375 
Q 60.6875 21.78125 60.6875 36.53125 
Q 60.6875 51.171875 53.6875 57.984375 
Q 46.6875 64.796875 31.59375 64.796875 
z
M 9.8125 72.90625 
L 30.078125 72.90625 
Q 51.265625 72.90625 61.171875 64.09375 
Q 71.09375 55.28125 71.09375 36.53125 
Q 71.09375 17.671875 61.125 8.828125 
Q 51.171875 0 30.078125 0 
L 9.8125 0 
z
" id="DejaVuSans-68"/>
      <path d="M 18.3125 70.21875 
L 18.3125 54.6875 
L 36.8125 54.6875 
L 36.8125 47.703125 
L 18.3125 47.703125 
L 18.3125 18.015625 
Q 18.3125 11.328125 20.140625 9.421875 
Q 21.96875 7.515625 27.59375 7.515625 
L 36.8125 7.515625 
L 36.8125 0 
L 27.59375 0 
Q 17.1875 0 13.234375 3.875 
Q 9.28125 7.765625 9.28125 18.015625 
L 9.28125 47.703125 
L 2.6875 47.703125 
L 2.6875 54.6875 
L 9.28125 54.6875 
L 9.28125 70.21875 
z
" id="DejaVuSans-116"/>
      <path d="M 56.203125 29.59375 
L 56.203125 25.203125 
L 14.890625 25.203125 
Q 15.484375 15.921875 20.484375 11.0625 
Q 25.484375 6.203125 34.421875 6.203125 
Q 39.59375 6.203125 44.453125 7.46875 
Q 49.3125 8.734375 54.109375 11.28125 
L 54.109375 2.78125 
Q 49.265625 0.734375 44.1875 -0.34375 
Q 39.109375 -1.421875 33.890625 -1.421875 
Q 20.796875 -1.421875 13.15625 6.1875 
Q 5.515625 13.8125 5.515625 26.8125 
Q 5.515625 40.234375 12.765625 48.109375 
Q 20.015625 56 32.328125 56 
Q 43.359375 56 49.78125 48.890625 
Q 56.203125 41.796875 56.203125 29.59375 
z
M 47.21875 32.234375 
Q 47.125 39.59375 43.09375 43.984375 
Q 39.0625 48.390625 32.421875 48.390625 
Q 24.90625 48.390625 20.390625 44.140625 
Q 15.875 39.890625 15.1875 32.171875 
z
" id="DejaVuSans-101"/>
     </defs>
     <g style="fill:#262626;" transform="translate(391.559063 549.555746)scale(0.12 -0.12)">
      <use xlink:href="#DejaVuSans-68"/>
      <use x="77.001953" xlink:href="#DejaVuSans-97"/>
      <use x="138.28125" xlink:href="#DejaVuSans-116"/>
      <use x="177.490234" xlink:href="#DejaVuSans-101"/>
     </g>
    </g>
   </g>
   <g id="matplotlib.axis_2">
    <g id="ytick_1">
     <g id="line2d_11">
      <path clip-path="url(#p73e279a3c8)" d="M 99 489.6 
L 712.8 489.6 
" style="fill:none;stroke:#ffffff;stroke-linecap:round;"/>
     </g>
     <g id="text_12">
      <!-- $\mathdefault{10^{0}}$ -->
      <g style="fill:#262626;" transform="translate(70.14 493.779141)scale(0.11 -0.11)">
       <use transform="translate(0 0.765625)" xlink:href="#DejaVuSans-49"/>
       <use transform="translate(63.623047 0.765625)" xlink:href="#DejaVuSans-48"/>
       <use transform="translate(128.203125 39.046875)scale(0.7)" xlink:href="#DejaVuSans-48"/>
      </g>
     </g>
    </g>
    <g id="ytick_2">
     <g id="line2d_12">
      <path clip-path="url(#p73e279a3c8)" d="M 99 406.384195 
L 712.8 406.384195 
" style="fill:none;stroke:#ffffff;stroke-linecap:round;"/>
     </g>
     <g id="text_13">
      <!-- $\mathdefault{10^{1}}$ -->
      <g style="fill:#262626;" transform="translate(70.14 410.563335)scale(0.11 -0.11)">
       <use transform="translate(0 0.684375)" xlink:href="#DejaVuSans-49"/>
       <use transform="translate(63.623047 0.684375)" xlink:href="#DejaVuSans-48"/>
       <use transform="translate(128.203125 38.965625)scale(0.7)" xlink:href="#DejaVuSans-49"/>
      </g>
     </g>
    </g>
    <g id="ytick_3">
     <g id="line2d_13">
      <path clip-path="url(#p73e279a3c8)" d="M 99 323.16839 
L 712.8 323.16839 
" style="fill:none;stroke:#ffffff;stroke-linecap:round;"/>
     </g>
     <g id="text_14">
      <!-- $\mathdefault{10^{2}}$ -->
      <g style="fill:#262626;" transform="translate(70.14 327.34753)scale(0.11 -0.11)">
       <use transform="translate(0 0.765625)" xlink:href="#DejaVuSans-49"/>
       <use transform="translate(63.623047 0.765625)" xlink:href="#DejaVuSans-48"/>
       <use transform="translate(128.203125 39.046875)scale(0.7)" xlink:href="#DejaVuSans-50"/>
      </g>
     </g>
    </g>
    <g id="ytick_4">
     <g id="line2d_14">
      <path clip-path="url(#p73e279a3c8)" d="M 99 239.952584 
L 712.8 239.952584 
" style="fill:none;stroke:#ffffff;stroke-linecap:round;"/>
     </g>
     <g id="text_15">
      <!-- $\mathdefault{10^{3}}$ -->
      <g style="fill:#262626;" transform="translate(70.14 244.131725)scale(0.11 -0.11)">
       <use transform="translate(0 0.765625)" xlink:href="#DejaVuSans-49"/>
       <use transform="translate(63.623047 0.765625)" xlink:href="#DejaVuSans-48"/>
       <use transform="translate(128.203125 39.046875)scale(0.7)" xlink:href="#DejaVuSans-51"/>
      </g>
     </g>
    </g>
    <g id="ytick_5">
     <g id="line2d_15">
      <path clip-path="url(#p73e279a3c8)" d="M 99 156.736779 
L 712.8 156.736779 
" style="fill:none;stroke:#ffffff;stroke-linecap:round;"/>
     </g>
     <g id="text_16">
      <!-- $\mathdefault{10^{4}}$ -->
      <g style="fill:#262626;" transform="translate(70.14 160.91592)scale(0.11 -0.11)">
       <use transform="translate(0 0.684375)" xlink:href="#DejaVuSans-49"/>
       <use transform="translate(63.623047 0.684375)" xlink:href="#DejaVuSans-48"/>
       <use transform="translate(128.203125 38.965625)scale(0.7)" xlink:href="#DejaVuSans-52"/>
      </g>
     </g>
    </g>
    <g id="ytick_6">
     <g id="line2d_16">
      <path clip-path="url(#p73e279a3c8)" d="M 99 73.520974 
L 712.8 73.520974 
" style="fill:none;stroke:#ffffff;stroke-linecap:round;"/>
     </g>
     <g id="text_17">
      <!-- $\mathdefault{10^{5}}$ -->
      <defs>
       <path d="M 10.796875 72.90625 
L 49.515625 72.90625 
L 49.515625 64.59375 
L 19.828125 64.59375 
L 19.828125 46.734375 
Q 21.96875 47.46875 24.109375 47.828125 
Q 26.265625 48.1875 28.421875 48.1875 
Q 40.625 48.1875 47.75 41.5 
Q 54.890625 34.8125 54.890625 23.390625 
Q 54.890625 11.625 47.5625 5.09375 
Q 40.234375 -1.421875 26.90625 -1.421875 
Q 22.3125 -1.421875 17.546875 -0.640625 
Q 12.796875 0.140625 7.71875 1.703125 
L 7.71875 11.625 
Q 12.109375 9.234375 16.796875 8.0625 
Q 21.484375 6.890625 26.703125 6.890625 
Q 35.15625 6.890625 40.078125 11.328125 
Q 45.015625 15.765625 45.015625 23.390625 
Q 45.015625 31 40.078125 35.4375 
Q 35.15625 39.890625 26.703125 39.890625 
Q 22.75 39.890625 18.8125 39.015625 
Q 14.890625 38.140625 10.796875 36.28125 
z
" id="DejaVuSans-53"/>
      </defs>
      <g style="fill:#262626;" transform="translate(70.14 77.700115)scale(0.11 -0.11)">
       <use transform="translate(0 0.684375)" xlink:href="#DejaVuSans-49"/>
       <use transform="translate(63.623047 0.684375)" xlink:href="#DejaVuSans-48"/>
       <use transform="translate(128.203125 38.965625)scale(0.7)" xlink:href="#DejaVuSans-53"/>
      </g>
     </g>
    </g>
    <g id="ytick_7">
     <g id="line2d_17">
      <path clip-path="url(#p73e279a3c8)" d="M 99 464.549547 
L 712.8 464.549547 
" style="fill:none;stroke:#ffffff;stroke-linecap:round;stroke-width:0.5;"/>
     </g>
    </g>
    <g id="ytick_8">
     <g id="line2d_18">
      <path clip-path="url(#p73e279a3c8)" d="M 99 449.895971 
L 712.8 449.895971 
" style="fill:none;stroke:#ffffff;stroke-linecap:round;stroke-width:0.5;"/>
     </g>
    </g>
    <g id="ytick_9">
     <g id="line2d_19">
      <path clip-path="url(#p73e279a3c8)" d="M 99 439.499093 
L 712.8 439.499093 
" style="fill:none;stroke:#ffffff;stroke-linecap:round;stroke-width:0.5;"/>
     </g>
    </g>
    <g id="ytick_10">
     <g id="line2d_20">
      <path clip-path="url(#p73e279a3c8)" d="M 99 431.434648 
L 712.8 431.434648 
" style="fill:none;stroke:#ffffff;stroke-linecap:round;stroke-width:0.5;"/>
     </g>
    </g>
    <g id="ytick_11">
     <g id="line2d_21">
      <path clip-path="url(#p73e279a3c8)" d="M 99 424.845517 
L 712.8 424.845517 
" style="fill:none;stroke:#ffffff;stroke-linecap:round;stroke-width:0.5;"/>
     </g>
    </g>
    <g id="ytick_12">
     <g id="line2d_22">
      <path clip-path="url(#p73e279a3c8)" d="M 99 419.274486 
L 712.8 419.274486 
" style="fill:none;stroke:#ffffff;stroke-linecap:round;stroke-width:0.5;"/>
     </g>
    </g>
    <g id="ytick_13">
     <g id="line2d_23">
      <path clip-path="url(#p73e279a3c8)" d="M 99 414.44864 
L 712.8 414.44864 
" style="fill:none;stroke:#ffffff;stroke-linecap:round;stroke-width:0.5;"/>
     </g>
    </g>
    <g id="ytick_14">
     <g id="line2d_24">
      <path clip-path="url(#p73e279a3c8)" d="M 99 410.191941 
L 712.8 410.191941 
" style="fill:none;stroke:#ffffff;stroke-linecap:round;stroke-width:0.5;"/>
     </g>
    </g>
    <g id="ytick_15">
     <g id="line2d_25">
      <path clip-path="url(#p73e279a3c8)" d="M 99 381.333741 
L 712.8 381.333741 
" style="fill:none;stroke:#ffffff;stroke-linecap:round;stroke-width:0.5;"/>
     </g>
    </g>
    <g id="ytick_16">
     <g id="line2d_26">
      <path clip-path="url(#p73e279a3c8)" d="M 99 366.680165 
L 712.8 366.680165 
" style="fill:none;stroke:#ffffff;stroke-linecap:round;stroke-width:0.5;"/>
     </g>
    </g>
    <g id="ytick_17">
     <g id="line2d_27">
      <path clip-path="url(#p73e279a3c8)" d="M 99 356.283288 
L 712.8 356.283288 
" style="fill:none;stroke:#ffffff;stroke-linecap:round;stroke-width:0.5;"/>
     </g>
    </g>
    <g id="ytick_18">
     <g id="line2d_28">
      <path clip-path="url(#p73e279a3c8)" d="M 99 348.218843 
L 712.8 348.218843 
" style="fill:none;stroke:#ffffff;stroke-linecap:round;stroke-width:0.5;"/>
     </g>
    </g>
    <g id="ytick_19">
     <g id="line2d_29">
      <path clip-path="url(#p73e279a3c8)" d="M 99 341.629712 
L 712.8 341.629712 
" style="fill:none;stroke:#ffffff;stroke-linecap:round;stroke-width:0.5;"/>
     </g>
    </g>
    <g id="ytick_20">
     <g id="line2d_30">
      <path clip-path="url(#p73e279a3c8)" d="M 99 336.058681 
L 712.8 336.058681 
" style="fill:none;stroke:#ffffff;stroke-linecap:round;stroke-width:0.5;"/>
     </g>
    </g>
    <g id="ytick_21">
     <g id="line2d_31">
      <path clip-path="url(#p73e279a3c8)" d="M 99 331.232834 
L 712.8 331.232834 
" style="fill:none;stroke:#ffffff;stroke-linecap:round;stroke-width:0.5;"/>
     </g>
    </g>
    <g id="ytick_22">
     <g id="line2d_32">
      <path clip-path="url(#p73e279a3c8)" d="M 99 326.976136 
L 712.8 326.976136 
" style="fill:none;stroke:#ffffff;stroke-linecap:round;stroke-width:0.5;"/>
     </g>
    </g>
    <g id="ytick_23">
     <g id="line2d_33">
      <path clip-path="url(#p73e279a3c8)" d="M 99 298.117936 
L 712.8 298.117936 
" style="fill:none;stroke:#ffffff;stroke-linecap:round;stroke-width:0.5;"/>
     </g>
    </g>
    <g id="ytick_24">
     <g id="line2d_34">
      <path clip-path="url(#p73e279a3c8)" d="M 99 283.46436 
L 712.8 283.46436 
" style="fill:none;stroke:#ffffff;stroke-linecap:round;stroke-width:0.5;"/>
     </g>
    </g>
    <g id="ytick_25">
     <g id="line2d_35">
      <path clip-path="url(#p73e279a3c8)" d="M 99 273.067483 
L 712.8 273.067483 
" style="fill:none;stroke:#ffffff;stroke-linecap:round;stroke-width:0.5;"/>
     </g>
    </g>
    <g id="ytick_26">
     <g id="line2d_36">
      <path clip-path="url(#p73e279a3c8)" d="M 99 265.003038 
L 712.8 265.003038 
" style="fill:none;stroke:#ffffff;stroke-linecap:round;stroke-width:0.5;"/>
     </g>
    </g>
    <g id="ytick_27">
     <g id="line2d_37">
      <path clip-path="url(#p73e279a3c8)" d="M 99 258.413907 
L 712.8 258.413907 
" style="fill:none;stroke:#ffffff;stroke-linecap:round;stroke-width:0.5;"/>
     </g>
    </g>
    <g id="ytick_28">
     <g id="line2d_38">
      <path clip-path="url(#p73e279a3c8)" d="M 99 252.842876 
L 712.8 252.842876 
" style="fill:none;stroke:#ffffff;stroke-linecap:round;stroke-width:0.5;"/>
     </g>
    </g>
    <g id="ytick_29">
     <g id="line2d_39">
      <path clip-path="url(#p73e279a3c8)" d="M 99 248.017029 
L 712.8 248.017029 
" style="fill:none;stroke:#ffffff;stroke-linecap:round;stroke-width:0.5;"/>
     </g>
    </g>
    <g id="ytick_30">
     <g id="line2d_40">
      <path clip-path="url(#p73e279a3c8)" d="M 99 243.760331 
L 712.8 243.760331 
" style="fill:none;stroke:#ffffff;stroke-linecap:round;stroke-width:0.5;"/>
     </g>
    </g>
    <g id="ytick_31">
     <g id="line2d_41">
      <path clip-path="url(#p73e279a3c8)" d="M 99 214.902131 
L 712.8 214.902131 
" style="fill:none;stroke:#ffffff;stroke-linecap:round;stroke-width:0.5;"/>
     </g>
    </g>
    <g id="ytick_32">
     <g id="line2d_42">
      <path clip-path="url(#p73e279a3c8)" d="M 99 200.248555 
L 712.8 200.248555 
" style="fill:none;stroke:#ffffff;stroke-linecap:round;stroke-width:0.5;"/>
     </g>
    </g>
    <g id="ytick_33">
     <g id="line2d_43">
      <path clip-path="url(#p73e279a3c8)" d="M 99 189.851677 
L 712.8 189.851677 
" style="fill:none;stroke:#ffffff;stroke-linecap:round;stroke-width:0.5;"/>
     </g>
    </g>
    <g id="ytick_34">
     <g id="line2d_44">
      <path clip-path="url(#p73e279a3c8)" d="M 99 181.787233 
L 712.8 181.787233 
" style="fill:none;stroke:#ffffff;stroke-linecap:round;stroke-width:0.5;"/>
     </g>
    </g>
    <g id="ytick_35">
     <g id="line2d_45">
      <path clip-path="url(#p73e279a3c8)" d="M 99 175.198101 
L 712.8 175.198101 
" style="fill:none;stroke:#ffffff;stroke-linecap:round;stroke-width:0.5;"/>
     </g>
    </g>
    <g id="ytick_36">
     <g id="line2d_46">
      <path clip-path="url(#p73e279a3c8)" d="M 99 169.62707 
L 712.8 169.62707 
" style="fill:none;stroke:#ffffff;stroke-linecap:round;stroke-width:0.5;"/>
     </g>
    </g>
    <g id="ytick_37">
     <g id="line2d_47">
      <path clip-path="url(#p73e279a3c8)" d="M 99 164.801224 
L 712.8 164.801224 
" style="fill:none;stroke:#ffffff;stroke-linecap:round;stroke-width:0.5;"/>
     </g>
    </g>
    <g id="ytick_38">
     <g id="line2d_48">
      <path clip-path="url(#p73e279a3c8)" d="M 99 160.544526 
L 712.8 160.544526 
" style="fill:none;stroke:#ffffff;stroke-linecap:round;stroke-width:0.5;"/>
     </g>
    </g>
    <g id="ytick_39">
     <g id="line2d_49">
      <path clip-path="url(#p73e279a3c8)" d="M 99 131.686326 
L 712.8 131.686326 
" style="fill:none;stroke:#ffffff;stroke-linecap:round;stroke-width:0.5;"/>
     </g>
    </g>
    <g id="ytick_40">
     <g id="line2d_50">
      <path clip-path="url(#p73e279a3c8)" d="M 99 117.03275 
L 712.8 117.03275 
" style="fill:none;stroke:#ffffff;stroke-linecap:round;stroke-width:0.5;"/>
     </g>
    </g>
    <g id="ytick_41">
     <g id="line2d_51">
      <path clip-path="url(#p73e279a3c8)" d="M 99 106.635872 
L 712.8 106.635872 
" style="fill:none;stroke:#ffffff;stroke-linecap:round;stroke-width:0.5;"/>
     </g>
    </g>
    <g id="ytick_42">
     <g id="line2d_52">
      <path clip-path="url(#p73e279a3c8)" d="M 99 98.571427 
L 712.8 98.571427 
" style="fill:none;stroke:#ffffff;stroke-linecap:round;stroke-width:0.5;"/>
     </g>
    </g>
    <g id="ytick_43">
     <g id="line2d_53">
      <path clip-path="url(#p73e279a3c8)" d="M 99 91.982296 
L 712.8 91.982296 
" style="fill:none;stroke:#ffffff;stroke-linecap:round;stroke-width:0.5;"/>
     </g>
    </g>
    <g id="ytick_44">
     <g id="line2d_54">
      <path clip-path="url(#p73e279a3c8)" d="M 99 86.411265 
L 712.8 86.411265 
" style="fill:none;stroke:#ffffff;stroke-linecap:round;stroke-width:0.5;"/>
     </g>
    </g>
    <g id="ytick_45">
     <g id="line2d_55">
      <path clip-path="url(#p73e279a3c8)" d="M 99 81.585419 
L 712.8 81.585419 
" style="fill:none;stroke:#ffffff;stroke-linecap:round;stroke-width:0.5;"/>
     </g>
    </g>
    <g id="ytick_46">
     <g id="line2d_56">
      <path clip-path="url(#p73e279a3c8)" d="M 99 77.32872 
L 712.8 77.32872 
" style="fill:none;stroke:#ffffff;stroke-linecap:round;stroke-width:0.5;"/>
     </g>
    </g>
    <g id="text_18">
     <!-- People -->
     <defs>
      <path d="M 19.671875 64.796875 
L 19.671875 37.40625 
L 32.078125 37.40625 
Q 38.96875 37.40625 42.71875 40.96875 
Q 46.484375 44.53125 46.484375 51.125 
Q 46.484375 57.671875 42.71875 61.234375 
Q 38.96875 64.796875 32.078125 64.796875 
z
M 9.8125 72.90625 
L 32.078125 72.90625 
Q 44.34375 72.90625 50.609375 67.359375 
Q 56.890625 61.8125 56.890625 51.125 
Q 56.890625 40.328125 50.609375 34.8125 
Q 44.34375 29.296875 32.078125 29.296875 
L 19.671875 29.296875 
L 19.671875 0 
L 9.8125 0 
z
" id="DejaVuSans-80"/>
      <path d="M 30.609375 48.390625 
Q 23.390625 48.390625 19.1875 42.75 
Q 14.984375 37.109375 14.984375 27.296875 
Q 14.984375 17.484375 19.15625 11.84375 
Q 23.34375 6.203125 30.609375 6.203125 
Q 37.796875 6.203125 41.984375 11.859375 
Q 46.1875 17.53125 46.1875 27.296875 
Q 46.1875 37.015625 41.984375 42.703125 
Q 37.796875 48.390625 30.609375 48.390625 
z
M 30.609375 56 
Q 42.328125 56 49.015625 48.375 
Q 55.71875 40.765625 55.71875 27.296875 
Q 55.71875 13.875 49.015625 6.21875 
Q 42.328125 -1.421875 30.609375 -1.421875 
Q 18.84375 -1.421875 12.171875 6.21875 
Q 5.515625 13.875 5.515625 27.296875 
Q 5.515625 40.765625 12.171875 48.375 
Q 18.84375 56 30.609375 56 
z
" id="DejaVuSans-111"/>
      <path d="M 9.421875 75.984375 
L 18.40625 75.984375 
L 18.40625 0 
L 9.421875 0 
z
" id="DejaVuSans-108"/>
     </defs>
     <g style="fill:#262626;" transform="translate(63.644375 301.665937)rotate(-90)scale(0.12 -0.12)">
      <use xlink:href="#DejaVuSans-80"/>
      <use x="60.255859" xlink:href="#DejaVuSans-101"/>
      <use x="121.779297" xlink:href="#DejaVuSans-111"/>
      <use x="182.960938" xlink:href="#DejaVuSans-112"/>
      <use x="246.4375" xlink:href="#DejaVuSans-108"/>
      <use x="274.220703" xlink:href="#DejaVuSans-101"/>
     </g>
    </g>
   </g>
   <g id="line2d_57">
    <defs>
     <path d="M 0 4 
C 1.060812 4 2.078319 3.578535 2.828427 2.828427 
C 3.578535 2.078319 4 1.060812 4 0 
C 4 -1.060812 3.578535 -2.078319 2.828427 -2.828427 
C 2.078319 -3.578535 1.060812 -4 0 -4 
C -1.060812 -4 -2.078319 -3.578535 -2.828427 -2.828427 
C -3.578535 -2.078319 -4 -1.060812 -4 0 
C -4 1.060812 -3.578535 2.078319 -2.828427 2.828427 
C -2.078319 3.578535 -1.060812 4 0 4 
z
" id="m536db5495a" style="stroke:#0173b2;"/>
    </defs>
    <g clip-path="url(#p73e279a3c8)">
     <use style="fill:#0173b2;stroke:#0173b2;" x="126.9" xlink:href="#m536db5495a" y="352.026589"/>
     <use style="fill:#0173b2;stroke:#0173b2;" x="136.321786" xlink:href="#m536db5495a" y="344.774317"/>
     <use style="fill:#0173b2;stroke:#0173b2;" x="145.743571" xlink:href="#m536db5495a" y="337.641715"/>
     <use style="fill:#0173b2;stroke:#0173b2;" x="155.165357" xlink:href="#m536db5495a" y="330.783882"/>
     <use style="fill:#0173b2;stroke:#0173b2;" x="164.587143" xlink:href="#m536db5495a" y="323.16839"/>
     <use style="fill:#0173b2;stroke:#0173b2;" x="174.008928" xlink:href="#m536db5495a" y="319.072672"/>
     <use style="fill:#0173b2;stroke:#0173b2;" x="183.430714" xlink:href="#m536db5495a" y="303.5687"/>
     <use style="fill:#0173b2;stroke:#0173b2;" x="192.8525" xlink:href="#m536db5495a" y="302.127021"/>
     <use style="fill:#0173b2;stroke:#0173b2;" x="202.274285" xlink:href="#m536db5495a" y="297.758329"/>
     <use style="fill:#0173b2;stroke:#0173b2;" x="211.696071" xlink:href="#m536db5495a" y="289.76552"/>
     <use style="fill:#0173b2;stroke:#0173b2;" x="221.117857" xlink:href="#m536db5495a" y="281.131927"/>
     <use style="fill:#0173b2;stroke:#0173b2;" x="230.539642" xlink:href="#m536db5495a" y="274.82625"/>
     <use style="fill:#0173b2;stroke:#0173b2;" x="239.961428" xlink:href="#m536db5495a" y="266.62925"/>
     <use style="fill:#0173b2;stroke:#0173b2;" x="249.383214" xlink:href="#m536db5495a" y="259.144036"/>
     <use style="fill:#0173b2;stroke:#0173b2;" x="258.805" xlink:href="#m536db5495a" y="251.227404"/>
     <use style="fill:#0173b2;stroke:#0173b2;" x="268.226785" xlink:href="#m536db5495a" y="244.04252"/>
     <use style="fill:#0173b2;stroke:#0173b2;" x="277.648571" xlink:href="#m536db5495a" y="237.60886"/>
     <use style="fill:#0173b2;stroke:#0173b2;" x="287.070357" xlink:href="#m536db5495a" y="230.946416"/>
     <use style="fill:#0173b2;stroke:#0173b2;" x="296.492142" xlink:href="#m536db5495a" y="224.254148"/>
     <use style="fill:#0173b2;stroke:#0173b2;" x="305.913928" xlink:href="#m536db5495a" y="217.700144"/>
     <use style="fill:#0173b2;stroke:#0173b2;" x="315.335714" xlink:href="#m536db5495a" y="210.806413"/>
     <use style="fill:#0173b2;stroke:#0173b2;" x="324.757499" xlink:href="#m536db5495a" y="204.813758"/>
     <use style="fill:#0173b2;stroke:#0173b2;" x="334.179285" xlink:href="#m536db5495a" y="198.108629"/>
     <use style="fill:#0173b2;stroke:#0173b2;" x="343.601071" xlink:href="#m536db5495a" y="189.3136"/>
     <use style="fill:#0173b2;stroke:#0173b2;" x="353.022856" xlink:href="#m536db5495a" y="182.414251"/>
     <use style="fill:#0173b2;stroke:#0173b2;" x="362.444642" xlink:href="#m536db5495a" y="177.9181"/>
     <use style="fill:#0173b2;stroke:#0173b2;" x="371.866428" xlink:href="#m536db5495a" y="173.630387"/>
     <use style="fill:#0173b2;stroke:#0173b2;" x="381.288213" xlink:href="#m536db5495a" y="167.516352"/>
     <use style="fill:#0173b2;stroke:#0173b2;" x="390.709999" xlink:href="#m536db5495a" y="162.263265"/>
     <use style="fill:#0173b2;stroke:#0173b2;" x="400.131785" xlink:href="#m536db5495a" y="157.407952"/>
     <use style="fill:#0173b2;stroke:#0173b2;" x="409.55357" xlink:href="#m536db5495a" y="152.673344"/>
     <use style="fill:#0173b2;stroke:#0173b2;" x="418.975356" xlink:href="#m536db5495a" y="148.473389"/>
     <use style="fill:#0173b2;stroke:#0173b2;" x="428.397142" xlink:href="#m536db5495a" y="145.107105"/>
     <use style="fill:#0173b2;stroke:#0173b2;" x="437.818927" xlink:href="#m536db5495a" y="141.900555"/>
     <use style="fill:#0173b2;stroke:#0173b2;" x="447.240713" xlink:href="#m536db5495a" y="139.114909"/>
     <use style="fill:#0173b2;stroke:#0173b2;" x="456.662499" xlink:href="#m536db5495a" y="136.42966"/>
     <use style="fill:#0173b2;stroke:#0173b2;" x="466.084284" xlink:href="#m536db5495a" y="133.458375"/>
     <use style="fill:#0173b2;stroke:#0173b2;" x="475.50607" xlink:href="#m536db5495a" y="131.342825"/>
     <use style="fill:#0173b2;stroke:#0173b2;" x="484.927856" xlink:href="#m536db5495a" y="129.298596"/>
     <use style="fill:#0173b2;stroke:#0173b2;" x="494.349642" xlink:href="#m536db5495a" y="127.556743"/>
     <use style="fill:#0173b2;stroke:#0173b2;" x="503.771427" xlink:href="#m536db5495a" y="126.131303"/>
    </g>
   </g>
   <g id="line2d_58">
    <defs>
     <path d="M 0 4 
C 1.060812 4 2.078319 3.578535 2.828427 2.828427 
C 3.578535 2.078319 4 1.060812 4 0 
C 4 -1.060812 3.578535 -2.078319 2.828427 -2.828427 
C 2.078319 -3.578535 1.060812 -4 0 -4 
C -1.060812 -4 -2.078319 -3.578535 -2.828427 -2.828427 
C -3.578535 -2.078319 -4 -1.060812 -4 0 
C -4 1.060812 -3.578535 2.078319 -2.828427 2.828427 
C -2.078319 3.578535 -1.060812 4 0 4 
z
" id="mecfe00e0b7" style="stroke:#d55e00;"/>
    </defs>
    <g clip-path="url(#p73e279a3c8)">
     <use style="fill:#d55e00;stroke:#d55e00;" x="131.388131" xlink:href="#mecfe00e0b7" y="44065"/>
     <use style="fill:#d55e00;stroke:#d55e00;" x="136.321786" xlink:href="#mecfe00e0b7" y="489.6"/>
     <use style="fill:#d55e00;stroke:#d55e00;" x="145.743571" xlink:href="#mecfe00e0b7" y="489.6"/>
     <use style="fill:#d55e00;stroke:#d55e00;" x="155.165357" xlink:href="#mecfe00e0b7" y="489.6"/>
     <use style="fill:#d55e00;stroke:#d55e00;" x="164.587143" xlink:href="#mecfe00e0b7" y="489.6"/>
     <use style="fill:#d55e00;stroke:#d55e00;" x="174.008928" xlink:href="#mecfe00e0b7" y="489.6"/>
     <use style="fill:#d55e00;stroke:#d55e00;" x="183.430714" xlink:href="#mecfe00e0b7" y="464.549547"/>
     <use style="fill:#d55e00;stroke:#d55e00;" x="192.8525" xlink:href="#mecfe00e0b7" y="449.895971"/>
     <use style="fill:#d55e00;stroke:#d55e00;" x="202.274285" xlink:href="#mecfe00e0b7" y="439.499093"/>
     <use style="fill:#d55e00;stroke:#d55e00;" x="211.696071" xlink:href="#mecfe00e0b7" y="439.499093"/>
     <use style="fill:#d55e00;stroke:#d55e00;" x="221.117857" xlink:href="#mecfe00e0b7" y="431.434648"/>
     <use style="fill:#d55e00;stroke:#d55e00;" x="230.539642" xlink:href="#mecfe00e0b7" y="431.434648"/>
     <use style="fill:#d55e00;stroke:#d55e00;" x="239.961428" xlink:href="#mecfe00e0b7" y="424.845517"/>
     <use style="fill:#d55e00;stroke:#d55e00;" x="249.383214" xlink:href="#mecfe00e0b7" y="402.939669"/>
     <use style="fill:#d55e00;stroke:#d55e00;" x="258.805" xlink:href="#mecfe00e0b7" y="394.224033"/>
     <use style="fill:#d55e00;stroke:#d55e00;" x="268.226785" xlink:href="#mecfe00e0b7" y="387.207202"/>
     <use style="fill:#d55e00;stroke:#d55e00;" x="277.648571" xlink:href="#mecfe00e0b7" y="383.187489"/>
     <use style="fill:#d55e00;stroke:#d55e00;" x="287.070357" xlink:href="#mecfe00e0b7" y="374.74461"/>
     <use style="fill:#d55e00;stroke:#d55e00;" x="296.492142" xlink:href="#mecfe00e0b7" y="369.173579"/>
     <use style="fill:#d55e00;stroke:#d55e00;" x="305.913928" xlink:href="#mecfe00e0b7" y="361.109134"/>
     <use style="fill:#d55e00;stroke:#d55e00;" x="315.335714" xlink:href="#mecfe00e0b7" y="357.198278"/>
     <use style="fill:#d55e00;stroke:#d55e00;" x="324.757499" xlink:href="#mecfe00e0b7" y="346.8014"/>
     <use style="fill:#d55e00;stroke:#d55e00;" x="334.179285" xlink:href="#mecfe00e0b7" y="337.641715"/>
     <use style="fill:#d55e00;stroke:#d55e00;" x="343.601071" xlink:href="#mecfe00e0b7" y="330.340439"/>
     <use style="fill:#d55e00;stroke:#d55e00;" x="353.022856" xlink:href="#mecfe00e0b7" y="322.452719"/>
     <use style="fill:#d55e00;stroke:#d55e00;" x="362.444642" xlink:href="#mecfe00e0b7" y="316.279338"/>
     <use style="fill:#d55e00;stroke:#d55e00;" x="371.866428" xlink:href="#mecfe00e0b7" y="313.686502"/>
     <use style="fill:#d55e00;stroke:#d55e00;" x="381.288213" xlink:href="#mecfe00e0b7" y="309.491634"/>
     <use style="fill:#d55e00;stroke:#d55e00;" x="390.709999" xlink:href="#mecfe00e0b7" y="301.328311"/>
     <use style="fill:#d55e00;stroke:#d55e00;" x="400.131785" xlink:href="#mecfe00e0b7" y="296.012088"/>
     <use style="fill:#d55e00;stroke:#d55e00;" x="409.55357" xlink:href="#mecfe00e0b7" y="290.489796"/>
     <use style="fill:#d55e00;stroke:#d55e00;" x="418.975356" xlink:href="#mecfe00e0b7" y="285.700547"/>
     <use style="fill:#d55e00;stroke:#d55e00;" x="428.397142" xlink:href="#mecfe00e0b7" y="280.794692"/>
     <use style="fill:#d55e00;stroke:#d55e00;" x="437.818927" xlink:href="#mecfe00e0b7" y="277.996735"/>
     <use style="fill:#d55e00;stroke:#d55e00;" x="447.240713" xlink:href="#mecfe00e0b7" y="274.355055"/>
     <use style="fill:#d55e00;stroke:#d55e00;" x="456.662499" xlink:href="#mecfe00e0b7" y="269.052525"/>
     <use style="fill:#d55e00;stroke:#d55e00;" x="466.084284" xlink:href="#mecfe00e0b7" y="264.571937"/>
     <use style="fill:#d55e00;stroke:#d55e00;" x="475.50607" xlink:href="#mecfe00e0b7" y="261.690171"/>
     <use style="fill:#d55e00;stroke:#d55e00;" x="484.927856" xlink:href="#mecfe00e0b7" y="258.777127"/>
     <use style="fill:#d55e00;stroke:#d55e00;" x="494.349642" xlink:href="#mecfe00e0b7" y="256.536073"/>
     <use style="fill:#d55e00;stroke:#d55e00;" x="503.771427" xlink:href="#mecfe00e0b7" y="254.103707"/>
    </g>
   </g>
   <g id="line2d_59">
    <path clip-path="url(#p73e279a3c8)" d="M 428.397142 143.508834 
L 437.818927 141.224666 
L 447.240713 138.940498 
L 456.662499 136.656331 
L 466.084284 134.372163 
L 475.50607 132.087995 
L 484.927856 129.803827 
L 494.349642 127.519659 
L 503.771427 125.235492 
" style="fill:none;stroke:#56b4e9;stroke-linecap:round;stroke-width:4;"/>
   </g>
   <g id="line2d_60">
    <path clip-path="url(#p73e279a3c8)" d="M 428.397142 279.723388 
L 437.818927 276.366009 
L 447.240713 273.008629 
L 456.662499 269.651249 
L 466.084284 266.293869 
L 475.50607 262.936489 
L 484.927856 259.579109 
L 494.349642 256.221729 
L 503.771427 252.864349 
" style="fill:none;stroke:#de8f05;stroke-linecap:round;stroke-width:4;"/>
   </g>
   <g id="line2d_61">
    <path clip-path="url(#p73e279a3c8)" d="M 503.771427 125.235492 
L 513.193213 122.951324 
L 522.614999 120.667156 
L 532.036784 118.382988 
L 541.45857 116.098821 
L 550.880356 113.814653 
L 560.302141 111.530485 
L 569.723927 109.246317 
L 579.145713 106.96215 
L 588.567498 104.677982 
L 597.989284 102.393814 
L 607.41107 100.109646 
L 616.832855 97.825478 
L 626.254641 95.541311 
L 635.676427 93.257143 
" style="fill:none;stroke:#56b4e9;stroke-dasharray:4,6.6;stroke-dashoffset:0;stroke-width:4;"/>
   </g>
   <g id="line2d_62">
    <path clip-path="url(#p73e279a3c8)" d="M 503.771427 252.864349 
L 513.193213 249.50697 
L 522.614999 246.14959 
L 532.036784 242.79221 
L 541.45857 239.43483 
L 550.880356 236.07745 
L 560.302141 232.72007 
L 569.723927 229.36269 
L 579.145713 226.005311 
L 588.567498 222.647931 
L 597.989284 219.290551 
L 607.41107 215.933171 
L 616.832855 212.575791 
L 626.254641 209.218411 
L 635.676427 205.861031 
" style="fill:none;stroke:#de8f05;stroke-dasharray:4,6.6;stroke-dashoffset:0;stroke-width:4;"/>
   </g>
   <g id="line2d_63">
    <path clip-path="url(#p73e279a3c8)" d="M 479.372042 128.835492 
L 528.170813 83.427492 
" style="fill:none;stroke:#ff0000;stroke-linecap:round;stroke-opacity:0;stroke-width:1.5;"/>
    <defs>
     <path d="M -8 0 
L 8 0 
M 0 8 
L 0 -8 
" id="m3ae1464ce1" style="stroke:#ff0000;stroke-opacity:0;"/>
    </defs>
    <g clip-path="url(#p73e279a3c8)">
     <use style="fill:#ff0000;fill-opacity:0;stroke:#ff0000;stroke-opacity:0;" x="479.372042" xlink:href="#m3ae1464ce1" y="128.835492"/>
     <use style="fill:#ff0000;fill-opacity:0;stroke:#ff0000;stroke-opacity:0;" x="528.170813" xlink:href="#m3ae1464ce1" y="83.427492"/>
    </g>
   </g>
   <g id="line2d_64">
    <path clip-path="url(#p73e279a3c8)" d="M 545.310865 125.278317 
L 594.136989 93.214317 
" style="fill:none;stroke:#ff0000;stroke-linecap:round;stroke-opacity:0;stroke-width:1.5;"/>
    <g clip-path="url(#p73e279a3c8)">
     <use style="fill:#ff0000;fill-opacity:0;stroke:#ff0000;stroke-opacity:0;" x="545.310865" xlink:href="#m3ae1464ce1" y="125.278317"/>
     <use style="fill:#ff0000;fill-opacity:0;stroke:#ff0000;stroke-opacity:0;" x="594.136989" xlink:href="#m3ae1464ce1" y="93.214317"/>
    </g>
   </g>
   <g id="line2d_65">
    <path clip-path="url(#p73e279a3c8)" d="M 611.263364 109.289143 
L 660.089489 77.225143 
" style="fill:none;stroke:#ff0000;stroke-linecap:round;stroke-opacity:0;stroke-width:1.5;"/>
    <g clip-path="url(#p73e279a3c8)">
     <use style="fill:#ff0000;fill-opacity:0;stroke:#ff0000;stroke-opacity:0;" x="611.263364" xlink:href="#m3ae1464ce1" y="109.289143"/>
     <use style="fill:#ff0000;fill-opacity:0;stroke:#ff0000;stroke-opacity:0;" x="660.089489" xlink:href="#m3ae1464ce1" y="77.225143"/>
    </g>
   </g>
   <g id="line2d_66">
    <path clip-path="url(#p73e279a3c8)" d="M 497.030333 256.464349 
L 546.680021 211.056349 
" style="fill:none;stroke:#ff0000;stroke-linecap:round;stroke-opacity:0;stroke-width:1.5;"/>
    <g clip-path="url(#p73e279a3c8)">
     <use style="fill:#ff0000;fill-opacity:0;stroke:#ff0000;stroke-opacity:0;" x="497.030333" xlink:href="#m3ae1464ce1" y="256.464349"/>
     <use style="fill:#ff0000;fill-opacity:0;stroke:#ff0000;stroke-opacity:0;" x="546.680021" xlink:href="#m3ae1464ce1" y="211.056349"/>
    </g>
   </g>
   <g id="line2d_67">
    <path clip-path="url(#p73e279a3c8)" d="M 566.147489 245.39469 
L 615.797177 213.33069 
" style="fill:none;stroke:#ff0000;stroke-linecap:round;stroke-opacity:0;stroke-width:1.5;"/>
    <g clip-path="url(#p73e279a3c8)">
     <use style="fill:#ff0000;fill-opacity:0;stroke:#ff0000;stroke-opacity:0;" x="566.147489" xlink:href="#m3ae1464ce1" y="245.39469"/>
     <use style="fill:#ff0000;fill-opacity:0;stroke:#ff0000;stroke-opacity:0;" x="615.797177" xlink:href="#m3ae1464ce1" y="213.33069"/>
    </g>
   </g>
   <g id="line2d_68">
    <path clip-path="url(#p73e279a3c8)" d="M 635.278978 221.893031 
L 684.9 189.829031 
" style="fill:none;stroke:#ff0000;stroke-linecap:round;stroke-opacity:0;stroke-width:1.5;"/>
    <g clip-path="url(#p73e279a3c8)">
     <use style="fill:#ff0000;fill-opacity:0;stroke:#ff0000;stroke-opacity:0;" x="635.278978" xlink:href="#m3ae1464ce1" y="221.893031"/>
     <use style="fill:#ff0000;fill-opacity:0;stroke:#ff0000;stroke-opacity:0;" x="684.9" xlink:href="#m3ae1464ce1" y="189.829031"/>
    </g>
   </g>
   <g id="patch_3">
    <path d="M 99 489.6 
L 99 73.44 
" style="fill:none;stroke:#ffffff;stroke-linecap:square;stroke-linejoin:miter;stroke-width:1.25;"/>
   </g>
   <g id="patch_4">
    <path d="M 712.8 489.6 
L 712.8 73.44 
" style="fill:none;stroke:#ffffff;stroke-linecap:square;stroke-linejoin:miter;stroke-width:1.25;"/>
   </g>
   <g id="patch_5">
    <path d="M 99 489.6 
L 712.8 489.6 
" style="fill:none;stroke:#ffffff;stroke-linecap:square;stroke-linejoin:miter;stroke-width:1.25;"/>
   </g>
   <g id="patch_6">
    <path d="M 99 73.44 
L 712.8 73.44 
" style="fill:none;stroke:#ffffff;stroke-linecap:square;stroke-linejoin:miter;stroke-width:1.25;"/>
   </g>
   <g id="text_19">
    <g id="patch_7">
     <path d="M 480.618927 128.835492 
L 526.923927 128.835492 
Q 530.523927 128.835492 530.523927 125.235492 
L 530.523927 86.746992 
Q 530.523927 83.146992 526.923927 83.146992 
L 480.618927 83.146992 
Q 477.018927 83.146992 477.018927 86.746992 
L 477.018927 125.235492 
Q 477.018927 128.835492 480.618927 128.835492 
z
" style="fill:none;opacity:0;"/>
    </g>
    <!-- 23,908 -->
    <defs>
     <path d="M 28.8125 13.8125 
L 60.890625 13.8125 
L 60.890625 0 
L 7.90625 0 
L 7.90625 13.8125 
L 34.515625 37.3125 
Q 38.09375 40.53125 39.796875 43.609375 
Q 41.5 46.6875 41.5 50 
Q 41.5 55.125 38.0625 58.25 
Q 34.625 61.375 28.90625 61.375 
Q 24.515625 61.375 19.28125 59.5 
Q 14.0625 57.625 8.109375 53.90625 
L 8.109375 69.921875 
Q 14.453125 72.015625 20.65625 73.109375 
Q 26.859375 74.21875 32.8125 74.21875 
Q 45.90625 74.21875 53.15625 68.453125 
Q 60.40625 62.703125 60.40625 52.390625 
Q 60.40625 46.4375 57.328125 41.28125 
Q 54.25 36.140625 44.390625 27.484375 
z
" id="DejaVuSans-Bold-50"/>
     <path d="M 46.578125 39.3125 
Q 53.953125 37.40625 57.78125 32.6875 
Q 61.625 27.984375 61.625 20.703125 
Q 61.625 9.859375 53.3125 4.21875 
Q 45.015625 -1.421875 29.109375 -1.421875 
Q 23.484375 -1.421875 17.84375 -0.515625 
Q 12.203125 0.390625 6.6875 2.203125 
L 6.6875 16.703125 
Q 11.96875 14.0625 17.15625 12.71875 
Q 22.359375 11.375 27.390625 11.375 
Q 34.859375 11.375 38.84375 13.953125 
Q 42.828125 16.546875 42.828125 21.390625 
Q 42.828125 26.375 38.75 28.9375 
Q 34.671875 31.5 26.703125 31.5 
L 19.1875 31.5 
L 19.1875 43.609375 
L 27.09375 43.609375 
Q 34.1875 43.609375 37.640625 45.828125 
Q 41.109375 48.046875 41.109375 52.59375 
Q 41.109375 56.78125 37.734375 59.078125 
Q 34.375 61.375 28.21875 61.375 
Q 23.6875 61.375 19.046875 60.34375 
Q 14.40625 59.328125 9.8125 57.328125 
L 9.8125 71.09375 
Q 15.375 72.65625 20.84375 73.4375 
Q 26.3125 74.21875 31.59375 74.21875 
Q 45.796875 74.21875 52.84375 69.546875 
Q 59.90625 64.890625 59.90625 55.515625 
Q 59.90625 49.125 56.53125 45.046875 
Q 53.171875 40.96875 46.578125 39.3125 
z
" id="DejaVuSans-Bold-51"/>
     <path d="M 10.203125 18.890625 
L 27.78125 18.890625 
L 27.78125 4 
L 15.71875 -14.203125 
L 5.328125 -14.203125 
L 10.203125 4 
z
" id="DejaVuSans-Bold-44"/>
     <path d="M 10.015625 1.609375 
L 10.015625 15.09375 
Q 14.5 12.984375 18.59375 11.9375 
Q 22.703125 10.890625 26.703125 10.890625 
Q 35.109375 10.890625 39.796875 15.546875 
Q 44.484375 20.21875 45.3125 29.390625 
Q 42 26.953125 38.234375 25.734375 
Q 34.46875 24.515625 30.078125 24.515625 
Q 18.890625 24.515625 12.03125 31.03125 
Q 5.171875 37.546875 5.171875 48.1875 
Q 5.171875 59.96875 12.8125 67.046875 
Q 20.453125 74.125 33.296875 74.125 
Q 47.5625 74.125 55.375 64.5 
Q 63.1875 54.890625 63.1875 37.3125 
Q 63.1875 19.234375 54.046875 8.90625 
Q 44.921875 -1.421875 29 -1.421875 
Q 23.875 -1.421875 19.1875 -0.65625 
Q 14.5 0.09375 10.015625 1.609375 
z
M 33.203125 36.71875 
Q 38.140625 36.71875 40.625 39.90625 
Q 43.109375 43.109375 43.109375 49.515625 
Q 43.109375 55.859375 40.625 59.078125 
Q 38.140625 62.3125 33.203125 62.3125 
Q 28.265625 62.3125 25.78125 59.078125 
Q 23.296875 55.859375 23.296875 49.515625 
Q 23.296875 43.109375 25.78125 39.90625 
Q 28.265625 36.71875 33.203125 36.71875 
z
" id="DejaVuSans-Bold-57"/>
     <path d="M 46 36.53125 
Q 46 50.203125 43.4375 55.78125 
Q 40.875 61.375 34.8125 61.375 
Q 28.765625 61.375 26.171875 55.78125 
Q 23.578125 50.203125 23.578125 36.53125 
Q 23.578125 22.703125 26.171875 17.03125 
Q 28.765625 11.375 34.8125 11.375 
Q 40.828125 11.375 43.40625 17.03125 
Q 46 22.703125 46 36.53125 
z
M 64.796875 36.375 
Q 64.796875 18.265625 56.984375 8.421875 
Q 49.171875 -1.421875 34.8125 -1.421875 
Q 20.40625 -1.421875 12.59375 8.421875 
Q 4.78125 18.265625 4.78125 36.375 
Q 4.78125 54.546875 12.59375 64.375 
Q 20.40625 74.21875 34.8125 74.21875 
Q 49.171875 74.21875 56.984375 64.375 
Q 64.796875 54.546875 64.796875 36.375 
z
" id="DejaVuSans-Bold-48"/>
     <path d="M 34.8125 32.625 
Q 29.546875 32.625 26.703125 29.734375 
Q 23.875 26.859375 23.875 21.484375 
Q 23.875 16.109375 26.703125 13.25 
Q 29.546875 10.40625 34.8125 10.40625 
Q 40.046875 10.40625 42.828125 13.25 
Q 45.609375 16.109375 45.609375 21.484375 
Q 45.609375 26.90625 42.828125 29.765625 
Q 40.046875 32.625 34.8125 32.625 
z
M 21.09375 38.8125 
Q 14.453125 40.828125 11.078125 44.96875 
Q 7.71875 49.125 7.71875 55.328125 
Q 7.71875 64.546875 14.59375 69.375 
Q 21.484375 74.21875 34.8125 74.21875 
Q 48.046875 74.21875 54.921875 69.40625 
Q 61.8125 64.59375 61.8125 55.328125 
Q 61.8125 49.125 58.421875 44.96875 
Q 55.03125 40.828125 48.390625 38.8125 
Q 55.8125 36.765625 59.59375 32.15625 
Q 63.375 27.546875 63.375 20.515625 
Q 63.375 9.671875 56.171875 4.125 
Q 48.96875 -1.421875 34.8125 -1.421875 
Q 20.609375 -1.421875 13.359375 4.125 
Q 6.109375 9.671875 6.109375 20.515625 
Q 6.109375 27.546875 9.890625 32.15625 
Q 13.671875 36.765625 21.09375 38.8125 
z
M 25.484375 53.421875 
Q 25.484375 49.078125 27.90625 46.734375 
Q 30.328125 44.390625 34.8125 44.390625 
Q 39.203125 44.390625 41.59375 46.734375 
Q 44 49.078125 44 53.421875 
Q 44 57.765625 41.59375 60.078125 
Q 39.203125 62.40625 34.8125 62.40625 
Q 30.328125 62.40625 27.90625 60.0625 
Q 25.484375 57.71875 25.484375 53.421875 
z
" id="DejaVuSans-Bold-56"/>
    </defs>
    <g style="fill:#262626;" transform="translate(480.618927 95.865117)scale(0.12 -0.12)">
     <use xlink:href="#DejaVuSans-Bold-50"/>
     <use x="69.580078" xlink:href="#DejaVuSans-Bold-51"/>
     <use x="139.160156" xlink:href="#DejaVuSans-Bold-44"/>
     <use x="177.148438" xlink:href="#DejaVuSans-Bold-57"/>
     <use x="246.728516" xlink:href="#DejaVuSans-Bold-48"/>
     <use x="316.308594" xlink:href="#DejaVuSans-Bold-56"/>
    </g>
    <!-- Apr 12 -->
    <defs>
     <path d="M 53.421875 13.28125 
L 24.03125 13.28125 
L 19.390625 0 
L 0.484375 0 
L 27.484375 72.90625 
L 49.90625 72.90625 
L 76.90625 0 
L 58.015625 0 
z
M 28.71875 26.8125 
L 48.6875 26.8125 
L 38.71875 55.8125 
z
" id="DejaVuSans-Bold-65"/>
     <path d="M 25.875 7.90625 
L 25.875 -20.796875 
L 8.40625 -20.796875 
L 8.40625 54.6875 
L 25.875 54.6875 
L 25.875 46.6875 
Q 29.5 51.46875 33.890625 53.734375 
Q 38.28125 56 44 56 
Q 54.109375 56 60.59375 47.96875 
Q 67.09375 39.9375 67.09375 27.296875 
Q 67.09375 14.65625 60.59375 6.609375 
Q 54.109375 -1.421875 44 -1.421875 
Q 38.28125 -1.421875 33.890625 0.84375 
Q 29.5 3.125 25.875 7.90625 
z
M 37.5 43.3125 
Q 31.890625 43.3125 28.875 39.1875 
Q 25.875 35.0625 25.875 27.296875 
Q 25.875 19.53125 28.875 15.40625 
Q 31.890625 11.28125 37.5 11.28125 
Q 43.109375 11.28125 46.0625 15.375 
Q 49.03125 19.484375 49.03125 27.296875 
Q 49.03125 35.109375 46.0625 39.203125 
Q 43.109375 43.3125 37.5 43.3125 
z
" id="DejaVuSans-Bold-112"/>
     <path d="M 49.03125 39.796875 
Q 46.734375 40.875 44.453125 41.375 
Q 42.1875 41.890625 39.890625 41.890625 
Q 33.15625 41.890625 29.515625 37.5625 
Q 25.875 33.25 25.875 25.203125 
L 25.875 0 
L 8.40625 0 
L 8.40625 54.6875 
L 25.875 54.6875 
L 25.875 45.703125 
Q 29.25 51.078125 33.609375 53.53125 
Q 37.984375 56 44.09375 56 
Q 44.96875 56 45.984375 55.921875 
Q 47.015625 55.859375 48.96875 55.609375 
z
" id="DejaVuSans-Bold-114"/>
     <path id="DejaVuSans-Bold-32"/>
     <path d="M 11.71875 12.984375 
L 28.328125 12.984375 
L 28.328125 60.109375 
L 11.28125 56.59375 
L 11.28125 69.390625 
L 28.21875 72.90625 
L 46.09375 72.90625 
L 46.09375 12.984375 
L 62.703125 12.984375 
L 62.703125 0 
L 11.71875 0 
z
" id="DejaVuSans-Bold-49"/>
    </defs>
    <g style="fill:#262626;" transform="translate(481.436427 109.302492)scale(0.12 -0.12)">
     <use xlink:href="#DejaVuSans-Bold-65"/>
     <use x="77.392578" xlink:href="#DejaVuSans-Bold-112"/>
     <use x="148.974609" xlink:href="#DejaVuSans-Bold-114"/>
     <use x="198.291016" xlink:href="#DejaVuSans-Bold-32"/>
     <use x="233.105469" xlink:href="#DejaVuSans-Bold-49"/>
     <use x="302.685547" xlink:href="#DejaVuSans-Bold-50"/>
    </g>
    <!--  -->
    <g style="fill:#262626;" transform="translate(503.771427 122.739867)scale(0.12 -0.12)"/>
   </g>
   <g id="text_20">
    <g id="patch_8">
     <path d="M 546.571427 125.37188 
L 592.876427 125.37188 
Q 596.476427 125.37188 596.476427 121.77188 
L 596.476427 96.720755 
Q 596.476427 93.120755 592.876427 93.120755 
L 546.571427 93.120755 
Q 542.971427 93.120755 542.971427 96.720755 
L 542.971427 121.77188 
Q 542.971427 125.37188 546.571427 125.37188 
z
" style="fill:#eaeaf2;opacity:0.65;"/>
    </g>
    <!-- 37,213 -->
    <defs>
     <path d="M 6.6875 72.90625 
L 61.625 72.90625 
L 61.625 62.3125 
L 33.203125 0 
L 14.890625 0 
L 41.796875 59.078125 
L 6.6875 59.078125 
z
" id="DejaVuSans-Bold-55"/>
    </defs>
    <g style="fill:#262626;" transform="translate(546.571427 105.83888)scale(0.12 -0.12)">
     <use xlink:href="#DejaVuSans-Bold-51"/>
     <use x="69.580078" xlink:href="#DejaVuSans-Bold-55"/>
     <use x="139.160156" xlink:href="#DejaVuSans-Bold-44"/>
     <use x="177.148438" xlink:href="#DejaVuSans-Bold-50"/>
     <use x="246.728516" xlink:href="#DejaVuSans-Bold-49"/>
     <use x="316.308594" xlink:href="#DejaVuSans-Bold-51"/>
    </g>
    <!-- Apr 19 -->
    <g style="fill:#262626;" transform="translate(547.388927 119.276255)scale(0.12 -0.12)">
     <use xlink:href="#DejaVuSans-Bold-65"/>
     <use x="77.392578" xlink:href="#DejaVuSans-Bold-112"/>
     <use x="148.974609" xlink:href="#DejaVuSans-Bold-114"/>
     <use x="198.291016" xlink:href="#DejaVuSans-Bold-32"/>
     <use x="233.105469" xlink:href="#DejaVuSans-Bold-49"/>
     <use x="302.685547" xlink:href="#DejaVuSans-Bold-57"/>
    </g>
   </g>
   <g id="text_21">
    <g id="patch_9">
     <path d="M 612.523927 109.382705 
L 658.828927 109.382705 
Q 662.428927 109.382705 662.428927 105.782705 
L 662.428927 80.73158 
Q 662.428927 77.13158 658.828927 77.13158 
L 612.523927 77.13158 
Q 608.923927 77.13158 608.923927 80.73158 
L 608.923927 105.782705 
Q 608.923927 109.382705 612.523927 109.382705 
z
" style="fill:#eaeaf2;opacity:0.65;"/>
    </g>
    <!-- 57,920 -->
    <defs>
     <path d="M 10.59375 72.90625 
L 57.328125 72.90625 
L 57.328125 59.078125 
L 25.59375 59.078125 
L 25.59375 47.796875 
Q 27.734375 48.390625 29.90625 48.703125 
Q 32.078125 49.03125 34.421875 49.03125 
Q 47.75 49.03125 55.171875 42.359375 
Q 62.59375 35.6875 62.59375 23.78125 
Q 62.59375 11.96875 54.515625 5.265625 
Q 46.4375 -1.421875 32.078125 -1.421875 
Q 25.875 -1.421875 19.796875 -0.21875 
Q 13.71875 0.984375 7.71875 3.421875 
L 7.71875 18.21875 
Q 13.671875 14.796875 19.015625 13.078125 
Q 24.359375 11.375 29.109375 11.375 
Q 35.9375 11.375 39.859375 14.71875 
Q 43.796875 18.0625 43.796875 23.78125 
Q 43.796875 29.546875 39.859375 32.859375 
Q 35.9375 36.1875 29.109375 36.1875 
Q 25.046875 36.1875 20.453125 35.125 
Q 15.875 34.078125 10.59375 31.890625 
z
" id="DejaVuSans-Bold-53"/>
    </defs>
    <g style="fill:#262626;" transform="translate(612.523927 89.849705)scale(0.12 -0.12)">
     <use xlink:href="#DejaVuSans-Bold-53"/>
     <use x="69.580078" xlink:href="#DejaVuSans-Bold-55"/>
     <use x="139.160156" xlink:href="#DejaVuSans-Bold-44"/>
     <use x="177.148438" xlink:href="#DejaVuSans-Bold-57"/>
     <use x="246.728516" xlink:href="#DejaVuSans-Bold-50"/>
     <use x="316.308594" xlink:href="#DejaVuSans-Bold-48"/>
    </g>
    <!-- Apr 26 -->
    <defs>
     <path d="M 36.1875 35.984375 
Q 31.25 35.984375 28.78125 32.78125 
Q 26.3125 29.59375 26.3125 23.1875 
Q 26.3125 16.796875 28.78125 13.59375 
Q 31.25 10.40625 36.1875 10.40625 
Q 41.15625 10.40625 43.625 13.59375 
Q 46.09375 16.796875 46.09375 23.1875 
Q 46.09375 29.59375 43.625 32.78125 
Q 41.15625 35.984375 36.1875 35.984375 
z
M 59.421875 71 
L 59.421875 57.515625 
Q 54.78125 59.71875 50.671875 60.765625 
Q 46.578125 61.8125 42.671875 61.8125 
Q 34.28125 61.8125 29.59375 57.140625 
Q 24.90625 52.484375 24.125 43.3125 
Q 27.34375 45.703125 31.09375 46.890625 
Q 34.859375 48.09375 39.3125 48.09375 
Q 50.484375 48.09375 57.34375 41.546875 
Q 64.203125 35.015625 64.203125 24.421875 
Q 64.203125 12.703125 56.53125 5.640625 
Q 48.875 -1.421875 35.984375 -1.421875 
Q 21.78125 -1.421875 13.984375 8.171875 
Q 6.203125 17.78125 6.203125 35.40625 
Q 6.203125 53.46875 15.3125 63.796875 
Q 24.421875 74.125 40.28125 74.125 
Q 45.3125 74.125 50.046875 73.34375 
Q 54.78125 72.5625 59.421875 71 
z
" id="DejaVuSans-Bold-54"/>
    </defs>
    <g style="fill:#262626;" transform="translate(613.341427 103.28708)scale(0.12 -0.12)">
     <use xlink:href="#DejaVuSans-Bold-65"/>
     <use x="77.392578" xlink:href="#DejaVuSans-Bold-112"/>
     <use x="148.974609" xlink:href="#DejaVuSans-Bold-114"/>
     <use x="198.291016" xlink:href="#DejaVuSans-Bold-32"/>
     <use x="233.105469" xlink:href="#DejaVuSans-Bold-50"/>
     <use x="302.685547" xlink:href="#DejaVuSans-Bold-54"/>
    </g>
   </g>
   <g id="text_22">
    <g id="patch_10">
     <path d="M 481.436427 256.464349 
L 526.106427 256.464349 
Q 529.706427 256.464349 529.706427 252.864349 
L 529.706427 214.375849 
Q 529.706427 210.775849 526.106427 210.775849 
L 481.436427 210.775849 
Q 477.836427 210.775849 477.836427 214.375849 
L 477.836427 252.864349 
Q 477.836427 256.464349 481.436427 256.464349 
z
" style="fill:none;opacity:0;"/>
    </g>
    <!-- 700 -->
    <g style="fill:#262626;" transform="translate(491.247365 223.493974)scale(0.12 -0.12)">
     <use xlink:href="#DejaVuSans-Bold-55"/>
     <use x="69.580078" xlink:href="#DejaVuSans-Bold-48"/>
     <use x="139.160156" xlink:href="#DejaVuSans-Bold-48"/>
    </g>
    <!-- Apr 12 -->
    <g style="fill:#262626;" transform="translate(481.436427 236.931349)scale(0.12 -0.12)">
     <use xlink:href="#DejaVuSans-Bold-65"/>
     <use x="77.392578" xlink:href="#DejaVuSans-Bold-112"/>
     <use x="148.974609" xlink:href="#DejaVuSans-Bold-114"/>
     <use x="198.291016" xlink:href="#DejaVuSans-Bold-32"/>
     <use x="233.105469" xlink:href="#DejaVuSans-Bold-49"/>
     <use x="302.685547" xlink:href="#DejaVuSans-Bold-50"/>
    </g>
    <!--  -->
    <g style="fill:#262626;" transform="translate(503.771427 250.368724)scale(0.12 -0.12)"/>
   </g>
   <g id="text_23">
    <g id="patch_11">
     <path d="M 547.388927 245.488253 
L 592.058927 245.488253 
Q 595.658927 245.488253 595.658927 241.888253 
L 595.658927 216.837128 
Q 595.658927 213.237128 592.058927 213.237128 
L 547.388927 213.237128 
Q 543.788927 213.237128 543.788927 216.837128 
L 543.788927 241.888253 
Q 543.788927 245.488253 547.388927 245.488253 
z
" style="fill:#eaeaf2;opacity:0.65;"/>
    </g>
    <!-- 1,340 -->
    <defs>
     <path d="M 36.8125 57.421875 
L 16.21875 26.90625 
L 36.8125 26.90625 
z
M 33.6875 72.90625 
L 54.59375 72.90625 
L 54.59375 26.90625 
L 64.984375 26.90625 
L 64.984375 13.28125 
L 54.59375 13.28125 
L 54.59375 0 
L 36.8125 0 
L 36.8125 13.28125 
L 4.5 13.28125 
L 4.5 29.390625 
z
" id="DejaVuSans-Bold-52"/>
    </defs>
    <g style="fill:#262626;" transform="translate(550.746114 225.955253)scale(0.12 -0.12)">
     <use xlink:href="#DejaVuSans-Bold-49"/>
     <use x="69.580078" xlink:href="#DejaVuSans-Bold-44"/>
     <use x="107.568359" xlink:href="#DejaVuSans-Bold-51"/>
     <use x="177.148438" xlink:href="#DejaVuSans-Bold-52"/>
     <use x="246.728516" xlink:href="#DejaVuSans-Bold-48"/>
    </g>
    <!-- Apr 19 -->
    <g style="fill:#262626;" transform="translate(547.388927 239.392628)scale(0.12 -0.12)">
     <use xlink:href="#DejaVuSans-Bold-65"/>
     <use x="77.392578" xlink:href="#DejaVuSans-Bold-112"/>
     <use x="148.974609" xlink:href="#DejaVuSans-Bold-114"/>
     <use x="198.291016" xlink:href="#DejaVuSans-Bold-32"/>
     <use x="233.105469" xlink:href="#DejaVuSans-Bold-49"/>
     <use x="302.685547" xlink:href="#DejaVuSans-Bold-57"/>
    </g>
   </g>
   <g id="text_24">
    <g id="patch_12">
     <path d="M 613.341427 221.986594 
L 658.011427 221.986594 
Q 661.611427 221.986594 661.611427 218.386594 
L 661.611427 193.335469 
Q 661.611427 189.735469 658.011427 189.735469 
L 613.341427 189.735469 
Q 609.741427 189.735469 609.741427 193.335469 
L 609.741427 218.386594 
Q 609.741427 221.986594 613.341427 221.986594 
z
" style="fill:#eaeaf2;opacity:0.65;"/>
    </g>
    <!-- 2,568 -->
    <g style="fill:#262626;" transform="translate(616.698614 202.453594)scale(0.12 -0.12)">
     <use xlink:href="#DejaVuSans-Bold-50"/>
     <use x="69.580078" xlink:href="#DejaVuSans-Bold-44"/>
     <use x="107.568359" xlink:href="#DejaVuSans-Bold-53"/>
     <use x="177.148438" xlink:href="#DejaVuSans-Bold-54"/>
     <use x="246.728516" xlink:href="#DejaVuSans-Bold-56"/>
    </g>
    <!-- Apr 26 -->
    <g style="fill:#262626;" transform="translate(613.341427 215.890969)scale(0.12 -0.12)">
     <use xlink:href="#DejaVuSans-Bold-65"/>
     <use x="77.392578" xlink:href="#DejaVuSans-Bold-112"/>
     <use x="148.974609" xlink:href="#DejaVuSans-Bold-114"/>
     <use x="198.291016" xlink:href="#DejaVuSans-Bold-32"/>
     <use x="233.105469" xlink:href="#DejaVuSans-Bold-50"/>
     <use x="302.685547" xlink:href="#DejaVuSans-Bold-54"/>
    </g>
   </g>
   <g id="text_25">
    <!-- US | California COVID-19 Cases as of April 13, 2020 UTC EOD, NY Times Data -->
    <defs>
     <path d="M 8.6875 72.90625 
L 18.609375 72.90625 
L 18.609375 28.609375 
Q 18.609375 16.890625 22.84375 11.734375 
Q 27.09375 6.59375 36.625 6.59375 
Q 46.09375 6.59375 50.34375 11.734375 
Q 54.59375 16.890625 54.59375 28.609375 
L 54.59375 72.90625 
L 64.5 72.90625 
L 64.5 27.390625 
Q 64.5 13.140625 57.4375 5.859375 
Q 50.390625 -1.421875 36.625 -1.421875 
Q 22.796875 -1.421875 15.734375 5.859375 
Q 8.6875 13.140625 8.6875 27.390625 
z
" id="DejaVuSans-85"/>
     <path d="M 53.515625 70.515625 
L 53.515625 60.890625 
Q 47.90625 63.578125 42.921875 64.890625 
Q 37.9375 66.21875 33.296875 66.21875 
Q 25.25 66.21875 20.875 63.09375 
Q 16.5 59.96875 16.5 54.203125 
Q 16.5 49.359375 19.40625 46.890625 
Q 22.3125 44.4375 30.421875 42.921875 
L 36.375 41.703125 
Q 47.40625 39.59375 52.65625 34.296875 
Q 57.90625 29 57.90625 20.125 
Q 57.90625 9.515625 50.796875 4.046875 
Q 43.703125 -1.421875 29.984375 -1.421875 
Q 24.8125 -1.421875 18.96875 -0.25 
Q 13.140625 0.921875 6.890625 3.21875 
L 6.890625 13.375 
Q 12.890625 10.015625 18.65625 8.296875 
Q 24.421875 6.59375 29.984375 6.59375 
Q 38.421875 6.59375 43.015625 9.90625 
Q 47.609375 13.234375 47.609375 19.390625 
Q 47.609375 24.75 44.3125 27.78125 
Q 41.015625 30.8125 33.5 32.328125 
L 27.484375 33.5 
Q 16.453125 35.6875 11.515625 40.375 
Q 6.59375 45.0625 6.59375 53.421875 
Q 6.59375 63.09375 13.40625 68.65625 
Q 20.21875 74.21875 32.171875 74.21875 
Q 37.3125 74.21875 42.625 73.28125 
Q 47.953125 72.359375 53.515625 70.515625 
z
" id="DejaVuSans-83"/>
     <path d="M 21 76.421875 
L 21 -23.578125 
L 12.703125 -23.578125 
L 12.703125 76.421875 
z
" id="DejaVuSans-124"/>
     <path d="M 64.40625 67.28125 
L 64.40625 56.890625 
Q 59.421875 61.53125 53.78125 63.8125 
Q 48.140625 66.109375 41.796875 66.109375 
Q 29.296875 66.109375 22.65625 58.46875 
Q 16.015625 50.828125 16.015625 36.375 
Q 16.015625 21.96875 22.65625 14.328125 
Q 29.296875 6.6875 41.796875 6.6875 
Q 48.140625 6.6875 53.78125 8.984375 
Q 59.421875 11.28125 64.40625 15.921875 
L 64.40625 5.609375 
Q 59.234375 2.09375 53.4375 0.328125 
Q 47.65625 -1.421875 41.21875 -1.421875 
Q 24.65625 -1.421875 15.125 8.703125 
Q 5.609375 18.84375 5.609375 36.375 
Q 5.609375 53.953125 15.125 64.078125 
Q 24.65625 74.21875 41.21875 74.21875 
Q 47.75 74.21875 53.53125 72.484375 
Q 59.328125 70.75 64.40625 67.28125 
z
" id="DejaVuSans-67"/>
     <path d="M 9.421875 54.6875 
L 18.40625 54.6875 
L 18.40625 0 
L 9.421875 0 
z
M 9.421875 75.984375 
L 18.40625 75.984375 
L 18.40625 64.59375 
L 9.421875 64.59375 
z
" id="DejaVuSans-105"/>
     <path d="M 37.109375 75.984375 
L 37.109375 68.5 
L 28.515625 68.5 
Q 23.6875 68.5 21.796875 66.546875 
Q 19.921875 64.59375 19.921875 59.515625 
L 19.921875 54.6875 
L 34.71875 54.6875 
L 34.71875 47.703125 
L 19.921875 47.703125 
L 19.921875 0 
L 10.890625 0 
L 10.890625 47.703125 
L 2.296875 47.703125 
L 2.296875 54.6875 
L 10.890625 54.6875 
L 10.890625 58.5 
Q 10.890625 67.625 15.140625 71.796875 
Q 19.390625 75.984375 28.609375 75.984375 
z
" id="DejaVuSans-102"/>
     <path d="M 54.890625 33.015625 
L 54.890625 0 
L 45.90625 0 
L 45.90625 32.71875 
Q 45.90625 40.484375 42.875 44.328125 
Q 39.84375 48.1875 33.796875 48.1875 
Q 26.515625 48.1875 22.3125 43.546875 
Q 18.109375 38.921875 18.109375 30.90625 
L 18.109375 0 
L 9.078125 0 
L 9.078125 54.6875 
L 18.109375 54.6875 
L 18.109375 46.1875 
Q 21.34375 51.125 25.703125 53.5625 
Q 30.078125 56 35.796875 56 
Q 45.21875 56 50.046875 50.171875 
Q 54.890625 44.34375 54.890625 33.015625 
z
" id="DejaVuSans-110"/>
     <path d="M 39.40625 66.21875 
Q 28.65625 66.21875 22.328125 58.203125 
Q 16.015625 50.203125 16.015625 36.375 
Q 16.015625 22.609375 22.328125 14.59375 
Q 28.65625 6.59375 39.40625 6.59375 
Q 50.140625 6.59375 56.421875 14.59375 
Q 62.703125 22.609375 62.703125 36.375 
Q 62.703125 50.203125 56.421875 58.203125 
Q 50.140625 66.21875 39.40625 66.21875 
z
M 39.40625 74.21875 
Q 54.734375 74.21875 63.90625 63.9375 
Q 73.09375 53.65625 73.09375 36.375 
Q 73.09375 19.140625 63.90625 8.859375 
Q 54.734375 -1.421875 39.40625 -1.421875 
Q 24.03125 -1.421875 14.8125 8.828125 
Q 5.609375 19.09375 5.609375 36.375 
Q 5.609375 53.65625 14.8125 63.9375 
Q 24.03125 74.21875 39.40625 74.21875 
z
" id="DejaVuSans-79"/>
     <path d="M 28.609375 0 
L 0.78125 72.90625 
L 11.078125 72.90625 
L 34.1875 11.53125 
L 57.328125 72.90625 
L 67.578125 72.90625 
L 39.796875 0 
z
" id="DejaVuSans-86"/>
     <path d="M 9.8125 72.90625 
L 19.671875 72.90625 
L 19.671875 0 
L 9.8125 0 
z
" id="DejaVuSans-73"/>
     <path d="M 4.890625 31.390625 
L 31.203125 31.390625 
L 31.203125 23.390625 
L 4.890625 23.390625 
z
" id="DejaVuSans-45"/>
     <path d="M 44.28125 53.078125 
L 44.28125 44.578125 
Q 40.484375 46.53125 36.375 47.5 
Q 32.28125 48.484375 27.875 48.484375 
Q 21.1875 48.484375 17.84375 46.4375 
Q 14.5 44.390625 14.5 40.28125 
Q 14.5 37.15625 16.890625 35.375 
Q 19.28125 33.59375 26.515625 31.984375 
L 29.59375 31.296875 
Q 39.15625 29.25 43.1875 25.515625 
Q 47.21875 21.78125 47.21875 15.09375 
Q 47.21875 7.46875 41.1875 3.015625 
Q 35.15625 -1.421875 24.609375 -1.421875 
Q 20.21875 -1.421875 15.453125 -0.5625 
Q 10.6875 0.296875 5.421875 2 
L 5.421875 11.28125 
Q 10.40625 8.6875 15.234375 7.390625 
Q 20.0625 6.109375 24.8125 6.109375 
Q 31.15625 6.109375 34.5625 8.28125 
Q 37.984375 10.453125 37.984375 14.40625 
Q 37.984375 18.0625 35.515625 20.015625 
Q 33.0625 21.96875 24.703125 23.78125 
L 21.578125 24.515625 
Q 13.234375 26.265625 9.515625 29.90625 
Q 5.8125 33.546875 5.8125 39.890625 
Q 5.8125 47.609375 11.28125 51.796875 
Q 16.75 56 26.8125 56 
Q 31.78125 56 36.171875 55.265625 
Q 40.578125 54.546875 44.28125 53.078125 
z
" id="DejaVuSans-115"/>
     <path d="M 11.71875 12.40625 
L 22.015625 12.40625 
L 22.015625 4 
L 14.015625 -11.625 
L 7.71875 -11.625 
L 11.71875 4 
z
" id="DejaVuSans-44"/>
     <path d="M -0.296875 72.90625 
L 61.375 72.90625 
L 61.375 64.59375 
L 35.5 64.59375 
L 35.5 0 
L 25.59375 0 
L 25.59375 64.59375 
L -0.296875 64.59375 
z
" id="DejaVuSans-84"/>
     <path d="M 9.8125 72.90625 
L 55.90625 72.90625 
L 55.90625 64.59375 
L 19.671875 64.59375 
L 19.671875 43.015625 
L 54.390625 43.015625 
L 54.390625 34.71875 
L 19.671875 34.71875 
L 19.671875 8.296875 
L 56.78125 8.296875 
L 56.78125 0 
L 9.8125 0 
z
" id="DejaVuSans-69"/>
     <path d="M 9.8125 72.90625 
L 23.09375 72.90625 
L 55.421875 11.921875 
L 55.421875 72.90625 
L 64.984375 72.90625 
L 64.984375 0 
L 51.703125 0 
L 19.390625 60.984375 
L 19.390625 0 
L 9.8125 0 
z
" id="DejaVuSans-78"/>
     <path d="M -0.203125 72.90625 
L 10.40625 72.90625 
L 30.609375 42.921875 
L 50.6875 72.90625 
L 61.28125 72.90625 
L 35.5 34.71875 
L 35.5 0 
L 25.59375 0 
L 25.59375 34.71875 
z
" id="DejaVuSans-89"/>
     <path d="M 52 44.1875 
Q 55.375 50.25 60.0625 53.125 
Q 64.75 56 71.09375 56 
Q 79.640625 56 84.28125 50.015625 
Q 88.921875 44.046875 88.921875 33.015625 
L 88.921875 0 
L 79.890625 0 
L 79.890625 32.71875 
Q 79.890625 40.578125 77.09375 44.375 
Q 74.3125 48.1875 68.609375 48.1875 
Q 61.625 48.1875 57.5625 43.546875 
Q 53.515625 38.921875 53.515625 30.90625 
L 53.515625 0 
L 44.484375 0 
L 44.484375 32.71875 
Q 44.484375 40.625 41.703125 44.40625 
Q 38.921875 48.1875 33.109375 48.1875 
Q 26.21875 48.1875 22.15625 43.53125 
Q 18.109375 38.875 18.109375 30.90625 
L 18.109375 0 
L 9.078125 0 
L 9.078125 54.6875 
L 18.109375 54.6875 
L 18.109375 46.1875 
Q 21.1875 51.21875 25.484375 53.609375 
Q 29.78125 56 35.6875 56 
Q 41.65625 56 45.828125 52.96875 
Q 50 49.953125 52 44.1875 
z
" id="DejaVuSans-109"/>
    </defs>
    <g style="fill:#262626;" transform="translate(174.507188 67.44)scale(0.12 -0.12)">
     <use xlink:href="#DejaVuSans-85"/>
     <use x="73.193359" xlink:href="#DejaVuSans-83"/>
     <use x="136.669922" xlink:href="#DejaVuSans-32"/>
     <use x="168.457031" xlink:href="#DejaVuSans-124"/>
     <use x="202.148438" xlink:href="#DejaVuSans-32"/>
     <use x="233.935547" xlink:href="#DejaVuSans-67"/>
     <use x="303.759766" xlink:href="#DejaVuSans-97"/>
     <use x="365.039062" xlink:href="#DejaVuSans-108"/>
     <use x="392.822266" xlink:href="#DejaVuSans-105"/>
     <use x="420.605469" xlink:href="#DejaVuSans-102"/>
     <use x="455.810547" xlink:href="#DejaVuSans-111"/>
     <use x="516.992188" xlink:href="#DejaVuSans-114"/>
     <use x="558.089844" xlink:href="#DejaVuSans-110"/>
     <use x="621.46875" xlink:href="#DejaVuSans-105"/>
     <use x="649.251953" xlink:href="#DejaVuSans-97"/>
     <use x="710.53125" xlink:href="#DejaVuSans-32"/>
     <use x="742.318359" xlink:href="#DejaVuSans-67"/>
     <use x="812.142578" xlink:href="#DejaVuSans-79"/>
     <use x="890.837891" xlink:href="#DejaVuSans-86"/>
     <use x="959.246094" xlink:href="#DejaVuSans-73"/>
     <use x="988.738281" xlink:href="#DejaVuSans-68"/>
     <use x="1065.740234" xlink:href="#DejaVuSans-45"/>
     <use x="1101.824219" xlink:href="#DejaVuSans-49"/>
     <use x="1165.447266" xlink:href="#DejaVuSans-57"/>
     <use x="1229.070312" xlink:href="#DejaVuSans-32"/>
     <use x="1260.857422" xlink:href="#DejaVuSans-67"/>
     <use x="1330.681641" xlink:href="#DejaVuSans-97"/>
     <use x="1391.960938" xlink:href="#DejaVuSans-115"/>
     <use x="1444.060547" xlink:href="#DejaVuSans-101"/>
     <use x="1505.583984" xlink:href="#DejaVuSans-115"/>
     <use x="1557.683594" xlink:href="#DejaVuSans-32"/>
     <use x="1589.470703" xlink:href="#DejaVuSans-97"/>
     <use x="1650.75" xlink:href="#DejaVuSans-115"/>
     <use x="1702.849609" xlink:href="#DejaVuSans-32"/>
     <use x="1734.636719" xlink:href="#DejaVuSans-111"/>
     <use x="1795.818359" xlink:href="#DejaVuSans-102"/>
     <use x="1831.023438" xlink:href="#DejaVuSans-32"/>
     <use x="1862.810547" xlink:href="#DejaVuSans-65"/>
     <use x="1931.21875" xlink:href="#DejaVuSans-112"/>
     <use x="1994.695312" xlink:href="#DejaVuSans-114"/>
     <use x="2035.808594" xlink:href="#DejaVuSans-105"/>
     <use x="2063.591797" xlink:href="#DejaVuSans-108"/>
     <use x="2091.375" xlink:href="#DejaVuSans-32"/>
     <use x="2123.162109" xlink:href="#DejaVuSans-49"/>
     <use x="2186.785156" xlink:href="#DejaVuSans-51"/>
     <use x="2250.408203" xlink:href="#DejaVuSans-44"/>
     <use x="2282.195312" xlink:href="#DejaVuSans-32"/>
     <use x="2313.982422" xlink:href="#DejaVuSans-50"/>
     <use x="2377.605469" xlink:href="#DejaVuSans-48"/>
     <use x="2441.228516" xlink:href="#DejaVuSans-50"/>
     <use x="2504.851562" xlink:href="#DejaVuSans-48"/>
     <use x="2568.474609" xlink:href="#DejaVuSans-32"/>
     <use x="2600.261719" xlink:href="#DejaVuSans-85"/>
     <use x="2673.455078" xlink:href="#DejaVuSans-84"/>
     <use x="2734.460938" xlink:href="#DejaVuSans-67"/>
     <use x="2804.285156" xlink:href="#DejaVuSans-32"/>
     <use x="2836.072266" xlink:href="#DejaVuSans-69"/>
     <use x="2899.255859" xlink:href="#DejaVuSans-79"/>
     <use x="2977.966797" xlink:href="#DejaVuSans-68"/>
     <use x="3054.96875" xlink:href="#DejaVuSans-44"/>
     <use x="3086.755859" xlink:href="#DejaVuSans-32"/>
     <use x="3118.542969" xlink:href="#DejaVuSans-78"/>
     <use x="3193.347656" xlink:href="#DejaVuSans-89"/>
     <use x="3254.431641" xlink:href="#DejaVuSans-32"/>
     <use x="3286.21875" xlink:href="#DejaVuSans-84"/>
     <use x="3347.255859" xlink:href="#DejaVuSans-105"/>
     <use x="3375.039062" xlink:href="#DejaVuSans-109"/>
     <use x="3472.451172" xlink:href="#DejaVuSans-101"/>
     <use x="3533.974609" xlink:href="#DejaVuSans-115"/>
     <use x="3586.074219" xlink:href="#DejaVuSans-32"/>
     <use x="3617.861328" xlink:href="#DejaVuSans-68"/>
     <use x="3694.863281" xlink:href="#DejaVuSans-97"/>
     <use x="3756.142578" xlink:href="#DejaVuSans-116"/>
     <use x="3795.351562" xlink:href="#DejaVuSans-97"/>
    </g>
   </g>
  </g>
  <g id="legend_1">
   <g id="line2d_69"/>
   <g id="line2d_70">
    <g>
     <use style="fill:#0173b2;stroke:#0173b2;" x="119.9" xlink:href="#m536db5495a" y="87.85"/>
    </g>
   </g>
   <g id="text_26">
    <!-- Confirmed -->
    <defs>
     <path d="M 67 4 
Q 61.8125 1.3125 56.203125 -0.046875 
Q 50.59375 -1.421875 44.484375 -1.421875 
Q 26.265625 -1.421875 15.625 8.765625 
Q 4.984375 18.953125 4.984375 36.375 
Q 4.984375 53.859375 15.625 64.03125 
Q 26.265625 74.21875 44.484375 74.21875 
Q 50.59375 74.21875 56.203125 72.84375 
Q 61.8125 71.484375 67 68.796875 
L 67 53.71875 
Q 61.765625 57.28125 56.6875 58.9375 
Q 51.609375 60.59375 46 60.59375 
Q 35.9375 60.59375 30.171875 54.140625 
Q 24.421875 47.703125 24.421875 36.375 
Q 24.421875 25.09375 30.171875 18.640625 
Q 35.9375 12.203125 46 12.203125 
Q 51.609375 12.203125 56.6875 13.859375 
Q 61.765625 15.53125 67 19.09375 
z
" id="DejaVuSans-Bold-67"/>
     <path d="M 34.421875 43.5 
Q 28.609375 43.5 25.5625 39.328125 
Q 22.515625 35.15625 22.515625 27.296875 
Q 22.515625 19.4375 25.5625 15.25 
Q 28.609375 11.078125 34.421875 11.078125 
Q 40.140625 11.078125 43.15625 15.25 
Q 46.1875 19.4375 46.1875 27.296875 
Q 46.1875 35.15625 43.15625 39.328125 
Q 40.140625 43.5 34.421875 43.5 
z
M 34.421875 56 
Q 48.53125 56 56.46875 48.375 
Q 64.40625 40.765625 64.40625 27.296875 
Q 64.40625 13.8125 56.46875 6.1875 
Q 48.53125 -1.421875 34.421875 -1.421875 
Q 20.265625 -1.421875 12.28125 6.1875 
Q 4.296875 13.8125 4.296875 27.296875 
Q 4.296875 40.765625 12.28125 48.375 
Q 20.265625 56 34.421875 56 
z
" id="DejaVuSans-Bold-111"/>
     <path d="M 63.375 33.296875 
L 63.375 0 
L 45.796875 0 
L 45.796875 5.421875 
L 45.796875 25.484375 
Q 45.796875 32.5625 45.484375 35.25 
Q 45.171875 37.9375 44.390625 39.203125 
Q 43.359375 40.921875 41.59375 41.875 
Q 39.84375 42.828125 37.59375 42.828125 
Q 32.125 42.828125 29 38.59375 
Q 25.875 34.375 25.875 26.90625 
L 25.875 0 
L 8.40625 0 
L 8.40625 54.6875 
L 25.875 54.6875 
L 25.875 46.6875 
Q 29.828125 51.46875 34.265625 53.734375 
Q 38.71875 56 44.09375 56 
Q 53.5625 56 58.46875 50.1875 
Q 63.375 44.390625 63.375 33.296875 
z
" id="DejaVuSans-Bold-110"/>
     <path d="M 44.390625 75.984375 
L 44.390625 64.5 
L 34.71875 64.5 
Q 31 64.5 29.53125 63.15625 
Q 28.078125 61.8125 28.078125 58.5 
L 28.078125 54.6875 
L 43.015625 54.6875 
L 43.015625 42.1875 
L 28.078125 42.1875 
L 28.078125 0 
L 10.59375 0 
L 10.59375 42.1875 
L 1.90625 42.1875 
L 1.90625 54.6875 
L 10.59375 54.6875 
L 10.59375 58.5 
Q 10.59375 67.4375 15.578125 71.703125 
Q 20.5625 75.984375 31 75.984375 
z
" id="DejaVuSans-Bold-102"/>
     <path d="M 8.40625 54.6875 
L 25.875 54.6875 
L 25.875 0 
L 8.40625 0 
z
M 8.40625 75.984375 
L 25.875 75.984375 
L 25.875 61.71875 
L 8.40625 61.71875 
z
" id="DejaVuSans-Bold-105"/>
     <path d="M 59.078125 45.609375 
Q 62.40625 50.6875 66.96875 53.34375 
Q 71.53125 56 77 56 
Q 86.421875 56 91.359375 50.1875 
Q 96.296875 44.390625 96.296875 33.296875 
L 96.296875 0 
L 78.71875 0 
L 78.71875 28.515625 
Q 78.765625 29.15625 78.78125 29.828125 
Q 78.8125 30.515625 78.8125 31.78125 
Q 78.8125 37.59375 77.09375 40.203125 
Q 75.390625 42.828125 71.578125 42.828125 
Q 66.609375 42.828125 63.890625 38.71875 
Q 61.1875 34.625 61.078125 26.859375 
L 61.078125 0 
L 43.5 0 
L 43.5 28.515625 
Q 43.5 37.59375 41.9375 40.203125 
Q 40.375 42.828125 36.375 42.828125 
Q 31.34375 42.828125 28.609375 38.703125 
Q 25.875 34.578125 25.875 26.90625 
L 25.875 0 
L 8.296875 0 
L 8.296875 54.6875 
L 25.875 54.6875 
L 25.875 46.6875 
Q 29.109375 51.3125 33.28125 53.65625 
Q 37.453125 56 42.484375 56 
Q 48.140625 56 52.484375 53.265625 
Q 56.84375 50.53125 59.078125 45.609375 
z
" id="DejaVuSans-Bold-109"/>
     <path d="M 62.984375 27.484375 
L 62.984375 22.515625 
L 22.125 22.515625 
Q 22.75 16.359375 26.5625 13.28125 
Q 30.375 10.203125 37.203125 10.203125 
Q 42.71875 10.203125 48.5 11.84375 
Q 54.296875 13.484375 60.40625 16.796875 
L 60.40625 3.328125 
Q 54.203125 0.984375 48 -0.21875 
Q 41.796875 -1.421875 35.59375 -1.421875 
Q 20.75 -1.421875 12.515625 6.125 
Q 4.296875 13.671875 4.296875 27.296875 
Q 4.296875 40.671875 12.375 48.328125 
Q 20.453125 56 34.625 56 
Q 47.515625 56 55.25 48.234375 
Q 62.984375 40.484375 62.984375 27.484375 
z
M 45.015625 33.296875 
Q 45.015625 38.28125 42.109375 41.328125 
Q 39.203125 44.390625 34.515625 44.390625 
Q 29.4375 44.390625 26.265625 41.53125 
Q 23.09375 38.671875 22.3125 33.296875 
z
" id="DejaVuSans-Bold-101"/>
     <path d="M 45.609375 46.6875 
L 45.609375 75.984375 
L 63.1875 75.984375 
L 63.1875 0 
L 45.609375 0 
L 45.609375 7.90625 
Q 42 3.078125 37.640625 0.828125 
Q 33.296875 -1.421875 27.59375 -1.421875 
Q 17.484375 -1.421875 10.984375 6.609375 
Q 4.5 14.65625 4.5 27.296875 
Q 4.5 39.9375 10.984375 47.96875 
Q 17.484375 56 27.59375 56 
Q 33.25 56 37.625 53.734375 
Q 42 51.46875 45.609375 46.6875 
z
M 34.078125 11.28125 
Q 39.703125 11.28125 42.65625 15.375 
Q 45.609375 19.484375 45.609375 27.296875 
Q 45.609375 35.109375 42.65625 39.203125 
Q 39.703125 43.3125 34.078125 43.3125 
Q 28.515625 43.3125 25.5625 39.203125 
Q 22.609375 35.109375 22.609375 27.296875 
Q 22.609375 19.484375 25.5625 15.375 
Q 28.515625 11.28125 34.078125 11.28125 
z
" id="DejaVuSans-Bold-100"/>
    </defs>
    <g style="fill:#262626;" transform="translate(139.7 91.7)scale(0.11 -0.11)">
     <use xlink:href="#DejaVuSans-Bold-67"/>
     <use x="73.388672" xlink:href="#DejaVuSans-Bold-111"/>
     <use x="142.089844" xlink:href="#DejaVuSans-Bold-110"/>
     <use x="213.28125" xlink:href="#DejaVuSans-Bold-102"/>
     <use x="256.787109" xlink:href="#DejaVuSans-Bold-105"/>
     <use x="291.064453" xlink:href="#DejaVuSans-Bold-114"/>
     <use x="340.380859" xlink:href="#DejaVuSans-Bold-109"/>
     <use x="444.580078" xlink:href="#DejaVuSans-Bold-101"/>
     <use x="512.402344" xlink:href="#DejaVuSans-Bold-100"/>
    </g>
   </g>
   <g id="line2d_71"/>
   <g id="line2d_72">
    <g>
     <use style="fill:#d55e00;stroke:#d55e00;" x="119.9" xlink:href="#mecfe00e0b7" y="103.995937"/>
    </g>
   </g>
   <g id="text_27">
    <!-- Deaths -->
    <defs>
     <path d="M 27.984375 58.6875 
L 27.984375 14.203125 
L 34.71875 14.203125 
Q 46.234375 14.203125 52.3125 19.921875 
Q 58.40625 25.640625 58.40625 36.53125 
Q 58.40625 47.359375 52.34375 53.015625 
Q 46.296875 58.6875 34.71875 58.6875 
z
M 9.1875 72.90625 
L 29 72.90625 
Q 45.609375 72.90625 53.734375 70.53125 
Q 61.859375 68.171875 67.671875 62.5 
Q 72.796875 57.5625 75.28125 51.109375 
Q 77.78125 44.671875 77.78125 36.53125 
Q 77.78125 28.265625 75.28125 21.796875 
Q 72.796875 15.328125 67.671875 10.40625 
Q 61.8125 4.734375 53.609375 2.359375 
Q 45.40625 0 29 0 
L 9.1875 0 
z
" id="DejaVuSans-Bold-68"/>
     <path d="M 32.90625 24.609375 
Q 27.4375 24.609375 24.671875 22.75 
Q 21.921875 20.90625 21.921875 17.28125 
Q 21.921875 13.96875 24.140625 12.078125 
Q 26.375 10.203125 30.328125 10.203125 
Q 35.25 10.203125 38.625 13.734375 
Q 42 17.28125 42 22.609375 
L 42 24.609375 
z
M 59.625 31.203125 
L 59.625 0 
L 42 0 
L 42 8.109375 
Q 38.484375 3.125 34.078125 0.84375 
Q 29.6875 -1.421875 23.390625 -1.421875 
Q 14.890625 -1.421875 9.59375 3.53125 
Q 4.296875 8.5 4.296875 16.40625 
Q 4.296875 26.03125 10.90625 30.515625 
Q 17.53125 35.015625 31.6875 35.015625 
L 42 35.015625 
L 42 36.375 
Q 42 40.53125 38.71875 42.453125 
Q 35.453125 44.390625 28.515625 44.390625 
Q 22.90625 44.390625 18.0625 43.265625 
Q 13.234375 42.140625 9.078125 39.890625 
L 9.078125 53.21875 
Q 14.703125 54.59375 20.359375 55.296875 
Q 26.03125 56 31.6875 56 
Q 46.484375 56 53.046875 50.171875 
Q 59.625 44.34375 59.625 31.203125 
z
" id="DejaVuSans-Bold-97"/>
     <path d="M 27.484375 70.21875 
L 27.484375 54.6875 
L 45.515625 54.6875 
L 45.515625 42.1875 
L 27.484375 42.1875 
L 27.484375 19 
Q 27.484375 15.1875 29 13.84375 
Q 30.515625 12.5 35.015625 12.5 
L 44 12.5 
L 44 0 
L 29 0 
Q 18.65625 0 14.328125 4.3125 
Q 10.015625 8.640625 10.015625 19 
L 10.015625 42.1875 
L 1.3125 42.1875 
L 1.3125 54.6875 
L 10.015625 54.6875 
L 10.015625 70.21875 
z
" id="DejaVuSans-Bold-116"/>
     <path d="M 63.375 33.296875 
L 63.375 0 
L 45.796875 0 
L 45.796875 5.421875 
L 45.796875 25.390625 
Q 45.796875 32.5625 45.484375 35.25 
Q 45.171875 37.9375 44.390625 39.203125 
Q 43.359375 40.921875 41.59375 41.875 
Q 39.84375 42.828125 37.59375 42.828125 
Q 32.125 42.828125 29 38.59375 
Q 25.875 34.375 25.875 26.90625 
L 25.875 0 
L 8.40625 0 
L 8.40625 75.984375 
L 25.875 75.984375 
L 25.875 46.6875 
Q 29.828125 51.46875 34.265625 53.734375 
Q 38.71875 56 44.09375 56 
Q 53.5625 56 58.46875 50.1875 
Q 63.375 44.390625 63.375 33.296875 
z
" id="DejaVuSans-Bold-104"/>
     <path d="M 51.125 52.984375 
L 51.125 39.703125 
Q 45.515625 42.046875 40.28125 43.21875 
Q 35.0625 44.390625 30.421875 44.390625 
Q 25.4375 44.390625 23.015625 43.140625 
Q 20.609375 41.890625 20.609375 39.3125 
Q 20.609375 37.203125 22.4375 36.078125 
Q 24.265625 34.96875 29 34.421875 
L 32.078125 33.984375 
Q 45.515625 32.28125 50.140625 28.375 
Q 54.78125 24.46875 54.78125 16.109375 
Q 54.78125 7.375 48.328125 2.96875 
Q 41.890625 -1.421875 29.109375 -1.421875 
Q 23.6875 -1.421875 17.890625 -0.5625 
Q 12.109375 0.296875 6 2 
L 6 15.28125 
Q 11.234375 12.75 16.71875 11.46875 
Q 22.21875 10.203125 27.875 10.203125 
Q 33.015625 10.203125 35.59375 11.609375 
Q 38.1875 13.03125 38.1875 15.828125 
Q 38.1875 18.171875 36.40625 19.3125 
Q 34.625 20.453125 29.296875 21.09375 
L 26.21875 21.484375 
Q 14.546875 22.953125 9.859375 26.90625 
Q 5.171875 30.859375 5.171875 38.921875 
Q 5.171875 47.609375 11.125 51.796875 
Q 17.09375 56 29.390625 56 
Q 34.234375 56 39.546875 55.265625 
Q 44.875 54.546875 51.125 52.984375 
z
" id="DejaVuSans-Bold-115"/>
    </defs>
    <g style="fill:#262626;" transform="translate(139.7 107.845937)scale(0.11 -0.11)">
     <use xlink:href="#DejaVuSans-Bold-68"/>
     <use x="83.007812" xlink:href="#DejaVuSans-Bold-101"/>
     <use x="150.830078" xlink:href="#DejaVuSans-Bold-97"/>
     <use x="218.310547" xlink:href="#DejaVuSans-Bold-116"/>
     <use x="266.113281" xlink:href="#DejaVuSans-Bold-104"/>
     <use x="337.304688" xlink:href="#DejaVuSans-Bold-115"/>
    </g>
   </g>
   <g id="line2d_73">
    <path d="M 225.938281 87.85 
L 247.938281 87.85 
" style="fill:none;stroke:#56b4e9;stroke-linecap:round;stroke-width:4;"/>
   </g>
   <g id="line2d_74"/>
   <g id="text_28">
    <!-- 1.6 $\times$ per week -->
    <defs>
     <path d="M 10.203125 18.890625 
L 27.78125 18.890625 
L 27.78125 0 
L 10.203125 0 
z
" id="DejaVuSans-Bold-46"/>
     <path d="M 70.125 53.71875 
L 47.796875 31.296875 
L 70.125 8.984375 
L 64.3125 3.078125 
L 41.890625 25.484375 
L 19.484375 3.078125 
L 13.71875 8.984375 
L 35.984375 31.296875 
L 13.71875 53.71875 
L 19.484375 59.625 
L 41.890625 37.203125 
L 64.3125 59.625 
z
" id="DejaVuSans-215"/>
     <path d="M 3.515625 54.6875 
L 20.515625 54.6875 
L 29.6875 17 
L 38.921875 54.6875 
L 53.515625 54.6875 
L 62.703125 17.390625 
L 71.921875 54.6875 
L 88.921875 54.6875 
L 74.515625 0 
L 55.421875 0 
L 46.1875 37.59375 
L 37.015625 0 
L 17.921875 0 
z
" id="DejaVuSans-Bold-119"/>
     <path d="M 8.40625 75.984375 
L 25.875 75.984375 
L 25.875 34.625 
L 46 54.6875 
L 66.3125 54.6875 
L 39.59375 29.59375 
L 68.40625 0 
L 47.21875 0 
L 25.875 22.796875 
L 25.875 0 
L 8.40625 0 
z
" id="DejaVuSans-Bold-107"/>
    </defs>
    <g style="fill:#262626;" transform="translate(256.738281 91.7)scale(0.11 -0.11)">
     <use transform="translate(0 0.015625)" xlink:href="#DejaVuSans-Bold-49"/>
     <use transform="translate(69.580078 0.015625)" xlink:href="#DejaVuSans-Bold-46"/>
     <use transform="translate(107.568359 0.015625)" xlink:href="#DejaVuSans-Bold-54"/>
     <use transform="translate(177.148438 0.015625)" xlink:href="#DejaVuSans-Bold-32"/>
     <use transform="translate(211.962891 0.015625)" xlink:href="#DejaVuSans-215"/>
     <use transform="translate(295.751953 0.015625)" xlink:href="#DejaVuSans-Bold-32"/>
     <use transform="translate(330.566406 0.015625)" xlink:href="#DejaVuSans-Bold-112"/>
     <use transform="translate(402.148438 0.015625)" xlink:href="#DejaVuSans-Bold-101"/>
     <use transform="translate(469.970703 0.015625)" xlink:href="#DejaVuSans-Bold-114"/>
     <use transform="translate(519.287109 0.015625)" xlink:href="#DejaVuSans-Bold-32"/>
     <use transform="translate(554.101562 0.015625)" xlink:href="#DejaVuSans-Bold-119"/>
     <use transform="translate(646.484375 0.015625)" xlink:href="#DejaVuSans-Bold-101"/>
     <use transform="translate(714.306641 0.015625)" xlink:href="#DejaVuSans-Bold-101"/>
     <use transform="translate(782.128906 0.015625)" xlink:href="#DejaVuSans-Bold-107"/>
    </g>
   </g>
   <g id="line2d_75">
    <path d="M 225.938281 104.02 
L 247.938281 104.02 
" style="fill:none;stroke:#de8f05;stroke-linecap:round;stroke-width:4;"/>
   </g>
   <g id="line2d_76"/>
   <g id="text_29">
    <!-- 1.9 $\times$ per week -->
    <g style="fill:#262626;" transform="translate(256.738281 107.87)scale(0.11 -0.11)">
     <use transform="translate(0 0.015625)" xlink:href="#DejaVuSans-Bold-49"/>
     <use transform="translate(69.580078 0.015625)" xlink:href="#DejaVuSans-Bold-46"/>
     <use transform="translate(107.568359 0.015625)" xlink:href="#DejaVuSans-Bold-57"/>
     <use transform="translate(177.148438 0.015625)" xlink:href="#DejaVuSans-Bold-32"/>
     <use transform="translate(211.962891 0.015625)" xlink:href="#DejaVuSans-215"/>
     <use transform="translate(295.751953 0.015625)" xlink:href="#DejaVuSans-Bold-32"/>
     <use transform="translate(330.566406 0.015625)" xlink:href="#DejaVuSans-Bold-112"/>
     <use transform="translate(402.148438 0.015625)" xlink:href="#DejaVuSans-Bold-101"/>
     <use transform="translate(469.970703 0.015625)" xlink:href="#DejaVuSans-Bold-114"/>
     <use transform="translate(519.287109 0.015625)" xlink:href="#DejaVuSans-Bold-32"/>
     <use transform="translate(554.101562 0.015625)" xlink:href="#DejaVuSans-Bold-119"/>
     <use transform="translate(646.484375 0.015625)" xlink:href="#DejaVuSans-Bold-101"/>
     <use transform="translate(714.306641 0.015625)" xlink:href="#DejaVuSans-Bold-101"/>
     <use transform="translate(782.128906 0.015625)" xlink:href="#DejaVuSans-Bold-107"/>
    </g>
   </g>
  </g>
 </g>
 <defs>
  <clipPath id="p73e279a3c8">
   <rect height="416.16" width="613.8" x="99" y="73.44"/>
  </clipPath>
 </defs>
</svg>
